<svg xmlns="http://www.w3.org/2000/svg" viewBox="0 0 900 600"><path style="fill:#039;stroke:none" d="M0 0h900v600H0z"/><path style="fill:#6cf;stroke:none" d="M0 0h900v300H0z"/><circle cx="450" cy="300" r="213" style="fill:#fc0;stroke:#393" stroke-width="14"/><path transform="translate(330 182)" style="fill:#000;stroke:none" d="M18 0h134a18 18 0 0 1 18 18v35h-36V36a6 6 0 0 0-6-6H42a6 6 0 0 0-6 6v93a6 6 0 0 0 6 6h86a6 6 0 0 0 6-6v-15h36v33a18 18 0 0 1-18 18H18a18 18 0 0 1-18-18V18A18 18 0 0 1 18 0z"/><path transform="translate(406 254)" style="fill:#000;stroke:none" d="M18 0h134a18 18 0 0 1 18 18v35h-36V36a6 6 0 0 0-6-6H42a6 6 0 0 0-6 6v93a6 6 0 0 0 6 6h86a6 6 0 0 0 6-6v-15h36v33a18 18 0 0 1-18 18H18a18 18 0 0 1-18-18V18A18 18 0 0 1 18 0z"/></svg>