<svg xmlns="http://www.w3.org/2000/svg" xmlns:xlink="http://www.w3.org/1999/xlink" version="1.0" viewBox="0 0 800 480">This file was released into Public Domain by its creators.<defs><linearGradient xlink:href="#a" id="y" gradientUnits="userSpaceOnUse" gradientTransform="scale(1.42368 .7024)" x1="41.458" y1="237.941" x2="52.6" y2="227.494"/><linearGradient xlink:href="#a" id="x" gradientUnits="userSpaceOnUse" gradientTransform="scale(1.15067 .86906)" x1="60.328" y1="184.92" x2="72.657" y2="173.36"/><linearGradient xlink:href="#b" id="w" gradientUnits="userSpaceOnUse" gradientTransform="scale(.98281 1.0175)" x1="120.224" y1="156.071" x2="119.338" y2="162.873"/><linearGradient xlink:href="#a" id="v" gradientUnits="userSpaceOnUse" gradientTransform="scale(1.16805 .85613)" x1="55.699" y1="184.074" x2="69.66" y2="170.985"/><linearGradient id="a"><stop offset="0" style="stop-color:#4a0000;stop-opacity:1"/><stop offset="1" style="stop-color:#ffcf00;stop-opacity:1"/></linearGradient><linearGradient xlink:href="#a" id="u" gradientUnits="userSpaceOnUse" gradientTransform="scale(1.32386 .75537)" x1="89.291" y1="215.985" x2="89.458" y2="193.804"/><linearGradient xlink:href="#b" id="t" gradientUnits="userSpaceOnUse" gradientTransform="scale(1.37695 .72624)" x1="9.77" y1="165.664" x2="41.374" y2="165.664"/><linearGradient xlink:href="#b" id="s" gradientUnits="userSpaceOnUse" gradientTransform="scale(1.37695 .72624)" x1="9.77" y1="165.664" x2="41.374" y2="165.664"/><linearGradient xlink:href="#b" id="r" gradientUnits="userSpaceOnUse" gradientTransform="scale(1.37695 .72624)" x1="9.77" y1="165.664" x2="41.374" y2="165.664"/><linearGradient xlink:href="#b" id="q" gradientUnits="userSpaceOnUse" gradientTransform="scale(1.37695 .72624)" x1="9.77" y1="165.664" x2="41.374" y2="165.664"/><linearGradient id="p" xlink:href="#b" gradientTransform="scale(1.37695 .72624)" x1="9.77" y1="165.664" x2="41.374" y2="165.664" gradientUnits="userSpaceOnUse"/><linearGradient xlink:href="#b" id="o" gradientUnits="userSpaceOnUse" gradientTransform="scale(.99245 1.0076)" x1="55.468" y1="180.893" x2="34.92" y2="168.661"/><linearGradient xlink:href="#b" id="n" gradientUnits="userSpaceOnUse" gradientTransform="scale(.99245 1.0076)" x1="55.468" y1="180.893" x2="34.92" y2="168.661"/><linearGradient xlink:href="#b" id="m" gradientUnits="userSpaceOnUse" gradientTransform="scale(.99245 1.0076)" x1="55.468" y1="180.893" x2="34.92" y2="168.661"/><linearGradient xlink:href="#b" id="l" gradientUnits="userSpaceOnUse" gradientTransform="scale(.99245 1.0076)" x1="55.468" y1="180.893" x2="34.92" y2="168.661"/><linearGradient id="k" x1="55.468" x2="34.92" xlink:href="#b" y1="180.893" y2="168.661" gradientTransform="scale(.99245 1.0076)" gradientUnits="userSpaceOnUse"/><linearGradient xlink:href="#b" id="j" gradientUnits="userSpaceOnUse" gradientTransform="scale(1.27212 .7861)" x1="201.717" y1="217.617" x2="200.051" y2="212.729"/><linearGradient xlink:href="#b" id="i" gradientUnits="userSpaceOnUse" gradientTransform="scale(1.03998 .96156)" x1="244.207" y1="187.464" x2="241.923" y2="182.494"/><linearGradient xlink:href="#b" id="h" gradientUnits="userSpaceOnUse" gradientTransform="scale(.82665 1.2097)" x1="321.593" y1="149.736" x2="315.632" y2="147.61"/><linearGradient xlink:href="#b" id="g" gradientUnits="userSpaceOnUse" gradientTransform="scale(.91179 1.09674)" x1="314.233" y1="165.933" x2="310.074" y2="165.064"/><linearGradient xlink:href="#b" id="f" gradientUnits="userSpaceOnUse" gradientTransform="scale(1.27778 .7826)" x1="133.102" y1="225.513" x2="115.366" y2="219.954"/><linearGradient xlink:href="#b" id="e" gradientUnits="userSpaceOnUse" gradientTransform="scale(1.07947 .92638)" x1="140.902" y1="187.709" x2="135.367" y2="184.645"/><linearGradient xlink:href="#b" id="d" gradientUnits="userSpaceOnUse" gradientTransform="scale(.83073 1.20376)" x1="187.142" y1="150.675" x2="182.271" y2="149.971"/><linearGradient id="b"><stop offset="0" style="stop-color:#000;stop-opacity:1"/><stop offset="1" style="stop-color:#00f;stop-opacity:1"/></linearGradient><linearGradient xlink:href="#b" id="c" gradientUnits="userSpaceOnUse" gradientTransform="scale(.95222 1.05018)" x1="178.245" y1="173.502" x2="174.871" y2="172.798"/></defs><path style="fill:#fff" d="M0 0h800v480H0z"/><path style="fill:#ce1124" d="M352 0h96v480h-96z"/><path style="fill:#ce1124;fill-opacity:1" d="M0 192h800v96H0z"/><path style="opacity:1;fill:#ce1124;fill-opacity:1" d="M0 0h353v193H0z"/><g transform="matrix(.94666 0 0 .83108 13.973 -5.794)"><g id="z"><g style="font-size:12px;stroke:#650000;stroke-width:1.07500005"><path style="font-size:12px;fill:url(#c);fill-rule:evenodd;stroke:#650000;stroke-width:1.07500005;stroke-dasharray:none;stroke-opacity:1" d="M165.382 177.399c-1.06 1.237 1.847 6.726 6.341 6.588-2.93-3.395-2.622-7.343-2.622-7.343l-3.72.755z" transform="matrix(1.14107 0 0 1.38997 -6.34 -140.462)"/><path style="font-size:12px;fill:url(#d);fill-rule:evenodd;stroke:#650000;stroke-width:1.07500005;stroke-dasharray:none;stroke-opacity:1" d="M154.223 171.455c-1.62.173-5.53 7.39.704 9.964.2-4.48 3.134-7.14 3.134-7.14l-3.223-2.004-.615-.82z" transform="matrix(1.14107 0 0 1.38997 -6.34 -140.462)"/><path style="font-size:12px;fill:url(#e);fill-rule:evenodd;stroke:#650000;stroke-width:1.07500005;stroke-dasharray:none;stroke-opacity:1" d="M153.456 167.15c-1.575-1.195-8.382 2.278-8.102 7.459 4.183-3.454 9.136-3.185 9.136-3.185l-1.034-4.274z" transform="matrix(1.14107 0 0 1.38997 -6.34 -140.462)"/><path style="font-size:12px;fill:url(#f);fill-rule:evenodd;stroke:#650000;stroke-width:1.07500005;stroke-dasharray:none;stroke-opacity:1" d="M161.327 162.962c-.112-1.625-6.032-3.503-9.14-.254 4.469.367 7.016 3.4 7.016 3.4l2.124-3.146z" transform="matrix(1.14107 0 0 1.38997 -6.34 -140.462)"/></g><g style="font-size:12px;stroke:#650000;stroke-width:1.07500005"><path style="font-size:12px;fill:url(#g);fill-opacity:1;fill-rule:evenodd;stroke:#650000;stroke-width:1.07500005;stroke-dasharray:none;stroke-opacity:1" d="M280.722 178.075c-.108 1.489.42 2.007 1.432 2.843 1.012.836 2.159 3.32 2.159 3.32s3.242-6.542 2.43-7.42c-.811-.878-5.82 1.215-6.02 1.257z" transform="matrix(1.14107 0 0 1.38997 -6.34 -140.462)"/><path style="font-size:12px;fill:url(#h);fill-opacity:1;fill-rule:evenodd;stroke:#650000;stroke-width:1.07500005;stroke-dasharray:none;stroke-opacity:1" d="M263.567 175.368c-1.613-.224-4.667 5.184-2.125 8.894 1.277-4.3 4.768-6.17 4.768-6.17l-2.642-2.724z" transform="matrix(1.14107 0 0 1.38997 -6.34 -140.462)"/><path style="font-size:12px;fill:url(#i);fill-opacity:1;fill-rule:evenodd;stroke:#650000;stroke-width:1.07500005;stroke-dasharray:none;stroke-opacity:1" d="M255.696 173.741c-1.256-1.036-6.69 1.972-6.468 6.463 3.34-2.993 7.293-2.758 7.293-2.758l-.825-3.705z" transform="matrix(1.14107 0 0 1.38997 -6.34 -140.462)"/><path style="font-size:12px;fill:url(#j);fill-opacity:1;fill-rule:evenodd;stroke:#650000;stroke-width:1.07500005;stroke-dasharray:none;stroke-opacity:1" d="M259.82 166.798c-.865-1.38-6.97-.243-8.178 4.089 4.114-1.786 7.79-.314 7.79-.314l.389-3.775z" transform="matrix(1.14107 0 0 1.38997 -6.34 -140.462)"/></g><g transform="matrix(1.14107 0 0 1.38997 -5.626 -140.462)" style="font-size:12px;fill:url(#k);stroke:#650000;stroke-width:1.07500005"><path style="font-size:12px;fill:url(#l);fill-rule:evenodd;stroke:#650000;stroke-width:1.07500005;stroke-dasharray:none;stroke-opacity:1" d="M56.274 163.764c.587-1.52-3.982-5.727-8.174-4.1 3.894 2.225 4.918 6.05 4.918 6.05l3.256-1.95z"/><path style="font-size:12px;fill:url(#m);fill-rule:evenodd;stroke:#650000;stroke-width:1.07500005;stroke-dasharray:none;stroke-opacity:1" d="M38.768 173.26c-1.524-1.372-7.92 2.53-7.538 8.429 3.9-3.901 8.616-3.56 8.616-3.56l-1.078-4.87z"/><path style="font-size:12px;fill:url(#n);fill-rule:evenodd;stroke:#650000;stroke-width:1.07500005;stroke-dasharray:none;stroke-opacity:1" d="M39.326 164.914c-.656-1.943-8.143-1.677-10.703 3.651 5.313-1.488 9.254 1.122 9.254 1.122l1.449-4.773z"/><path style="fill:url(#o);fill-opacity:1;fill-rule:evenodd;stroke:#650000;stroke-width:1.07500005;stroke-linecap:butt;stroke-linejoin:miter;stroke-dasharray:none;stroke-opacity:1" d="M46.952 180.671c-.41 1.436 0 2.05.82 3.076.82 1.025 1.436 3.69 1.436 3.69s4.51-5.74 3.895-6.766c-.615-1.025-5.946 0-6.15 0z"/></g><g transform="matrix(1.14107 0 0 1.38997 -6.34 -140.462)" style="font-size:12px;fill:url(#p);stroke:#650000;stroke-width:1.07500005"><path style="fill:url(#q);fill-opacity:1;fill-rule:evenodd;stroke:#650000;stroke-width:1.07500005;stroke-linecap:butt;stroke-linejoin:miter;stroke-dasharray:none;stroke-opacity:1" d="M28.996 114.656c0-2.05-7.179-4.194-11.309.035 5.51.29 8.41 4.025 8.41 4.025l2.899-4.06z"/><path style="font-size:12px;fill:url(#r);fill-opacity:1;fill-rule:evenodd;stroke:#650000;stroke-width:1.07500005;stroke-dasharray:none;stroke-opacity:1" d="M21.545 122.821c-1.524-1.371-7.92 2.531-7.538 8.43 3.901-3.901 8.616-3.559 8.616-3.559l-1.078-4.87z"/><path style="font-size:12px;fill:url(#s);fill-opacity:1;fill-rule:evenodd;stroke:#650000;stroke-width:1.07500005;stroke-dasharray:none;stroke-opacity:1" d="M47.601 113.952c.693-1.93-5.337-6.375-10.654-3.791 5.087 2.136 6.553 6.63 6.553 6.63l4.101-2.84z"/><path style="font-size:12px;fill:url(#t);fill-opacity:1;fill-rule:evenodd;stroke:#650000;stroke-width:1.07500005;stroke-dasharray:none;stroke-opacity:1" d="M56.114 120.997c1.197-1.106-1.052-6.896-5.532-7.28 2.516 3.712 1.75 7.597 1.75 7.597l3.782-.317z"/></g><path transform="matrix(1.14107 0 0 1.38997 -33.44 -173.473)" style="font-size:12px;fill:#ffcd00;fill-rule:evenodd;stroke:#650000;stroke-width:1.07500005" d="M103.795 151.54c-4.507-3.789-.054-10.698 3.986-7.75-2.115-2.828 1.345-5.066 2.915-3.65-.73-2.301 2.588-3.827 4.216-1.703-.584-2.567 4.337-4.069 5.613-1.264.085-2.523 4.896-4.514 5.958-.82.936-2.843 6.299-3.216 6.744.824 1.564-2.35 5.585-2.178 5.818 1.237 1.738-1.606 6.23.797 5.465 3.637 2.774-.434 6.163 3.624 2.782 6.615 5.998-2.312 7.415 5.182 3.77 8.584 1.886.831 2.052.097 3.715.72 1.663.624 4.68 1.651 7.44 2.094 2.495 0 11.643-.208 13.514-.416 1.871-.208 4.429-.914 7.485-1.663 3.2-.75 7.83-.778 12.053-1.519 3.346-.272 97.306 1.103 100.01.895 2.702-.208 6.647-2.085 6.439-4.372-.208-2.287-3.321-3.945-6.44-4.152-3.119-.208-19.127-.208-22.038.208-2.91.415-7.07 1.455-9.148 2.91-1 .466-2.65 2.225-4.05 3.382-1.31.798-5.01.916-5.01-.124 0-.68-.31.13-1.219.394-1.179.534-6.5.68-6.265 0 .416-.769-.028-1.011-1.427-.207-1.04.623-8.394.853-9.744.235.81-.977.816-.921-1.393-.117-1.4.443-7.193.79-7.61-.063-.055-.673-.711-.343-1.528-.152-6.566 1.24-7.197-.195-6.157-.819 1.04-.624 2.613-4.192.95-3.984-1.663.208-12.059 1.663-15.593 2.079-3.534.416-29.107 0-32.642-.208-3.534-.208-7.483-2.61-7.692-6.03-.37-5.483 5.821-6.86 9.564-7.692 3.742-.832 13.098-2.079 16.84-2.079 3.742 0 14.417.957 17.327.125 2.911-.832 11.75-3.155 14.248-3.327 3.685-.247 14.241.655 19.272 5.024-2.619.86-3.85 1.366-.878.59 2.703-.416 14.304-2.162 17.007-2.62 9.357-.291 6.903.749 2.329 1.58-1.527 3.516-15.275 8.422-19.641 9.046-4.366.624-13.632.167-15.704-.106-2.079-.113-11.916-.467-15.498-2.144-5.786-2.835-16.478-4.699-21.165-4.634-4.385.064-16.894 1.013-16.84 4.159-.066 5.524 11.643 5.821 16.632 5.613 4.99-.208 17.465-.624 21-1.663 3.533-1.04 11.179-1.295 15.337-1.295 4.158 0 10.235.671 12.106.463 1.871-.208 6.237-.255 8.316-1.295 2.08-1.04 6.6-2.126 11.174-2.126s38.516-.945 43.09-.737c6.621-.033 11.299 5.195 11.379 9.64.038 2.08-1.372 5.152-2.57 5.628 2.055.137 7.196.556 8.893.811 3.184.457 8.347 2.992 8.939 5.302-2.42-1.061-6.323-2.664-9.841-2.84-.69.006-74.782-.09-80.605-.063 15.833 1.352 27.932 10.16 30.956 15.203 2.703 3.119 9.356 1.871 11.85 1.456 2.495-.416 5.406-2.288 7.485-3.743 2.08-1.455 5.33-1.825 6.798-1.455 3.231-.208 3.806 2.287 2.558 3.534-1.247 1.248.207.735 3.534.735 3.326 0 6.259.895 8.22 2.783-1.87 1.248-2.814.225-.111.433 2.703.207 5.966 3.788 3.95 4.799-1.761.63-2.287.398 0 .606 3.41.208 4.34 1.803 4.782 4.638-2.886.382-1.455-.272 0 .768 1.456 1.04 3.576 5.643-1.663 5.821-1.871-.624-1.837-.745-1.438.67.369 1.456-.641 4.944-3.552 4.944-4.033.56-7.692-1.04-8.108-2.911-.416-1.871-.362 3.611-6.079 4.476-5.399.868-8.267-1.357-8.683-2.397-.416-1.04-.208-.208-2.287-.416-2.079-.208-4.699-.227-5.821-2.703 0-1.455.405-3.373 4.109-3.632 1.663-.208 2.128-1.773.88-1.981-1.247-.208-.207-3.327 2.495-2.495 2.703.832 8.94 1.04 10.396 2.08 1.455 1.039 1.871-.832-.416-2.496-2.287-1.663-16.217-4.99-19.96-3.742-8.713 3.172-23.285 2.703-25.78 2.287-2.495-.416-9.7.719-13.098-6.861-2.756-7.74-13.229-11.565-18.01-11.98-23.59-1.605-22.309-.37-7.01.153-.114 1.444-.668 4.403 1.812 4.836 4.158-.415 12.813-1.741 14.892-.494 2.079 1.248 4.158 2.287 3.742 5.198-.416 2.91.208 2.079-1.663 3.326-1.871 1.248-1.04 3.743 1.871 4.574 2.91.832 4.158 1.872 6.03 3.119 1.87 1.248-.832 3.742-2.496 2.91-1.663-.83-1.663-.83-1.87.832-.209 1.664-2.275 4.811-5.79 5.042-.737-.201-.532-1.062-.448-1.715.208-1.456-.702 1.808-1.79 2.713-.691.61-6.577 1.807-8.24 1.183.742-1.302.313-.77-1.142-.147-1.42.409-9.084 1.179-5.669-1.462.887-.962-1.217 1.202-2.378 1.579-.976.438-5.522.708-5.522-.54-1.443.918-4.878.918-5.406.208-1.04-.831-1.137.624-3.008.832-1.871.208-5.932-.208-6.14-1.871-.208-1.663.416-.624-1.87-.416-5.568 2.668-8.317-1.04-8.317-2.287 0-1.248-.208-2.703.416-3.534.623-.832-3.874-1.083-2.495-2.72 1.55-2.002 3.178-3.47 6.237-3.102 1.455.208 1.248-.416.624-1.247-.624-.832 1.663-1.248 4.366-.416 2.703.832 4.574 2.91 5.405 4.782.832 1.87 7.277.416 9.98.624 2.703.207 2.91-3.12 1.248-4.159-1.664-1.04-6.238-4.782-8.109-6.029-1.871-1.248-.624-5.614 1.04-6.653 9.682-4.728 4.366-6.237.831-5.822-3.534.416-12.617 3.042-15.528 5.329-2.91 2.287-25.525 13.496-27.604 14.744-2.079 1.247-5.102 1.55-6.35.095-1.247-1.456-2.079-.416-1.871 1.663 1.651 7.853-8.109 10.355-9.82 10.256-1.192-.089-2.898-.567-4.128-1.307-1.213 4.388-6.578 4.825-11.426 4.391-.074-.518.905-1.485.37-1.115-1.602 1.508-6.526 1.35-10.754 1.12-.281-.917 1.458-2.029.626-1.405-1.419 1.93-3.858 1.583-7.813 1.379-.047-.407 1.832-1.767.956-.953-1.73 1.367-5.335.939-8.134.973-.331-.306 1.447-2.456-.18-1.035-1.554 1.212-4.846 1.414-7.993 1.089-.56-1.022.655-1.032.989-1.674.832-1.04-.416 0-1.455 0-1.04 0-2.495.208-3.12-.832-.623-1.039-.265 1.04-.869 1.606-.604.491-1.285 1.645-3.364 2.06-2.079.416-7.485.832-8.316-1.04-1.12-.86-1.663-2.702-.832-3.742.832-1.039-3.959 2.006-6.03 2.288-6.088.849-6.86-6.03-4.157-6.654 2.702-.623 2.287-1.663.831-2.494-1.455-.832-2.287-4.159-.416-5.198 1.872-1.04 6.202-1.616 8.94-.416 1.603.795 5.032 3.521 4.367 1.455-.464-1.277.722-2.902 2.049-3.6 1.152-.766 4.698-.961 5.643.69 2.191 3.826 3.743 5.473 6.445 5.405 5.758-1.137 13.54-2.425 15.826-2.425 2.935-.503 18.47-1.604 18.47-2.644-9.317 2.33-13.084-.685-14.123-.477-1.04.207-3.6-.676-3.6-1.256 0-1.247 2.347-1.098-.98-.682-1.991-.119-3.765-.185-5.441-1.687-.275-.767 2.202-3.404 3.102-5.62-2.147-.42-6.895 2.372-8.45 4.834-1.09-.945-1.532-.086-5.427.601-1.838.58-4.827.371-6.49-.252-1.664-.624-8.18-4.192-5.028-4.65-.83-.294-1.783-.462-2.411-.587-2.287-.706-4.449-2.077-3.784-2.453-.58-.625.662-.623-.254-.748-1.247-.208-4.32-1.826-3.53-2.451-.788-.376-2.658-.956-3.45-1.248-1.455-.624-2.913-2.788-3.121-3.827-1.341.093-4.203-1.74-2.91-2.287-2.186-1.173-4.045-3.102-2.59-3.726-1.275-.726-2.165-2.052-1.278-1.555-1.326-1.172-.915-2.412.125-2.412s.624-3.326-1.247-3.326c-1.872 0-4.881 1.049-7.07 0-1.799-.995-3.326-5.406-1.663-7.277 1.664-1.872 4.99-3.95 6.653-3.743 1.664.208.832.624.416-1.247s2.348-3.277 4.158-3.743c2.195-.725 6.446-.207 7.693.624 1.247.832 1.663.832 1.663-.624 0-1.022 1.606-1.555 3.036-1.823 2.38-.406 4.241.083 5.073.784 1.291 1.338 2.079 2.91.416 4.158-1.664 1.248-.22.19 2.482-.226 1.741-.415 4.881.12 5.418 1.474.722 1.455 1.247 3.95-.624 5.197-1.87 1.248-4.574 4.366-3.118 5.406 1.455 1.04 6.029 5.613 7.069 6.237 1.04.624 2.287 2.08 3.95 1.871 1.663-.208 3.534-.416 4.99-.623 5.776-.84 8.38-1.276.966-1.105 1.664-1.699 5.15-2.2 6.662-2.5-1.331-1.447 3.599-4.504 3.599-4.92z"/><path style="font-size:12px;fill:none;fill-rule:evenodd;stroke:#650000;stroke-width:1.16338599" d="M103.805 154.662c-3.985-.453-14.065 5.856-10.814 13.702" transform="matrix(1.14107 0 0 1.38997 -33.44 -154.361)"/><path style="font-size:12px;fill:none;fill-rule:evenodd;stroke:url(#u);stroke-width:1.14831603" d="M104.413 147.627c-5.382 24.586 27.625 15.063 27.852 6.781" transform="matrix(1.14107 0 0 1.38997 -33.44 -154.361)"/><path style="font-size:12px;fill:none;fill-rule:evenodd;stroke:#650000;stroke-width:1.067765" d="M130.37 157.958c.44 3.23.7 12.254-3.92 14.561-4.62 2.307-10.404 2.58-14.92 1.472" transform="matrix(1.14107 0 0 1.38997 -33.44 -154.361)"/><path style="font-size:12px;fill:none;fill-rule:evenodd;stroke:#650000;stroke-width:1.07500005" d="M120.146 162.96c-.453 3.175-4.862 11.082-13.45 9.996" transform="matrix(1.14107 0 0 1.38997 -33.44 -154.361)"/><path transform="matrix(1.14107 0 0 1.38997 -33.44 -173.473)" style="font-size:12px;fill:none;fill-rule:evenodd;stroke:#650000;stroke-width:1.07500005" d="M50.694 142.701c4.49.32 6.736 2.887 7.698 5.132.963 2.245 1.604 3.529 1.604 3.529M54.52 160.967c1.925.641 5.453 0 5.453 0"/><path transform="matrix(1.14107 0 0 1.38997 -33.44 -173.473)" style="font-size:12px;fill:none;fill-rule:evenodd;stroke:#650000;stroke-width:.97805899" d="M56.394 164.426c4.249.963 8.497-.641 8.497-.641"/><path style="font-size:12px;fill:none;fill-rule:evenodd;stroke:url(#v);stroke-width:1.09375;stroke-opacity:.26110002" d="M65.885 158.256c11.607 0 16.537-11.829 16.537-11.829" transform="matrix(1.14107 0 0 1.38997 -33.44 -154.361)"/><path transform="matrix(1.14107 0 0 1.38997 -33.44 -173.473)" style="font-size:12px;fill:none;fill-rule:evenodd;stroke:#650000;stroke-width:1.32500005;stroke-opacity:.08920001" d="M89.506 166.437c-3.208 6.095-2.887 6.095-7.057 7.378l-4.17 1.283"/><path transform="matrix(1.14107 0 0 1.38997 -33.44 -173.473)" style="font-size:12px;fill:none;fill-rule:evenodd;stroke:#650000;stroke-width:1.07500005" d="M76.355 178.305c4.49-.962 7.377-2.886 7.377-2.886"/><path style="font-size:12px;fill:none;fill-rule:evenodd;stroke:#650000;stroke-width:1.07500005" d="M71.545 127.525c-2.566 2.245-2.246 6.415-2.246 6.415" transform="matrix(1.14107 0 0 1.38997 -33.44 -154.361)"/><path transform="matrix(1.14107 0 0 1.38997 -33.44 -173.473)" style="font-size:12px;fill:none;fill-rule:evenodd;stroke:#650000;stroke-width:1.07500005" d="M124.47 141.418c.64 4.17-1.925 6.415-3.53 6.415-1.603 0-3.394 1.557-2.41 4.059M131.168 140.776c-2.887 2.887-3.528 6.095-2.566 8.661.962 2.566.05 3.312.05 3.312"/><path transform="matrix(1.14107 0 0 1.38997 -33.44 -173.473)" style="font-size:12px;fill:none;fill-rule:evenodd;stroke:#650000;stroke-width:1.33884704" d="M96.884 164.513c-5.133.995-7.223 7.78-4.488 11.429"/><path transform="matrix(1.14107 0 0 1.38997 -33.44 -173.473)" style="font-size:12px;fill:none;fill-rule:evenodd;stroke:#650000;stroke-width:1.07500005" d="M144.036 154.89h-3.529s-2.245 3.528-6.094 2.566c-3.85-.962-.321 0-.321 0M125.11 151.948c5.493.103 4.388 3.263.321 2.942.321 3.85-6.07 3.364-5.522.415-3.844.084-5.42-3.81.162-3.271"/><path style="font-size:12px;fill:none;fill-rule:evenodd;stroke:#650000;stroke-width:1.07500005" d="M255.1 141.144c1.13-2.489 6.333-4.75 6.333-4.75M247.539 141.014c2.262-2.94 6.333-4.75 6.333-4.75M236.498 141.288c3.437-1.496 4.402-2.087 5.53-2.858a313.547 313.547 0 0 1 3.62-2.488" transform="matrix(1.14107 0 0 1.38997 -33.44 -154.361)"/><path style="font-size:12px;fill:none;fill-rule:evenodd;stroke:#650000;stroke-width:1.023332" d="M226.91 141.196c2.517-.95 4.465-1.508 6.15-2.41a15.71 15.71 0 0 0 3.579-2.523" transform="matrix(1.14107 0 0 1.38997 -33.44 -154.361)"/><path style="font-size:12px;fill:none;fill-rule:evenodd;stroke:#650000;stroke-width:1.07500005" d="M228.974 133.342c-7.997-1.966-11.573-5.87-11.573-5.87M242.286 125.018c-5.296 1.596-16.06.905-16.512.905" transform="matrix(1.14107 0 0 1.38997 -33.44 -154.361)"/><path transform="matrix(1.14107 0 0 1.38997 -33.44 -173.473)" style="font-size:12px;fill:none;fill-rule:evenodd;stroke:#650000;stroke-width:1.07500005" d="M146.477 189.225c1.584-4.062 4.553-4.978 8.267-6.306 3.845-1.13 9.698-4.552 6.078-2.064-3.619 2.489-8.84 4.072-10.65 4.977-1.809.905-2.94 2.922-2.016 3.845"/><path transform="matrix(1.14107 0 0 1.38997 -33.44 -173.473)" style="font-size:12px;fill:none;fill-rule:evenodd;stroke:#650000;stroke-width:1.07500005;stroke-linecap:round" d="M138.882 173.844c3.393 4.071 1.297 9.738-3.001 11.32"/><path transform="matrix(1.14107 0 0 1.38997 -33.44 -173.473)" style="font-size:12px;fill:none;fill-rule:evenodd;stroke:#650000;stroke-width:1.07500005" d="M150.191 159.82c5.508 1.652 5.704 5.54 6.497 7.839-1.94-.649-3.351-.338-4.809-.816"/><path transform="matrix(1.14107 0 0 1.38997 -33.44 -173.473)" style="font-size:12px;fill:none;fill-rule:evenodd;stroke:#650000;stroke-width:.98202002" d="M148.02 162.058c3.741 3.697 5.166 5.958 5.382 7.247.353 2.236.37 7.752-8.472 7.662.824-1.643 1.865-5.982.45-7.723"/><path style="font-size:12px;fill:none;fill-rule:evenodd;stroke:#650000;stroke-width:1.07500005" d="M145.944 159.457c0 3.619-3.46 5.104-5.044 5.556" transform="matrix(1.14107 0 0 1.38997 -33.44 -154.361)"/><path transform="matrix(1.14107 0 0 1.38997 -33.44 -173.473)" style="font-size:12px;fill:none;fill-rule:evenodd;stroke:#650000;stroke-width:1.07500005" d="M132.548 157.105c.227 4.298-10.63 7.465-10.404.905"/><path transform="matrix(1.14107 0 0 1.38997 -33.44 -173.473)" style="font-size:12px;fill:none;fill-rule:evenodd;stroke:#650000;stroke-width:1.08348" d="M122.113 158.236c-.23 3.167-6.204 3.846-8.272 1.131-1.609-1.81-2.528-2.714-3.677-2.94-1.148-.226-1.02-2.86-1.252-3.247-.14-.527-.883-1.888-1.255-2.399"/><path transform="matrix(1.14107 0 0 1.38997 -33.44 -173.473)" style="font-size:12px;fill:url(#w);fill-rule:evenodd;stroke:#650000;stroke-width:1.13194394" d="M113.484 159.151c2.775 3.5 9.39 1.4 11.098 2.8 1.708 1.399-1.659 6.274-2.726 9.073-2.465 2.41-7.957 2.254-9.976.464 1.087-3.343 1.178-10.47 1.391-10.704l.213-1.632z"/><path transform="matrix(1.14107 0 0 1.38997 -33.44 -173.473)" style="font-size:12px;fill:none;fill-rule:evenodd;stroke:#650000;stroke-width:1.07500005" d="M63.724 138.721c.452 2.036-.227 2.488-.905 4.298-.679 1.81.226 4.976.226 4.976M62.53 195.496c2.262-.453 7.012 0 7.012 0M70.962 200.842c1.357-1.81 4.524-3.393 4.524-3.393M96.358 203.249c1.13-1.131 1.13-4.75 1.13-4.75M104.61 203.221c1.8-1.483 1.898-4.668 1.898-4.668M111.169 203.14c1.81-2.488 1.514-5.363 1.514-5.363M121.446 203.412c1.13-1.357 1.13-4.524 1.13-4.524M194.751 196.237c-4.071-.679-6.56 3.393-6.56 3.393M200.098 195.577c-.452 2.941-3.619 5.655-3.619 5.655M206.513 195.332c-.226 2.488-3.845 5.88-3.845 5.88"/><path style="font-size:12px;fill:none;fill-rule:evenodd;stroke:#650000;stroke-width:1.07499897" d="M214.495 180.589c-.596 3.309-3.852 5.79-3.852 5.79" transform="matrix(1.14107 0 0 1.38997 -33.44 -154.361)"/><path transform="matrix(1.14107 0 0 1.38997 -33.44 -173.473)" style="font-size:12px;fill:none;fill-rule:evenodd;stroke:#650000;stroke-width:1.07500005" d="M220.374 193.171c.226 2.94-1.81 7.465-3.167 8.37M227.385 194.427c.679 1.583 0 3.845 0 3.845M183.153 188.257c2.714.453 4.298 2.715 4.298 2.715M178.519 193.935c1.426-3.56 7.573-1.82 8.316-.865"/><path style="font-size:12px;fill:none;fill-rule:evenodd;stroke:#650000;stroke-width:1.07500005" d="M294.595 163.78c-2.262-.227-5.654.678-5.654.678" transform="matrix(1.14107 0 0 1.38997 -33.44 -154.361)"/><path transform="matrix(1.14107 0 0 1.38997 -33.44 -173.473)" style="font-size:12px;fill:none;fill-rule:evenodd;stroke:#650000;stroke-width:1.07500005" d="M305.114 180.649c-3.167.905-6.786 1.13-6.786 1.13M309.183 185.865c-2.715-.226-4.75-.226-4.75-.226M314.458 190.78c-2.714-.227-7.012 0-7.012 0M312.371 197.141c-.904-1.81-3.619-2.261-3.619-2.261M285.71 201.352c.678-2.714 5.173-4.89 7.661-4.89h2.488M281.976 195.351c2.714-.678 7.012-.904 7.012-.904"/><path style="font-size:12px;fill:none;fill-rule:evenodd;stroke:#650000;stroke-width:1.07500005" d="M106.017 170.925c2.715-1.584 4.85-4.845 4.85-4.845" transform="matrix(1.14107 0 0 1.38997 -33.44 -154.361)"/><path transform="matrix(1.14107 0 0 1.38997 -33.44 -173.473)" style="font-size:12px;fill:none;fill-rule:evenodd;stroke:#650000;stroke-width:1.07500005" d="M139.108 145.117c-2.714 2.036-2.94 2.262-2.94 2.262M141.822 148.962c-3.619.227-3.814.11-3.814.11"/><path transform="matrix(1.14107 0 0 1.38997 -33.44 -173.473)" style="font-size:12px;fill:none;fill-rule:evenodd;stroke:#650000;stroke-width:1.21807504" d="M128.938 147.437c2.676-.71 8.903-.113 8.813 1.535.004 2.024-2.435 2.148-8.868.233l.055-1.487v-.281z"/><path transform="matrix(1.14107 0 0 1.38997 -33.44 -173.473)" style="font-size:12px;fill:none;fill-rule:evenodd;stroke:#650000;stroke-width:.98946202" d="M120.502 147.647c.334-2.405-6.167-4.776-7.75-3.435-1.929 2.217 3.542 4.193 4.993 4.193 1.357 0 .553.126.553.126"/><path transform="matrix(1.14107 0 0 1.38997 -33.44 -173.473)" style="font-size:12px;fill:none;fill-rule:evenodd;stroke:#650000;stroke-width:1.07500005;stroke-opacity:.3" d="M139.798 165.67c2.05 2.87 2.653 7.744.337 10.108"/><path transform="matrix(1.14107 0 0 1.38997 -33.44 -173.473)" style="font-size:12px;fill:none;fill-rule:evenodd;stroke:#650000;stroke-width:1.07500005" d="M138.158 156.649c-2.46 4.92-.41 9.431-.41 9.431M109.043 157.88c-2.05 1.23-3.69.82-3.69.82"/><path transform="matrix(1.14107 0 0 1.38997 -33.44 -173.473)" style="font-size:12px;fill:none;fill-rule:evenodd;stroke:#650000;stroke-width:1.07500005;stroke-opacity:.3" d="M132.417 172.231c2.05.82 4.92 5.741 4.51 7.382l-.41 1.64M131.597 174.282c1.23 2.46 2.87 6.15 2.46 7.38l-.41 1.231M124.215 176.742c.82 2.46.41 6.561-.82 7.381l-1.23.82M122.165 177.152c-1.23 2.87-2.46 6.971-2.46 6.971"/><path transform="matrix(1.14107 0 0 1.38997 -33.44 -173.473)" style="font-size:12px;fill:none;fill-rule:evenodd;stroke:#650000;stroke-width:2.32500005;stroke-linecap:round;stroke-opacity:.10189999" d="M104.122 159.52c-2.46 2.46-5.74 4.92-5.74 4.92"/><path transform="matrix(1.14107 0 0 1.38997 -33.44 -173.473)" style="font-size:12px;fill:none;fill-rule:evenodd;stroke:#650000;stroke-width:1.07500005;stroke-opacity:.2994" d="M102.482 169.36c-2.05 1.231-4.92 4.101-4.92 4.101M104.942 173.462c-3.28-1.64-6.97 1.23-6.97 1.23"/><path transform="matrix(1.14107 0 0 1.38997 -33.44 -173.473)" style="font-size:12px;fill:none;fill-rule:evenodd;stroke:#650000;stroke-width:1.32500005;stroke-opacity:.09549997" d="M84.538 177.85c-.82 1.641-6.971 2.871-6.971 2.871"/><path style="font-size:12px;fill:none;fill-rule:evenodd;stroke:#650000;stroke-width:2.087672;stroke-linecap:round" d="m134.911 134.243-.41 1.855" transform="matrix(1.14107 0 0 1.38997 -33.44 -154.361)"/><path style="font-size:12px;fill:none;fill-rule:evenodd;stroke:#650000;stroke-width:1.69350505;stroke-linecap:round" d="M118.042 130.893c-.482 1.396-1.336 2.829-1.336 2.829" transform="matrix(1.14107 0 0 1.38997 -33.44 -154.361)"/><path transform="matrix(1.14107 0 0 1.38997 -33.44 -173.473)" style="font-size:12px;fill:none;fill-rule:evenodd;stroke:#650000;stroke-width:1.07500005" d="M98.772 159.119c-7.554 2.872-8.844 5.411-7.666 11.462"/><path transform="matrix(1.14107 0 0 1.38997 -33.44 -173.473)" style="font-size:12px;fill:none;fill-rule:evenodd;stroke:#600;stroke-width:1.28750002" d="M150.09 150.848c-2.163.71-1.844 4.414-1.844 4.414"/><path transform="matrix(1.14107 0 0 1.38997 -33.44 -173.473)" style="font-size:12px;fill:none;fill-rule:evenodd;stroke:#600;stroke-width:1.12929499" d="M104.098 145.691c2.308 1.178 1.385 4.711 1.385 4.711"/><path style="font-size:12px;fill:#390000;fill-opacity:.59870001;stroke-width:1" d="M88.906 188.82c-.168 3.526-4.762 2.593-6.717 2.603l1.696-2.303c.242-.001.794.224 1.457-.135l3.564-.165z" transform="matrix(1.14107 0 0 1.38997 -33.44 -154.361)"/><path style="font-size:12px;fill:#390000;fill-opacity:.1;stroke-width:1" d="M129.239 158.536c.525 1.693.484 2.822.298 4.657-.6 2.94-.783 3.032-2.444 5.46-.588.677-.298-.047-1.845 2.224l-5.41-2.696c.291.86 0-.625.261-.918.837-1.173.79-1.36 1.064-2.807.112-1.316 1.535-3.516 2.354-1.373l5.722-4.547zM110.07 169.578c1.237.258 4.283-.49 5.61-.694 2.122-.519.172-.784 1.903-1.957.482-.407.917-1.822 1.34-2.268l-2.299-.11c-.292 1.423-2.147.267-2.355.447-.836.59-.751.219-1.795.461-.952.133-1.988-.103-.422.32l-1.982 3.801z" transform="matrix(1.14107 0 0 1.38997 -33.44 -154.361)"/><path transform="matrix(1.14107 0 0 1.38997 -33.44 -173.473)" style="font-size:12px;fill:#390000;fill-opacity:.1;stroke-width:1" d="M229.587 174.559c-.695 2.825-1.662 4.289-3.388 6.543-3.154 3.288-6.093 5.066-10.197 6.537a29.174 29.174 0 0 1-3.907.556l-.611-9.502a12.221 12.221 0 0 0 1.707-.204c2.028-.675 3.324-1.544 4.85-3.184 1.21-1.639 1.75-4.04 1.07-.302l10.476-.444z"/><path style="font-size:12px;fill:none;fill-rule:evenodd;stroke:url(#x);stroke-width:1.51126802;stroke-opacity:.26110002" d="M70.415 161.038c8.881-1.52 13.828-10.074 13.828-10.074" transform="matrix(1.14107 0 0 1.38997 -33.44 -154.361)"/><path transform="matrix(1.14107 0 0 1.38997 -33.44 -173.473)" style="font-size:12px;fill:none;fill-rule:evenodd;stroke:url(#y);stroke-width:1.51126802;stroke-opacity:.26110002" d="M60.05 167.154c9.002.383 15.64-6.936 15.64-6.936"/><path transform="matrix(1.14107 0 0 1.38997 -33.44 -173.473)" style="font-size:12px;fill:none;fill-rule:evenodd;stroke:#700;stroke-width:2.75;stroke-opacity:.10189999" d="m274.888 186.09.442-.884c-.973 1.946-.728 1.047 2.651-.884h6.63c2.75.027 4.134.438 6.629.884 1.524.61 2.926 1.527 4.42 2.21"/><path style="font-size:12px;fill:#390000;fill-opacity:.1;stroke-width:1" d="M102.004 165.63c-.283.974 3.2 2.316 5.24 2.381 2.136-.959 2.21-1.327 3.681-2.93.38-.534-.073-.174.228-.74l-4.533-3.14c-.572.25-.93.482-1.091.718-.703.799-.688 1.254-1.745 1.71-.995.321-1.103.142-.345.43l-.766.902-.669.669z" transform="matrix(1.14107 0 0 1.38997 -33.44 -154.361)"/><path transform="matrix(1.14107 0 0 1.38997 -33.44 -173.473)" style="font-size:12px;fill:#390000;fill-opacity:.1;stroke-width:1" d="M141.81 179.226c1.27-1.007 1.786-1.89 2.526-3.389.931-2.564 1.147-4.684.935-7.43a21.645 21.645 0 0 0-.63-2.437l-4.96 1.637c.12.353.218.693.295 1.057.131 1.346-.007 2.299-.483 3.55-.548 1.063-1.639 1.89.097.699l2.22 6.313z"/><path transform="matrix(1.14107 0 0 1.38997 -33.44 -173.473)" style="font-size:12px;fill:#390000;fill-opacity:.1;stroke-width:1" d="M145.209 162.571c1.628.14 2.538.606 3.966 1.477 2.152 1.682 3.451 3.391 4.71 5.889.295.816.533 1.62.734 2.47l-5.151 1.44a9.3 9.3 0 0 0-.3-1.084c-.593-1.24-1.213-1.984-2.281-2.792-1.033-.604-2.411-.691-.284-.66l-1.394-6.74z"/><path style="font-size:12px;fill:#390000;fill-opacity:.1;stroke-width:1" d="M137.253 170.34c1.37-1.622 2.497-.678 2.908-2.689.23-3.321-.365-5.872-1.83-9.006a25.993 25.993 0 0 0-1.924-2.626l-6.323 3.65c.319.369.601.732.865 1.13.756 1.527.965 2.688.822 4.315-.325 1.434.043 1.89 1.549 2.344l3.933 2.881z" transform="matrix(1.14107 0 0 1.38997 -33.44 -154.361)"/><path transform="matrix(1.14107 0 0 1.38997 -33.44 -173.473)" style="font-size:12px;fill:none;fill-rule:evenodd;stroke:#700;stroke-width:2.75;stroke-opacity:.10189999" d="M306.23 192.12c2.751.026 4.134.438 6.63.883 1.523.61 2.926 1.527 4.419 2.21M293.276 179.4c2.703-.508 4.14-.374 6.674-.422 1.613.302 3.168.93 4.765 1.31"/><path transform="matrix(1.14107 0 0 1.38997 -33.44 -173.473)" style="font-size:12px;fill:none;fill-rule:evenodd;stroke:#700;stroke-width:2.07181501;stroke-opacity:.10189999" d="M250.367 184.726c-1.787.04-2.692-.288-4.32-.62-1-.498-1.926-1.268-2.907-1.83"/><path style="font-size:12px;fill:none;fill-rule:evenodd;stroke:#700;stroke-width:2.27976704;stroke-opacity:.10189999" d="M267.64 146.99c-8.864-.196-15.487-.303-21.431-.423-5.736-.105-15.233-.32-21.456-.438" transform="matrix(1.14107 0 0 1.38997 -33.44 -154.361)"/><path transform="matrix(1.14107 0 0 1.38997 -33.44 -173.473)" style="font-size:12px;fill:none;fill-rule:evenodd;stroke:#700;stroke-width:2.07181406;stroke-opacity:.10189999" d="M196.308 166.046c1.641-.707 2.603-.743 4.237-1.045 1.113.086 2.26.452 3.38.605"/><path transform="matrix(1.14107 0 0 1.38997 -33.44 -173.473)" style="font-size:12px;fill:#390000;fill-opacity:.1;stroke-width:1" d="M59.644 157.402c-.735 1.129-1.29 1.602-2.215 2.286-1.533.88-2.303.795-3.767.69-.43-.118-.416-2.596-.819-2.796l.79-1.689c.173.094.344.169.531.225.713.075 1.252-.072 2.003-.52.659-.505 1.269-1.474.366.064l3.11 1.74z"/><g style="font-size:12px"><path style="font-size:12px;fill:none;fill-rule:evenodd;stroke:#650000;stroke-width:1.18405902;stroke-linecap:butt;stroke-linejoin:miter" d="M113.032 158.297c-.255 4.919-3.625 7.542-3.625 7.542" transform="matrix(1.14107 0 0 1.2699 -33.44 -154.743)"/><path style="font-size:12px;fill:none;fill-rule:evenodd;stroke:#650000;stroke-width:1.30718195" d="M109.63 156.008c-1.735 5.361.488 9.668.488 9.668" transform="matrix(1.14107 0 0 1.2699 -33.44 -154.743)"/></g><g style="font-size:12px"><path style="font-size:12px;fill:none;fill-rule:evenodd;stroke:#650000;stroke-width:1.18405902;stroke-linecap:butt;stroke-linejoin:miter" d="M113.032 158.297c-.255 4.919-3.625 7.542-3.625 7.542" transform="matrix(-1.13063 -.16995 -.15401 1.24759 263.427 -126.935)"/><path style="font-size:12px;fill:none;fill-rule:evenodd;stroke:#650000;stroke-width:1.30718195" d="M109.63 156.008c-1.735 5.361.488 9.668.488 9.668" transform="matrix(-1.13063 -.16995 -.15401 1.24759 263.427 -126.935)"/></g><path style="font-size:12px;fill:#390000;fill-opacity:.1;stroke-width:1" d="M106.112 186.438c-.234 3.605-6.632 2.651-9.356 2.661l.765-.947c.336-.001 2.703-1.178 3.627-1.545l4.964-.169z" transform="matrix(1.14107 0 0 1.38997 -33.44 -154.361)"/><path style="font-size:12px;fill:#390000;fill-opacity:.1;stroke-width:1" d="M112.305 184.805c-.199 5.088-5.656 3.742-7.979 3.756l.653-1.336c.287-.003 2.305-1.663 3.093-2.181l4.233-.239zM122.285 185.035c-.274 7.56-7.77 5.558-10.962 5.58l.897-1.986c.394-.003 3.167-2.47 4.25-3.24l5.815-.354z" transform="matrix(1.14107 0 0 1.38997 -33.44 -154.361)"/><path style="font-size:12px;fill:#390000;fill-opacity:.1;stroke-width:1" d="M132.149 184.92c-.274 7.56-7.77 5.559-10.961 5.58l.896-1.985c.394-.004 3.167-2.47 4.25-3.24l5.815-.355zM96.438 184.92c-.234 7.56-6.632 5.559-9.355 5.58l.765-1.985c.336-.004 2.703-2.47 3.627-3.24l4.963-.355z" transform="matrix(1.14107 0 0 1.38997 -33.44 -154.361)"/><path style="font-size:12px;fill:#390000;fill-opacity:.59870001;stroke-width:1" d="M101.235 164.284c-.882 1.917-2.336 3.4-2.105 4.592l-1.36-.447c1.066.274-1.214-3.1-1.765-2.464l1.277-.673.296-.37.635-.23 3.022-.408z" transform="matrix(1.14107 0 0 1.38997 -33.44 -154.361)"/><path style="font-size:12px;fill:none;fill-rule:evenodd;stroke:#650000;stroke-width:1.07500005" d="M151.04 143.522c.673.242 2.393.02 5.558.978-1.31 1.394-4.685 2.204-6.001 1.797" transform="matrix(1.14107 0 0 1.38997 -33.44 -154.361)"/><path style="font-size:12px;fill:none;fill-rule:evenodd;stroke:#700;stroke-width:2.22242808;stroke-opacity:.10189999" d="M229.591 175.692c-2.012.371-3.105.218-5.017.195-1.237-.303-2.449-.886-3.678-1.256" transform="matrix(1.14107 0 0 1.38997 -33.44 -154.361)"/><path style="font-size:12px;fill:none;fill-rule:evenodd;stroke:#700;stroke-width:3.41025209;stroke-opacity:.10189999" d="M209.826 180.797c3.777.737 5.935.712 9.634.961 2.478-.182 4.99-.705 7.474-.969" transform="matrix(1.14107 0 0 1.38997 -33.44 -154.361)"/><path style="font-size:12px;fill:none;fill-rule:evenodd;stroke:#650000;stroke-width:1.07500005;stroke-linecap:round" d="M158.896 173.435c-3.892.96-5.717 1.025-6.988.177" transform="matrix(1.14107 0 0 1.38997 -33.44 -154.361)"/><path style="font-size:12px;fill:none;fill-rule:evenodd;stroke:#650000;stroke-width:1.03870499;stroke-linecap:round" d="M163.229 171.071c-3.414.96-5.359 1.289-7.054.506" transform="matrix(1.14107 0 0 1.38997 -33.44 -154.361)"/><path style="font-size:12px;fill:none;fill-rule:evenodd;stroke:#650000;stroke-width:.84700698;stroke-linecap:round" d="M169.006 168.183c-2.27.959-3.563 1.288-4.69.505" transform="matrix(1.14107 0 0 1.38997 -33.44 -154.361)"/><path style="font-size:12px;fill:none;fill-rule:evenodd;stroke:#650000;stroke-width:.93706101;stroke-linecap:round" d="M173.011 165.95c-2.779.96-4.361 1.289-5.74.506" transform="matrix(1.14107 0 0 1.38997 -33.44 -154.361)"/><path style="font-size:12px;fill:none;fill-rule:evenodd;stroke:#650000;stroke-width:1.07500005" d="M63.39 124.971c.453 2.036-.225 2.489-.904 4.298-.678 1.81.226 4.976.226 4.976M71.988 127.525c-2.566 2.245-2.245 6.415-2.245 6.415" transform="matrix(1.14107 0 0 1.38997 -33.44 -154.361)"/><path style="font-size:12px;fill:none;fill-rule:evenodd;stroke:#650000;stroke-width:1.08773994" d="M51.027 128.507c4.597.321 6.896 2.887 7.881 5.133.986 2.245 1.643 3.528 1.643 3.528" transform="matrix(1.14107 0 0 1.38997 -33.44 -154.361)"/></g><use height="400" width="800" transform="translate(0 115.489)" xlink:href="#z"/></g></svg>