<svg xmlns="http://www.w3.org/2000/svg" xmlns:xlink="http://www.w3.org/1999/xlink" viewBox="0 0 700 466.667"><defs><path id="a" d="M0 0z"/></defs><defs><clipPath id="b" clipPathUnits="userSpaceOnUse"><use xlink:href="#a"/></clipPath><clipPath id="c" clipPathUnits="userSpaceOnUse"><use xlink:href="#a"/></clipPath><clipPath id="d" clipPathUnits="userSpaceOnUse"><use xlink:href="#a"/></clipPath><clipPath id="e" clipPathUnits="userSpaceOnUse"><use xlink:href="#a"/></clipPath><clipPath id="m" clipPathUnits="userSpaceOnUse"><use xlink:href="#a"/></clipPath><clipPath id="l" clipPathUnits="userSpaceOnUse"><use xlink:href="#a"/></clipPath><clipPath id="k" clipPathUnits="userSpaceOnUse"><use xlink:href="#a"/></clipPath><clipPath id="j" clipPathUnits="userSpaceOnUse"><use xlink:href="#a"/></clipPath><clipPath id="i"><use xlink:href="#a"/></clipPath><clipPath id="h"><use xlink:href="#a"/></clipPath><clipPath id="g"><use xlink:href="#a"/></clipPath><clipPath id="f"><use xlink:href="#a"/></clipPath></defs><path fill="#fff" d="M0 0h700v466.667H0z"/><path fill="#a07332" d="M585.475 172.63c-63.337 63.437-161.186 152.936-230.818 192.745-70.445 40.275-92.75 13.558-66.905-34.934 36.265-68.04 85.848-119.932 136.296-174.423-8.598 17.374-37.367 82.964-7.955 98.014 39.143 20.03 134.864-53.254 169.382-81.401z"/><path fill="#2d3c5a" d="M114.525 294.036C177.863 230.6 275.711 141.1 345.343 101.29c70.445-40.274 92.75-13.557 66.905 34.935-36.265 68.04-85.848 119.932-136.296 174.422 8.598-17.373 37.368-82.963 7.955-98.013-39.143-20.03-134.864 53.253-169.382 81.4z"/><path fill="#2d3c5a" d="M389.758 259.706c-14.565 21.957-44.173 27.95-66.13 13.385l52.745-79.514c21.957 14.565 27.95 44.172 13.385 66.13z"/><path fill="#a07332" d="M323.628 273.09c-21.956-14.564-27.949-44.171-13.384-66.128 14.565-21.957 44.172-27.95 66.13-13.385z"/><g fill="#0f0" clip-path="url(#b)" transform="matrix(.5495 0 0 -.5495 759.562 330.995)"><text transform="matrix(1 0 0 -1 47.37 20.402)">
      <tspan x="0 3.96 7.9200001 11.88 15.84 17.82 20.900881 24.86088 28.820881 30.80088 34.76088 38.720879 40.700878 44.660881 48.62088 50.822639 54.782639 58.742641 60.944401 64.904404" y="0" font-family="Times" font-size="7.92" style="-inkscape-font-specification:Times-Roman">2008 Jun 12 03:54:25</tspan>
    </text></g><g fill="#0f0" clip-path="url(#c)" transform="matrix(.5495 0 0 -.5495 759.562 330.995)"><text transform="matrix(1 0 0 -1 134.161 20.88)">
      <tspan x="0 5.0251198 11.21256 15.85488 17.594879 19.91256 21.652559 27.84 30.930241 33.247921 35.1828 37.11768 40.597679 42.337681 48.907921 51.998161 53.933041 57.41304 60.503281 62.43816" y="0" font-family="Times" font-size="6.96" style="-inkscape-font-specification:Times-Roman">OMC - Martin Weinelt</tspan>
    </text></g><g fill="#0f0" clip-path="url(#d)" transform="matrix(.5495 0 0 -.5495 759.562 330.995)"><text transform="matrix(1 0 0 -1 408.315 40.076)">
      <tspan x="0 6.96" y="0" font-family="Times" font-size="13.92" style="-inkscape-font-specification:Times-Roman">km</tspan>
    </text></g><g fill="#0f0" clip-path="url(#b)" transform="matrix(.28966 0 0 -.28966 478.048 280.058)"><text transform="matrix(1 0 0 -1 47.37 20.402)">
      <tspan x="0 3.96 7.9200001 11.88 15.84 17.82 20.900881 24.86088 28.820881 30.80088 34.76088 38.720879 40.700878 44.660881 48.62088 50.822639 54.782639 58.742641 60.944401 64.904404" y="0" font-family="Times" font-size="7.92" style="-inkscape-font-specification:Times-Roman">2008 Jun 12 04:45:24</tspan>
    </text></g><g fill="#0f0" clip-path="url(#c)" transform="matrix(.28966 0 0 -.28966 478.048 280.058)"><text transform="matrix(1 0 0 -1 134.161 20.88)">
      <tspan x="0 5.0251198 11.21256 15.85488 17.594879 19.91256 21.652559 27.84 30.930241 33.247921 35.1828 37.11768 40.597679 42.337681 48.907921 51.998161 53.933041 57.41304 60.503281 62.43816" y="0" font-family="Times" font-size="6.96" style="-inkscape-font-specification:Times-Roman">OMC - Martin Weinelt</tspan>
    </text></g><g fill="#0f0" clip-path="url(#e)" transform="matrix(.28966 0 0 -.28966 478.048 280.058)"><text transform="matrix(1 0 0 -1 408.315 40.076)">
      <tspan x="0 6.96" y="0" font-family="Times" font-size="13.92" style="-inkscape-font-specification:Times-Roman">km</tspan>
    </text></g><g fill="#0f0" clip-path="url(#b)" transform="matrix(.55206 0 0 -.55206 5195.64 331.858)"><text transform="matrix(1 0 0 -1 47.37 20.402)">
        <tspan x="0 3.96 7.9200001 11.88 15.84 17.82 20.900881 24.86088 28.820881 30.80088 34.76088 38.720879 40.700878 44.660881 48.62088 50.822639 54.782639 58.742641 60.944401 64.904404" y="0" font-family="Times" font-size="7.92" style="-inkscape-font-specification:Times-Roman">2008 Jun 12 03:54:25</tspan>
      </text></g><g fill="#0f0" clip-path="url(#c)" transform="matrix(.55206 0 0 -.55206 5195.64 331.858)"><text transform="matrix(1 0 0 -1 134.161 20.88)">
        <tspan x="0 5.0251198 11.21256 15.85488 17.594879 19.91256 21.652559 27.84 30.930241 33.247921 35.1828 37.11768 40.597679 42.337681 48.907921 51.998161 53.933041 57.41304 60.503281 62.43816" y="0" font-family="Times" font-size="6.96" style="-inkscape-font-specification:Times-Roman">OMC - Martin Weinelt</tspan>
      </text></g><g fill="#0f0" clip-path="url(#d)" transform="matrix(.55206 0 0 -.55206 5195.64 331.858)"><text transform="matrix(1 0 0 -1 408.315 40.076)">
        <tspan x="0 6.96" y="0" font-family="Times" font-size="13.92" style="-inkscape-font-specification:Times-Roman">km</tspan>
      </text></g><g fill="#0f0" clip-path="url(#b)" transform="matrix(.29101 0 0 -.29101 4912.814 280.684)"><text transform="matrix(1 0 0 -1 47.37 20.402)">
        <tspan x="0 3.96 7.9200001 11.88 15.84 17.82 20.900881 24.86088 28.820881 30.80088 34.76088 38.720879 40.700878 44.660881 48.62088 50.822639 54.782639 58.742641 60.944401 64.904404" y="0" font-family="Times" font-size="7.92" style="-inkscape-font-specification:Times-Roman">2008 Jun 12 04:45:24</tspan>
      </text></g><g fill="#0f0" clip-path="url(#c)" transform="matrix(.29101 0 0 -.29101 4912.814 280.684)"><text transform="matrix(1 0 0 -1 134.161 20.88)">
        <tspan x="0 5.0251198 11.21256 15.85488 17.594879 19.91256 21.652559 27.84 30.930241 33.247921 35.1828 37.11768 40.597679 42.337681 48.907921 51.998161 53.933041 57.41304 60.503281 62.43816" y="0" font-family="Times" font-size="6.96" style="-inkscape-font-specification:Times-Roman">OMC - Martin Weinelt</tspan>
      </text></g><g fill="#0f0" clip-path="url(#e)" transform="matrix(.29101 0 0 -.29101 4912.814 280.684)"><text transform="matrix(1 0 0 -1 408.315 40.076)">
        <tspan x="0 6.96" y="0" font-family="Times" font-size="13.92" style="-inkscape-font-specification:Times-Roman">km</tspan>
      </text></g><g fill="#0f0" clip-path="url(#b)" transform="matrix(.5495 0 0 -.5495 779.862 328.04)"><text transform="matrix(1 0 0 -1 47.37 20.402)">
      <tspan x="0 3.96 7.9200001 11.88 15.84 17.82 20.900881 24.86088 28.820881 30.80088 34.76088 38.720879 40.700878 44.660881 48.62088 50.822639 54.782639 58.742641 60.944401 64.904404" y="0" font-family="Times" font-size="7.92" style="-inkscape-font-specification:Times-Roman">2008 Jun 12 03:54:25</tspan>
    </text></g><g fill="#0f0" clip-path="url(#c)" transform="matrix(.5495 0 0 -.5495 779.862 328.04)"><text transform="matrix(1 0 0 -1 134.161 20.88)">
      <tspan x="0 5.0251198 11.21256 15.85488 17.594879 19.91256 21.652559 27.84 30.930241 33.247921 35.1828 37.11768 40.597679 42.337681 48.907921 51.998161 53.933041 57.41304 60.503281 62.43816" y="0" font-family="Times" font-size="6.96" style="-inkscape-font-specification:Times-Roman">OMC - Martin Weinelt</tspan>
    </text></g><g fill="#0f0" clip-path="url(#d)" transform="matrix(.5495 0 0 -.5495 779.862 328.04)"><text transform="matrix(1 0 0 -1 408.315 40.076)">
      <tspan x="0 6.96" y="0" font-family="Times" font-size="13.92" style="-inkscape-font-specification:Times-Roman">km</tspan>
    </text></g><g fill="#0f0" clip-path="url(#b)" transform="matrix(.28966 0 0 -.28966 498.349 277.103)"><text transform="matrix(1 0 0 -1 47.37 20.402)">
      <tspan x="0 3.96 7.9200001 11.88 15.84 17.82 20.900881 24.86088 28.820881 30.80088 34.76088 38.720879 40.700878 44.660881 48.62088 50.822639 54.782639 58.742641 60.944401 64.904404" y="0" font-family="Times" font-size="7.92" style="-inkscape-font-specification:Times-Roman">2008 Jun 12 04:45:24</tspan>
    </text></g><g fill="#0f0" clip-path="url(#c)" transform="matrix(.28966 0 0 -.28966 498.349 277.103)"><text transform="matrix(1 0 0 -1 134.161 20.88)">
      <tspan x="0 5.0251198 11.21256 15.85488 17.594879 19.91256 21.652559 27.84 30.930241 33.247921 35.1828 37.11768 40.597679 42.337681 48.907921 51.998161 53.933041 57.41304 60.503281 62.43816" y="0" font-family="Times" font-size="6.96" style="-inkscape-font-specification:Times-Roman">OMC - Martin Weinelt</tspan>
    </text></g><g fill="#0f0" clip-path="url(#e)" transform="matrix(.28966 0 0 -.28966 498.349 277.103)"><text transform="matrix(1 0 0 -1 408.315 40.076)">
      <tspan x="0 6.96" y="0" font-family="Times" font-size="13.92" style="-inkscape-font-specification:Times-Roman">km</tspan>
    </text></g><g fill="#0f0" clip-path="url(#b)" transform="matrix(.55206 0 0 -.55206 5215.94 328.903)"><text transform="matrix(1 0 0 -1 47.37 20.402)">
        <tspan x="0 3.96 7.9200001 11.88 15.84 17.82 20.900881 24.86088 28.820881 30.80088 34.76088 38.720879 40.700878 44.660881 48.62088 50.822639 54.782639 58.742641 60.944401 64.904404" y="0" font-family="Times" font-size="7.92" style="-inkscape-font-specification:Times-Roman">2008 Jun 12 03:54:25</tspan>
      </text></g><g fill="#0f0" clip-path="url(#c)" transform="matrix(.55206 0 0 -.55206 5215.94 328.903)"><text transform="matrix(1 0 0 -1 134.161 20.88)">
        <tspan x="0 5.0251198 11.21256 15.85488 17.594879 19.91256 21.652559 27.84 30.930241 33.247921 35.1828 37.11768 40.597679 42.337681 48.907921 51.998161 53.933041 57.41304 60.503281 62.43816" y="0" font-family="Times" font-size="6.96" style="-inkscape-font-specification:Times-Roman">OMC - Martin Weinelt</tspan>
      </text></g><g fill="#0f0" clip-path="url(#d)" transform="matrix(.55206 0 0 -.55206 5215.94 328.903)"><text transform="matrix(1 0 0 -1 408.315 40.076)">
        <tspan x="0 6.96" y="0" font-family="Times" font-size="13.92" style="-inkscape-font-specification:Times-Roman">km</tspan>
      </text></g><g fill="#0f0" clip-path="url(#b)" transform="matrix(.29101 0 0 -.29101 4933.115 277.728)"><text transform="matrix(1 0 0 -1 47.37 20.402)">
        <tspan x="0 3.96 7.9200001 11.88 15.84 17.82 20.900881 24.86088 28.820881 30.80088 34.76088 38.720879 40.700878 44.660881 48.62088 50.822639 54.782639 58.742641 60.944401 64.904404" y="0" font-family="Times" font-size="7.92" style="-inkscape-font-specification:Times-Roman">2008 Jun 12 04:45:24</tspan>
      </text></g><g fill="#0f0" clip-path="url(#c)" transform="matrix(.29101 0 0 -.29101 4933.115 277.728)"><text transform="matrix(1 0 0 -1 134.161 20.88)">
        <tspan x="0 5.0251198 11.21256 15.85488 17.594879 19.91256 21.652559 27.84 30.930241 33.247921 35.1828 37.11768 40.597679 42.337681 48.907921 51.998161 53.933041 57.41304 60.503281 62.43816" y="0" font-family="Times" font-size="6.96" style="-inkscape-font-specification:Times-Roman">OMC - Martin Weinelt</tspan>
      </text></g><g fill="#0f0" clip-path="url(#e)" transform="matrix(.29101 0 0 -.29101 4933.115 277.728)"><text transform="matrix(1 0 0 -1 408.315 40.076)">
        <tspan x="0 6.96" y="0" font-family="Times" font-size="13.92" style="-inkscape-font-specification:Times-Roman">km</tspan>
      </text></g><g fill="#0f0" clip-path="url(#f)" transform="matrix(.28368 0 0 -.28306 112.803 248.191)"><text transform="matrix(1 0 0 -1 47.37 20.402)">
  <tspan x="0 3.96 7.9200001 11.88 15.84 17.82 20.900881 24.86088 28.820881 30.80088 34.76088 38.720879 40.700878 44.660881 48.62088 50.822639 54.782639 58.742641 60.944401 64.904404" y="0" font-family="Times" font-size="7.92" style="-inkscape-font-specification:Times-Roman">2008 Jun 12 03:54:25</tspan>
</text></g><g fill="#0f0" clip-path="url(#g)" transform="matrix(.28368 0 0 -.28306 112.803 248.191)"><text transform="matrix(1 0 0 -1 134.161 20.88)">
  <tspan x="0 5.0251198 11.21256 15.85488 17.594879 19.91256 21.652559 27.84 30.930241 33.247921 35.1828 37.11768 40.597679 42.337681 48.907921 51.998161 53.933041 57.41304 60.503281 62.43816" y="0" font-family="Times" font-size="6.96" style="-inkscape-font-specification:Times-Roman">OMC - Martin Weinelt</tspan>
</text></g><g fill="#0f0" clip-path="url(#h)" transform="matrix(.28368 0 0 -.28306 112.803 248.191)"><text transform="matrix(1 0 0 -1 408.315 40.076)">
  <tspan x="0 6.96" y="0" font-family="Times" font-size="13.92" style="-inkscape-font-specification:Times-Roman">km</tspan>
</text></g><g fill="#0f0" clip-path="url(#f)" transform="matrix(.14954 0 0 -.14921 -32.53 221.952)"><text transform="matrix(1 0 0 -1 47.37 20.402)">
  <tspan x="0 3.96 7.9200001 11.88 15.84 17.82 20.900881 24.86088 28.820881 30.80088 34.76088 38.720879 40.700878 44.660881 48.62088 50.822639 54.782639 58.742641 60.944401 64.904404" y="0" font-family="Times" font-size="7.92" style="-inkscape-font-specification:Times-Roman">2008 Jun 12 04:45:24</tspan>
</text></g><g fill="#0f0" clip-path="url(#g)" transform="matrix(.14954 0 0 -.14921 -32.53 221.952)"><text transform="matrix(1 0 0 -1 134.161 20.88)">
  <tspan x="0 5.0251198 11.21256 15.85488 17.594879 19.91256 21.652559 27.84 30.930241 33.247921 35.1828 37.11768 40.597679 42.337681 48.907921 51.998161 53.933041 57.41304 60.503281 62.43816" y="0" font-family="Times" font-size="6.96" style="-inkscape-font-specification:Times-Roman">OMC - Martin Weinelt</tspan>
</text></g><g fill="#0f0" clip-path="url(#i)" transform="matrix(.14954 0 0 -.14921 -32.53 221.952)"><text transform="matrix(1 0 0 -1 408.315 40.076)">
  <tspan x="0 6.96" y="0" font-family="Times" font-size="13.92" style="-inkscape-font-specification:Times-Roman">km</tspan>
</text></g><g fill="#0f0" clip-path="url(#f)" transform="matrix(.285 0 0 -.28438 2402.956 248.636)"><text transform="matrix(1 0 0 -1 47.37 20.402)">
  <tspan x="0 3.96 7.9200001 11.88 15.84 17.82 20.900881 24.86088 28.820881 30.80088 34.76088 38.720879 40.700878 44.660881 48.62088 50.822639 54.782639 58.742641 60.944401 64.904404" y="0" font-family="Times" font-size="7.92" style="-inkscape-font-specification:Times-Roman">2008 Jun 12 03:54:25</tspan>
</text></g><g fill="#0f0" clip-path="url(#g)" transform="matrix(.285 0 0 -.28438 2402.956 248.636)"><text transform="matrix(1 0 0 -1 134.161 20.88)">
  <tspan x="0 5.0251198 11.21256 15.85488 17.594879 19.91256 21.652559 27.84 30.930241 33.247921 35.1828 37.11768 40.597679 42.337681 48.907921 51.998161 53.933041 57.41304 60.503281 62.43816" y="0" font-family="Times" font-size="6.96" style="-inkscape-font-specification:Times-Roman">OMC - Martin Weinelt</tspan>
</text></g><g fill="#0f0" clip-path="url(#h)" transform="matrix(.285 0 0 -.28438 2402.956 248.636)"><text transform="matrix(1 0 0 -1 408.315 40.076)">
  <tspan x="0 6.96" y="0" font-family="Times" font-size="13.92" style="-inkscape-font-specification:Times-Roman">km</tspan>
</text></g><g fill="#0f0" clip-path="url(#f)" transform="matrix(.15024 0 0 -.1499 2256.945 222.274)"><text transform="matrix(1 0 0 -1 47.37 20.402)">
  <tspan x="0 3.96 7.9200001 11.88 15.84 17.82 20.900881 24.86088 28.820881 30.80088 34.76088 38.720879 40.700878 44.660881 48.62088 50.822639 54.782639 58.742641 60.944401 64.904404" y="0" font-family="Times" font-size="7.92" style="-inkscape-font-specification:Times-Roman">2008 Jun 12 04:45:24</tspan>
</text></g><g fill="#0f0" clip-path="url(#g)" transform="matrix(.15024 0 0 -.1499 2256.945 222.274)"><text transform="matrix(1 0 0 -1 134.161 20.88)">
  <tspan x="0 5.0251198 11.21256 15.85488 17.594879 19.91256 21.652559 27.84 30.930241 33.247921 35.1828 37.11768 40.597679 42.337681 48.907921 51.998161 53.933041 57.41304 60.503281 62.43816" y="0" font-family="Times" font-size="6.96" style="-inkscape-font-specification:Times-Roman">OMC - Martin Weinelt</tspan>
</text></g><g fill="#0f0" clip-path="url(#i)" transform="matrix(.15024 0 0 -.1499 2256.945 222.274)"><text transform="matrix(1 0 0 -1 408.315 40.076)">
  <tspan x="0 6.96" y="0" font-family="Times" font-size="13.92" style="-inkscape-font-specification:Times-Roman">km</tspan>
</text></g><g fill="#0f0" clip-path="url(#j)" transform="matrix(.28368 0 0 -.28306 188.04 -819.294)"><text transform="matrix(1 0 0 -1 47.37 20.402)">
  <tspan x="0 3.96 7.9200001 11.88 15.84 17.82 20.900881 24.86088 28.820881 30.80088 34.76088 38.720879 40.700878 44.660881 48.62088 50.822639 54.782639 58.742641 60.944401 64.904404" y="0" font-family="Times" font-size="7.92" style="-inkscape-font-specification:Times-Roman">2008 Jun 12 03:54:25</tspan>
</text></g><g fill="#0f0" clip-path="url(#k)" transform="matrix(.28368 0 0 -.28306 188.04 -819.294)"><text transform="matrix(1 0 0 -1 134.161 20.88)">
  <tspan x="0 5.0251198 11.21256 15.85488 17.594879 19.91256 21.652559 27.84 30.930241 33.247921 35.1828 37.11768 40.597679 42.337681 48.907921 51.998161 53.933041 57.41304 60.503281 62.43816" y="0" font-family="Times" font-size="6.96" style="-inkscape-font-specification:Times-Roman">OMC - Martin Weinelt</tspan>
</text></g><g fill="#0f0" clip-path="url(#l)" transform="matrix(.28368 0 0 -.28306 188.04 -819.294)"><text transform="matrix(1 0 0 -1 408.315 40.076)">
  <tspan x="0 6.96" y="0" font-family="Times" font-size="13.92" style="-inkscape-font-specification:Times-Roman">km</tspan>
</text></g><g fill="#0f0" clip-path="url(#j)" transform="matrix(.14954 0 0 -.14921 42.706 -845.533)"><text transform="matrix(1 0 0 -1 47.37 20.402)">
  <tspan x="0 3.96 7.9200001 11.88 15.84 17.82 20.900881 24.86088 28.820881 30.80088 34.76088 38.720879 40.700878 44.660881 48.62088 50.822639 54.782639 58.742641 60.944401 64.904404" y="0" font-family="Times" font-size="7.92" style="-inkscape-font-specification:Times-Roman">2008 Jun 12 04:45:24</tspan>
</text></g><g fill="#0f0" clip-path="url(#k)" transform="matrix(.14954 0 0 -.14921 42.706 -845.533)"><text transform="matrix(1 0 0 -1 134.161 20.88)">
  <tspan x="0 5.0251198 11.21256 15.85488 17.594879 19.91256 21.652559 27.84 30.930241 33.247921 35.1828 37.11768 40.597679 42.337681 48.907921 51.998161 53.933041 57.41304 60.503281 62.43816" y="0" font-family="Times" font-size="6.96" style="-inkscape-font-specification:Times-Roman">OMC - Martin Weinelt</tspan>
</text></g><g fill="#0f0" clip-path="url(#m)" transform="matrix(.14954 0 0 -.14921 42.706 -845.533)"><text transform="matrix(1 0 0 -1 408.315 40.076)">
  <tspan x="0 6.96" y="0" font-family="Times" font-size="13.92" style="-inkscape-font-specification:Times-Roman">km</tspan>
</text></g><g fill="#0f0" clip-path="url(#j)" transform="matrix(.285 0 0 -.28438 2478.192 -818.85)"><text transform="matrix(1 0 0 -1 47.37 20.402)">
  <tspan x="0 3.96 7.9200001 11.88 15.84 17.82 20.900881 24.86088 28.820881 30.80088 34.76088 38.720879 40.700878 44.660881 48.62088 50.822639 54.782639 58.742641 60.944401 64.904404" y="0" font-family="Times" font-size="7.92" style="-inkscape-font-specification:Times-Roman">2008 Jun 12 03:54:25</tspan>
</text></g><g fill="#0f0" clip-path="url(#k)" transform="matrix(.285 0 0 -.28438 2478.192 -818.85)"><text transform="matrix(1 0 0 -1 134.161 20.88)">
  <tspan x="0 5.0251198 11.21256 15.85488 17.594879 19.91256 21.652559 27.84 30.930241 33.247921 35.1828 37.11768 40.597679 42.337681 48.907921 51.998161 53.933041 57.41304 60.503281 62.43816" y="0" font-family="Times" font-size="6.96" style="-inkscape-font-specification:Times-Roman">OMC - Martin Weinelt</tspan>
</text></g><g fill="#0f0" clip-path="url(#l)" transform="matrix(.285 0 0 -.28438 2478.192 -818.85)"><text transform="matrix(1 0 0 -1 408.315 40.076)">
  <tspan x="0 6.96" y="0" font-family="Times" font-size="13.92" style="-inkscape-font-specification:Times-Roman">km</tspan>
</text></g><g fill="#0f0" clip-path="url(#j)" transform="matrix(.15024 0 0 -.1499 2332.181 -845.21)"><text transform="matrix(1 0 0 -1 47.37 20.402)">
  <tspan x="0 3.96 7.9200001 11.88 15.84 17.82 20.900881 24.86088 28.820881 30.80088 34.76088 38.720879 40.700878 44.660881 48.62088 50.822639 54.782639 58.742641 60.944401 64.904404" y="0" font-family="Times" font-size="7.92" style="-inkscape-font-specification:Times-Roman">2008 Jun 12 04:45:24</tspan>
</text></g><g fill="#0f0" clip-path="url(#k)" transform="matrix(.15024 0 0 -.1499 2332.181 -845.21)"><text transform="matrix(1 0 0 -1 134.161 20.88)">
  <tspan x="0 5.0251198 11.21256 15.85488 17.594879 19.91256 21.652559 27.84 30.930241 33.247921 35.1828 37.11768 40.597679 42.337681 48.907921 51.998161 53.933041 57.41304 60.503281 62.43816" y="0" font-family="Times" font-size="6.96" style="-inkscape-font-specification:Times-Roman">OMC - Martin Weinelt</tspan>
</text></g><g fill="#0f0" clip-path="url(#m)" transform="matrix(.15024 0 0 -.1499 2332.181 -845.21)"><text transform="matrix(1 0 0 -1 408.315 40.076)">
  <tspan x="0 6.96" y="0" font-family="Times" font-size="13.92" style="-inkscape-font-specification:Times-Roman">km</tspan>
</text></g><path fill="#fff" d="m367.897 199.569-.265.578.11.528.155.264.584-.209-.954.424-.53 1.266-.424.952.215.688-.105.424-.055.21.055.054.315.105.424-.215.265.16-.32.528-.419.055.265.264-.215 1.107.37.423-.635.105h-.05l-.69.055-.264.688.05.842-.9.528-.104-.313-.425.209-.105.264.425.633-.48-.264.32.055-.265-.369-.16.578.105-.578-.9 1.002h.266v.583l.055-.16.05-.054v.055l.11.264.419.055h.055l-.32.369.265.209-.58.16-.16.528-.474-.055.58.952-1.324-.21.104-.318-.37.055.056-.265-.425-.16-.425.37h-.579l.315.792-.53.369h-.05l-.424.055-.055-.264-.635.368-.16.584-.53-.424.056.264-.32-.16-.265.215.105.264.265-.16c-.668.48-.706 1.64-.794.474l.48-1.794-.48-.264.32.05-.105-.21-.9-.32-.584.584v-.368l-.634.16.21-.375-.475-.05-.215.633.215.474-.215.055-.21.104.32.215-.265-.055-.425.528v-.264l-.53.16-.054.209.265-.105-1.27.952.106.424-.265-.16.425.738-1.54.424.216.897.794.584.16 1.32.05.21-.265-.21-.105.05h-.265l-.16.055h-.264v-.104l-.05-.105v-.639l-.055-.104v-.473l-.055-.105v-.11l-.42-.264-.215.16.16.319-.53-.055.69.792-.634-.209-.375-1.376.055.528-.53.633.32.688-.055.48-.104.682.634-.105.53.32.209.528-.21.423.425.21-.585-.265-.16-.952-.579.16.05.897-.9 1.216-1.003-.423.899-.16.634-1.266-.314-.424.105-.842.05-.743-.265-.473.32-1.007-.32-.155-.53-.055-.37 1.057-.474.32-.105.897-.055.368.37.055.32.529-.37.633-.745-.952.216.104-1.435-.897-.21.21.106.638h-.37l-.105.313-.105-.578-.584.21-.585-.16-.21.264-.474-.16.265-.473.314-.055-.16-.05-.634.37.055-.21-1.274.105.055.264-.37-.105-.32.474-.474-.16-.055-.578.634-.055.055-.264-.634-.848.05.424-.9 1.69-.314-.683-.64.155-.37.11-.16.05-.049.318-.16.529-.105-.16-.32-.424-.21.055.21-.104-.314-.48-.265.216.21.578-.425.264-.37-1.057.265-.633.425-.21-.32-.638.265.055-.05-.847 1.324 2.009.42-.16.64-.21.049-.847v-.104l-.58-1.48-.375-.315-.314.21.37-.265-.265-.264.16-.209.21.21-.105-.315-.37.105-.055-.369h-.265l.055-.319.05-.16.265.32.32-.055-.105-.633-.48.055.425-.215-.05-.21-.48.265-.21-.055.425-.314-.85.265.635-.32-.16-.319-.794.374v-.055l-.105-.528-.16.264-.154.21.05-.314v-.055l-.635.16h-.055l.11-.056.21-.154-.265.05.265-.16-.265-.05-.16.314-.05-.418-.64.314-.264-.21.16.37-.265-.32-.37.32.21-.32-.21-.105-.055.215-.154-.215-.055.424-.425-.264.055.369-.425-.424v.215l-.584.05.264.214-.37-.215-.104.215v-.16l-.585.16.215.21-.584-.265.215.215-.32-.11-.055.264-.21-.105.16-.21h-.899l.105.315.53.055-.53.16-.265-.265.16-.16-.32-.264-.32.32-.05-.32-.104.32v-.584l-.055.473-.32-.528-.21.479.105-.264-.21.104v-.264l-.055.21-.05-.474-.214.16-.265.05.055.373-.16-.264.105.21h-.265l.265.368.16-.05-.105.314.265-.05-.16.155-.32-.05.16-.264-.37-.479v.264l-.16-.209-.105.21.21.11-.37-.056-.104.21h.21l-.37.11.634.264-.9-.215-.104.264.32.215-.425-.055.105.264h-.21v-.32l-.264.216-.16.737.264.369.9-.05.104.314.635-.264-.949.903.154.104-.314.21.314-.105-.474.264-.425 1.002-.264-.05-.475.633.315.473.584-.264.21.479 1.01-.479.529-.633.16.16-.11-.32.424.32.265-.16-.16.32.48-.056-.105-.264.475.105.21-.793-.106-.264 1.54-1.106-.056.264.85.05.314.055.585-.16.474-.578v.21l.37-.32v.264l.265-.154.375.473-.265.738-2.278.215-.635.897-.584.424v.528l.264.05-.37.319 2.064.952-.21.264.265.688-.745-.479-.21.215-.529-.793-.794-.374-.425.639.215.264-.64.578-.37-.05.16-.792-.369-.16-.794.369-.794 1.001-.216-.209.585-.264-.474.21-.265-.105v-.05l-.16.154v.055l.16.105-.215-.05-.314-.055.37-.055-.48-.209.054-.528-1.268-.738-.265.21.105-1.058-.745-.528.32-.16-.265-.313.16-.529.58-.374.744.16v-.424l.74-.314-.795-.424-.315.21.42-.05.11.369-.215-.21-.21.265.105-.265-.21-.055v-.055l-1.219.793.16.055-.215.369-.16-.105-.265.848v-.639l-.314.215.105-.369-.265-.264-.16.264-.16-.688-.314-.055-.215.424-.265-.104.32-.529-.74.16-.055.369-.32-.424v.424l-.683-.953-.425.37-.16-.105-.634-.32v-1.001l-.585.688-.265-.584.215-.314-.425-.638-.104.374v-.214l-.265.319.05 1.057-.53.633v.423l-.425.21-.05.104-1.274.639-.579-2.752.16-.474-.53-.583-.374.638-1.214.738-.745.104.105.215-.314.05.033.225-.723.463.32 1.111-.48 1.211.48.375.315 1.265.48.055.154.37.425-.215.215.16.105.054.05-.214.054-.21.32-.264.105.055h.74l.898.738.425-.529.32-.055.314.265.11 1.271 1.374.528.105.898-.58 1.265.21 3.435-.314.903-.585.209.105.264.585-.264.265.16.104-.744.425-.154.265.529-.055.473.215-.105-.215-1.904.265-.21-.37-.687.37-1.321v-.952l.584-.738.58.424-.42.682h.42l-.475 1.64.265.474v.688l-.16-.424.32 1.057v.793l-.745.638-.05.793-.055.737.16.105h-.21l-.054.424.739 1.056h-.21l-.474-.847-.265.11-.215.842.265.104-.105.529.21-.21.11.53.265-.898.264.424-.055-.529.265.154.055.48.26-.314.055.258.16-.528-.16-.578-.265-.11.193.886-.353-1.04.265.154.11-.264.105.264.21-1.106.214.05.105.902.105-.374.16.423v-.688l.69.424.529.952-.53.105.95-.05.64.578.049-1.425-.21-.105 1.004-.214.745-.843-.055.21.32.104.419-.633-.044.193-.061.022.055-.006v.006l.017-.006.457-.05.32-.264.635.21.055.423-.375-.369.16.264-.16.055.744.633-.114.296-.685-.123.309.197-.275.67.247.342 1.347.151-.458-.335-.117-.213-.017-.427-.122-.216.73-.077-.265.264.64-.105 1.693.578-.53.215-.37-.264.106.473-.69.369-.474-.16 1.004 2.273.53.952-.106.738-.37.215-.744-.055-.105-.05-.85-.528-.843-.848-.37-1.057-.794-.528-1.324-.16-.904-.897-.105.32.265.313-.425-.314-.105.21-.954-.953-.475.055-.21.265.42.313-.474.48.16.313-.265-.154v-.32l-.215.16.32.633-.21.105.105.528h-.265l.53.369-.585-.105.53.32.32.952.369.264.32-.32.265.21.53 1.167.633.313.53-.104.314.424.48.104-.584.633-.21.793-1.853 1.425-1.22-.682-.104.842v1.216l.37.952.898-.847-.634.743.37.264.48 2.587-.056.583.53.793.16 1.106-.215.793.375.743.42.682.849 2.488-.265.842.32 1.745 1.108.473.48-.104 2.223.633.53-.154 2.168.264.264-.424 1.964.264.37-.368.69.154.418-.419.795.05.11-.793.265-.16.265.215 1.108-.952-.69-1.057-1.108-.528-.32-.528-.16-.793.265-.473-1.958.946-1.06-.368-.369.055-.53-.48.425-1-.37-.16-.374.743-.315-1.008.21-.424-.74-1.001-.16-1.376-.264-.154.37.05-.05-.37v-.055l.58.265.104-.21.32.424h.37l.055.16.474 1.74.634.423.745.952.74.424 1.378-.105.315 1.107 1.853.792 1.274.48 3.492.153.11.529.475.11.104.633h.69l-.105.264.425-.16-.265.21.53.528.948-.05-.21.314-.954.055 1.43 1.161 1.009-.264.16-.737.474.05-.32.214v.16h.32l-.265.264.265.368-.265.578.634 2.378 1.909 2.857.314.578.265.583.794.424.48-.16.16-.369.74-.16-.265-.104.21-.319.11-.105.474-.104-.105-.743.21-.369.265-.578-.315-1.007.155-.369.584-.055.21-.369.85-.264-.056-.264 1.434-1.002.635-.743 1.004-.528.48-.578-.16-.369.634-.374.16-.369.21.369.264-.369.32.215-.055-.32.16.21.21-.265.215.11.05-.374.264.32.215-.584.105.374.105-.11-.16-.369.585-.16 1.219 1.377.16-.32v.32h.579l.265.264-.425.105.375.264.105-.369.53 1.002-.16 1.007.264-.264-.105.314.16-.21.265.16.105-.264.265.104.16-.319.419-.264-.21-.21.32.105.265-.264-.055-.424.425.48.264-.16.21 1.001.37.639v-.264l.48.528-.056.578h.265l-.265.633.105.374.16-.264-.05.21-.215 1.056.265-.21 1.114.474h.105l.37.952.585.474 1.638-.05.32-.32h.264l-.634-.368v-.793l-.265-.264-1.219-.214-.899.214-.37-.688-.16-.209-.48.21-.049-.425-.055-.16.53-1.21v-.055l-.05-.16-.11-.423h.055l.69-.419v.529l.689-.32h.634l.475.584.264-.32.105.32.16-.215.9-.05-.106.738.37-.16.585-.632c-.103-.047-.177-.14-.265-.21h.474l-.21-.16-.054-.054.16.055h.16l-.105-.055-.105-.05.314-.11h-.265c-2.713-1.026-1.43.416 0 0l.216-.104-.055-.16.424-.05 1.109-1.216v-.738l.16-.11-.634-1.21-.53-.32-.9.055-1.273-.688.055-.688.37-.473-.105-.264.21-.055-.21-.16.53-.21.16-.478.474-.264-.05-.264.53.11.21-.424.264.05-.105.423.265.37.265-.155-.16-.743.104.104.69-.682-.055-.16.425-.214-.05-.21.37-.104-.105-.424.21.21.054-.265h.155l-.265-.473.745.104-.16-.104.32-.424.105.105.16-.37.21.056.473-.584.11-.313h-.214l.37-.424v-.264l.214.05.16-.579h-.264l.474-.368-.105-.215.21-.16-.16-.154.265-.16-.105-.264h.265l-.265-.368.16-.375-.21.11.105-.11-.265-.104.315-.105.055-.055.055-1.057h-.215l.48-.578-.265-.16.105-.318h-.216l.265-.265-.105-.264-.21.374.21-.583h-.16l-.419.105-.53.583.685-1.216-.844-.105.579-.424-.794-.055-.844-.842-.16.05-.475.16-.11-.21.16-.743.055-.314-.16-.055.265-.209-.105-.319.37-.793.32-.104-.11-.424-1.06.528-.21.529-.264.528-.53-.528-.634.32-.215-.48.584-.528.105-.947.16-.902.265-.474.425.21-.055 1.111.32-.32-.105.744.634-1.745.9-.633.16.633.264-.055-.215.32.055.423.265-.264-.055.264.215-.214v-.155l.474-.214.53.424h-.265l-.05.368.265.055-.055-.214.21.374.16-.215.104.897.375.16-.16.16.21.055.105-.639.215.16-.105-.314.21.05-.16-.21.37-.214-.105-.314.264-.16-.21-.792-.48-.528-1.058-.474-.635.105-.16-.369.375-1.64-.424-.584.105-.682-.21-.215.265-.16-.215-.682.744-.214.265-1.371-.585-2.802-.794-2.009-.16-.423-.58-.529-.424-.313-.585-1.167-.794-.154.215-.11-.16-.265-.794.16h-.16l-.21.424.155.16v.737l-.37-.578.105.633-.53-.479-.21.479h-.319l-.265-1.85-.37-1.216-.579-1.585.315-1.216h.265l-.16-.265.424-.792-.264-.369.634-.792v.473h.215l.05-1.53h-.21l-.055.319-.265-.16-1.004-1.376-.16-1.216v-.154l.32.264.16.154.265.055-.055-.104-.055-.16.375.21-.745-1.003v-.319l-.634-.154-.105-.479.16-.209.155.424 1.059.418.264.743.85 1.057.739.952.055.578.69.688 1.003.688 2.913 1.002-.794-1.321-.475-.16v-.737l-.105-.055-.16-.05-.104-.055-.16-.05-.16-.11-.32-1.056-.949-.314v-.528l-.85-.055-.264-.314-.16.473-1.429-1.112-.055-.368.215-.05-.53-.638.475.11-.425-.375-.21-.792.475-.264-.37-.155-1.108-1.216-.794-1.216v-.688l-.376-.16-1.108.374h.21l-.37.21.32.473-.215-.05.055.314-.37-1.32-.265-.155-.375-.215-.579.055-.105-.264h.635l-.265-.583.474-.314.055-.528-.215-.055.215-.105-.215-.264-.154.314-.32-.265h-.32l-.05.265-.055-.529-.21.11v-.214zm-2.802 2.323-.11.528.16.055.529.21-.16-.21zm-34.106 2.064-.16.842-.154-.265-.16.265v-.633l-.53.847-.37-.374.05.528-.21.375-.264.418.264.479.315.578.53.264.054-.21.056.21.739-.683.21.155-.155-.21.314-.264-.37-.055.106-.528-.425.16.48-.314-.37-.11.155-.21.16-.104-.69-.105.64-.16.42-.583-.475.265.32-.314-.425.104.16-.264-.215.105zm35.849 1.001-.05.32.265-.16zm-4.501 3.011-.635.633.53.055.32-.264zm12.659.16v.368l.425.265zm-32.302.104-.794.793.634.055-.265.16h.265l-.105.264-.634-.32-.215.21.424.264-.37-.154v.264l-.16-.32-.264.424-.105.424 1.429-.583.21.055.264.05.11-.37.155-.423-.21.055.37-.424-.794.528.48-.583-.425.11.105-.32.32.056zm.9.529-.21.319.154.104.16.16h-.37l.16.473.795-.05.05-.423-.315-.055.265-.21-.425.21.105-.424.055-.104-.265.16zm18.108.055-.794.423.37.314-.21.055h-.37l.265.529.634.16.16-.32.265-.633-.69-.105.585.05zm-19.008 1.001-.105.215.37-.11zm20.387.055-.424.105.104.528.055.105v-.05l.425-.479zm-20.547.21-.474.319.314.104-.21.21.37-.05.265-.424zm10.486.583-.265.952.37.105.425-.32v-.368zm-5.615.104-.74.37.635-.05zm-24.674.424-.264.369-.32-.16-.055.633-.475-.264.105.529-.314-.633-.055.319-.21-.215.05.374-.21-.16.105.265-.21-.055.37.633.37.638 1.163-.638.37.215.48-.529-.265-.424.21.105.055-.264-.265.055.16-.215-.425-.154v.264h-.32zm25.733.05-.039.253.359-.253h-.265zm-23.035.055-.16.104.215.105.37-.105zm22.61.104v.32l.265-.16zm5.56 0-.474.688.634.265.585-.16-.055-.16-.05-.104-.055-.16-.028-.027-.077-.182h-.055l-.21-.16-.104.265zm-5.174.1-.01.006v.055zm-23.206.06-.37.424.155-.105zm29.285.105.21 1.161.584-.683-.48-.374-.05.32zm-29.075.104-.475.424-.32-.21.105.474-1.059.16h.425l.265.104-.16.265v-.21l-.74.265-.16.209.16-.105.265.688-.37-.055-.264.369.16.055-.48.16-.105.209-.21-.578-.374-.11.16.264-.21.215-.585-.37-.105 1.003.37.319-.474-.055-.105-.529-.85-.264.265.897.32-.104.474 1.48.425.474.16-.105-.11-.528.16.209h.69l.209-.369-.155-.528h-.055l.425-.264.05-.16-.05-.21.16.265.21-.16.16-.633.794-.897v-.743l.21.48v-.37l.215.264.794-.11-.375-.946.954.154-.16-.738-.579.264zm27.326 0 .105.264.265-.05.055-.214zm-28.435.32.105.209.105-.155zm11.065 1.48v.16l.32-.16zm.37.16-.53.154.27.05zm-.26.203-.005.006.32.055zm.95-.154-.425.105.424.11zm43.791.264.425.633-.16-.418zm-21.76.055-.265.21.314.104zm-9.218.314-.794.424-.69-.105-.265.105-1.003.479.055.418-.48.264.215.215-.265-.16-.375.16.425.264-.475.105.58.264.055-.424.21.16-.155-.265.265.21v-.37l.154.216.11-.424.155.104.265-.209.375-.374 1.533-.473zm-3.916 2.273v.215l-.32.05.265.16-.74.423v.314l.425.055-.11.688.904.264-.32-1.112.16-.528.475-.314-.315-.215zm3.971.584-.055.313.265-.05.055-.263zm26.792.897v.209l.424.05zm.424.259.055.032v-.027zm.055.032v.556l.635.529.85.368.634.529 2.278 2.058-.32-.578.265-.319.32.21-.16-.265-1.01-.154-.684-.848.155-.528h.48l-.955-.32-1.059-.368zm-50.57.182-.216.16.11.319.315-.32zm.314.215-.475 1.001.265-.264h.53l.21-.424-.315.16.105-.264zm16.895.209-.424.16.105.368.48-.104zm2.808.104-.11.32.265.319.16-.16v-.055l-.05-.05zm36.538.32-.11.528.375.848zm-56.556.897.05.264.16-.16zm3.018 0-.265.32.739-.265zm1.798.424v.264l.215.104-.055-.264zm-.265.16-.265.368v.055l.64.05zm52.16.104-.105.209.215.479.155.209zm-.155.633.105.479-.32.418-1.164.16 1.06 1.32-.265.529.21.105v.528l.584.424.21-.688-.475.214-.105-.264.265-.104v-.529l.69-.424-.32-.847.16-1.107-.105.314zm-67.146 1.057v.478l.264.05.105-.264zm2.752 1.8-.32.682.48-.05.425-.528zm65.078.473-.154.319.314.105-.37.209.106.424.055.16.314.423.055-.16v-.055l.16.16.105.16.425.952.05 1.794-.315.055-.055-.479-.105.369.53 1.271-1.004 1.53-.32 1.85.21.215.48-.584-.106-.424.155.105.32-1.211.424-.583.21.633.425-.16v-.264l.055-.738h-.265l-.11-.369.16.105-.05-.16.21-.104-.055.264.375-.633-.055-.528.264.209-.16-.529.16-.209-.21-.319.106-.105h.05l.11.21.104.264v-.105l-.055-.842-.314-.16-.215-.583-.58-.578.105-.32-.48-.951zm0 9.302-.314 1.001.314.055h-.21l.21.264.215-.319-.264-.16.105-.264.32.265.21 1.007.264-.11-.105-.419.21.474.16-.584-.32-1.266zm-65.872-9.247-.9 1.106.475.479.634-.528.215-.688zm-.21 3.698-.16.314.37 1.64.899-.583zm67.301 3.485-.314.319-.11.633-.155-.055v.952l.105-.314.314.314.056-.314v-.583l.32-.16v-.633zm-64.339.104-.21.055.16.264zm2.438 1.85.05.319.16.16.055-.37zm-2.383 1.216-.16.264.425.633.635.638.16-.11-.265-.104zm16.096 1.112h1.114l.844.473.11.264-.529.743.265.314-1.01-.424-.369.32.265.368-.635-.369-.16.21.32.264v.847l.684.688-.314.37.05.896.264-.688h.425l.425 1.057-.69.11-.37-.528-.32.578.111.479v-.215l.37.16v.368l-.265-.209-.16.314.32-.05.154.424-.37 1.585-1.373-.319-1.379-1.321.055-1.057.42-.209.264-.583.53.055-.42-.424-.48-1.85.266-.952-.21.21-.055-1.002.634-.688.745.264zm-14.082.368.05.21.32-.155zm62.43 1.112-.16.419.16-.05zm-60.577 1.426.155.633.69.209v-.264l.479-.05zm58.034 4.387-.314.05-.375 1.64.11.368.684.264zm1.644 3.643-.954.738.32 1.43-.265.105h-.11v.314l.32.374.055.105h.265v-.264l.264-.105-.055.633.37-.264.215-.424h.58l-.16-.369.584.105.37-.369.104.21v-.37l-.264.265-.155-.16.21-.314-.21.05-.265.16v.264l-.264-.16-.265.32v.159l-.375.05-.315-.37.37-1.375-.37-.314zm2.433 1.585-.42.474.475.055.055.209.42-.264-.265-.474zm.11.738-.375.264.11.215.42.16-.05-.16.16-.105zm-1.114.264.055.424.154-.369h.32zm1.958.11-.425.154.11.375-.374.368v.264l-.21.16-.32.683.055-.314-.265.104-.584.953-.105.578h.16l.21-.683.48-.215.104-.368.32-.105v.578l.53-.264.104-.264.105.214.16-.369-.265-.16.16-.478.315.215-.05-.265.21-.423-.21-.474-.215.105zm-1.324.154-.16.903-.05.418.106-.418.16-.424zm-.53.32-.16.209-.578.264.21.688.529-.952zm-1.108.054-.745.37.32.049.315.215.16-.16zm2.008 0-.21.155-.055.16-.105.214.16-.055.265-.369zm-.58.155-.214.055-.105.633-.05.16-.215.208.48.11.105-.319-.105-.264zm-8.842.792-1.059.688-.264.633.37.374.369-.11.474-.578.265-.847zm-39.875.688-.794.105h.53zm46.335.264.05.37h-.155l.105.214-.265.473-.794 1.585.424-.633.37-.897.028-.055h.022v-.05l.48-.687zm2.063.898-.16.16v.159zm-1.694 2.168-.53.264-.264.265V256l-.265.265.105-.32h-.425l-.154.37-.055-.21-.475 1.106-.32.32h.16l-.104.264-.905.737-.53 1.112-1.059.897-.154.688-.85.369-.21-.05-.48.683v.374h.266l-.105.264.32-.11-.265.11h.314l-.16.21.376-.32.154.639.954-.688.105.209.794-.688.376-.21v.105l.579-.423v.264l.264-.21.85-.952-.105-.05.105-.054.21-.424-.265.055.37-.528.11-.055.419-.529-.05-.314.315-.583-.105-.055.32-.105.37-.368-.69.16-.105-.056.21-.264-.684-.05.474-.374-.265-.05.69-.632-.265-.055zm-7.044 5.444-.16.209.11.104.155-.264zm-11.754.209-.16.214.16.155zm16.47 1.64-.424.264-.32.21.32-.05zm-.904.264-.9.578.48-.21zm.11.105-.794.583-.32-.055-1.004.473-.425.48-1.01.528-.418.05-1.54.742-.209.265-.425.313.9-.368-.105.16 1.004-.425.69-.423 1.218-.578 2.118-1.272.37-.209zm-6.465.473-.264.215.16-.055.104.055zm2.598.32-.424.159-.055.264.264-.16zm-10.96.104.105.16.105-.16zm3.017 0-1.748.424.265.368 1.059.105.69.374.793-.055.265.584.635.05.264.054.9.529h2.118v-.105l.424-.16.105-.16h.265l.37-1.11-.315-.155-.53.21-.104.208.105-.264-.265.11-.105-.374-.794.264.37-.578h-.32l-.475.369.314-.264-.116-.039.067-.016-.216-.05-.21.05-.054.11.253-.061-.253.11-1.004-.209-.105.264-.69-.214-.21-.05-1.218.05.105-.21zm5.665.104-.37.055-.054.105zm.74.16-.53.264-.154.264.474-.209.105.21.53-.21.104-.214-.37.11zm-2.803.055.05.16.16-.16zm-17.474.264-.216.05.37.11-.314-.055-.056.21-.104.687-.105-.104.265.583.21.473.898-.16.425-.473-.425-.688zm12.758.952-.21.05h.635zm1.06.21-.21.104.264.105.37.055v-.21zm1.218.633-.265.16.475.054zm.9.319.215.16v-.16z"/></svg>