<svg xmlns="http://www.w3.org/2000/svg" viewBox="0 0 400 300"><path fill="#006eb6" d="M0 0h400v300H0z"/><path fill="#fff" d="M199.947 226.988c-27.178 0-51.059-14.081-64.759-35.348h125.756l-16.86-14.314s-7.693 2.561-15.71 2.561H212.45c-3.72 0-4.98-.481-6.657-4.17L163.24 82.31c10.911-5.927 23.416-9.303 36.708-9.303 42.518 0 76.988 34.47 76.988 76.993 0 42.518-34.47 76.988-76.988 76.988m0-166.988c-19.087 0-36.782 5.948-51.345 16.081.005.015 44.932 98.795 45.879 100.875 1.042 2.28 2.572 2.931 2.572 2.931h.005-8.012c-3.725 0-4.985-.481-6.657-4.17l-42.327-92.9a90.758 90.758 0 0 0-8.08 8.187 868050.58 868050.58 0 0 0 39.094 85.952c1.037 2.28 2.572 2.931 2.572 2.931h-8.007c-3.725 0-4.984-.481-6.662-4.17l-34.242-75.157a89.736 89.736 0 0 0-6.503 11.684c12.99 28.565 28.665 63.024 29.437 64.712 1.037 2.28 2.572 2.931 2.572 2.931h-8.012c-3.72 0-4.98-.481-6.657-4.17l-22.484-49.35a89.671 89.671 0 0 0-3.037 19.347c7.641 16.806 13.737 30.204 14.208 31.242 1.037 2.28 2.572 2.931 2.572 2.931h-8.007c-1.815 0-3.042-.12-4.021-.661C126.939 214.584 160.472 240 199.947 240c49.704 0 90-40.296 90-90s-40.296-90-90-90"/></svg>