<svg xmlns="http://www.w3.org/2000/svg" viewBox="0 0 1104 600"><defs><clipPath id="a"><path class="a" d="M585.05 117a157.67 157.67 0 0 0-22.57 1.77c-86.29 13-146.12 93.38-133.61 179.61A156.9 156.9 0 0 0 607.77 431c86.3-13 146.13-93.38 133.61-179.61A156.86 156.86 0 0 0 585.06 117Z"/></clipPath><style>.a{fill:none;stroke:#006a55;stroke-miterlimit:10;stroke-width:3px}.b{fill:#fff}</style></defs><path class="b" d="M0 0h1104v600H0z"/><g style="clip-path:url(#a)"><path class="a" d="M467.22 249.83c14.21-85.52 85.13-137.45 146.83-129.83 60.74 13.46 104.35 86 90.14 171.56s-80.07 148.23-141.76 140.62C501.7 418.7 453 335.34 467.22 249.83ZM515.08 268c10-76.61 58.39-138.85 99.66-148 30 32.84 48.07 82.59 40.66 159.49-6.46 67.29-52.95 143.55-94.22 152.71-37.46-19.86-56.18-87.61-46.1-164.2Z"/><path class="a" d="M426.41 299.72C413.84 213 474.29 132.14 561.46 119s168 46.58 180.61 133.27S694.18 419.89 607 433s-168-46.59-180.59-133.28Z"/></g><path class="a" d="M585.05 117a157.67 157.67 0 0 0-22.57 1.77c-86.29 13-146.12 93.38-133.61 179.61A156.9 156.9 0 0 0 607.77 431c86.3-13 146.13-93.38 133.61-179.61A156.86 156.86 0 0 0 585.06 117Z"/><path class="a" d="m711.42 179.19-.25 1.23c-9.16 43.48-65.5 65.39-117.77 58.5-55.09-7.25-98-60.31-80.17-103.54m222.24 90.37a30 30 0 0 1-.84 4.24c-10.92 42.25-82.2 89.48-155.93 75.55s-120.57-74.42-108.19-130.07c.45-2 3.43-10.71 4.21-12.67m268.08 120c-21.48 50.73-91.93 97.2-179.8 85.44-72.64-9.75-129.64-99.1-120.06-161.35m277.72 148.26s-66.87 75-156.91 59.19c-100.27-17.57-133.46-105-136.43-144.62M665.9 138.24c11.6 35-29.5 50.34-64.82 44.64-34.37-5.55-61.56-34.31-39.88-63.35m.8 312.61s3.79-104 13.56-158.75c16.25-91 39.55-153.12 39.55-153.12"/><path d="m554.27 96.38-9 .08-8.86.55-9 .87-8.86 1.19-8.84 1.82-8.83 2-8.66 2.45-8.49 2.92-8.33 3.07-8.4 3.51-8.14 4-7.82 4.33-7.65 4.64-7.64 5-7.16 5.26-7.15 5.59-6.67 5.88-6.5 6.2-6.27 6.51-5.85 6.81-5.69 7-5.36 7.28-4.88 7.42-4.72 7.74-4.23 7.89-4.07 8-3.6 8.17-3.1 8.5-3 8.48-2.5 8.64-2 8.82-1.83 8.78-1.2 8.91-1 8.91-.55 9.06-.08 9 .23 8.89.72 9 1 8.86 1.5 9 1.81 8.68 2.3 8.82 2.6 8.5 2.92 8.49 3.39 8.32 3.71 8.31 4.18 8 4.48 7.82 4.65 7.64 5.1 7.33 5.42 7.15 5.9 7 6 6.66 6.2 6.35 6.66 6.18 6.82 5.68 7.12 5.52 7.43 5.21 7.59 4.87 7.74 4.56 8 4.07 8 3.75 8.34 3.44 8.49 3.11 8.64 2.79L504 498l8.77 1.83 8.93 1.51 8.91 1.19 8.9.73 9.06.4 8.88-.08 9-.4 9-.86 8.86-1.19 8.84-1.65 8.85-2.18 8.67-2.29 8.5-2.76 8.47-3.24 8.16-3.55 8.15-3.85 8-4.18 7.65-4.64 7.65-5 7.31-5.26 7-5.59 6.83-5.73 6.5-6.2 6.33-6.51 5.86-6.65 5.68-7 5.37-7.28 5-7.43 4.72-7.74 4.39-7.89 3.91-8 3.76-8.19 3.27-8.34 3-8.49 2.47-8.63 2.15-8.77 1.67-8.78 1.36-8.91 1-8.92.55-9 .24-9.06-.24-8.85-.9 8.09-1.21 8.13-1.69 8.13-2 8-2.49 8-2.81 7.68-3.13 7.7-3.62 7.4-3.92 7.39-4.26 7.1-4.59 6.77-4.9 6.63-5.22 6.49-5.55 6.18-5.73 5.85-6.19 5.56-6.17 5.22-6.69 5.11-6.85 4.62-7 4.31-7.19 4-7.53 3.52-7.52 3.37-7.7 2.91-8 2.43-7.88 2.1-8.2 1.82-8 1.31-8.22 1-8.24.54h-8.25l-8.25-.1-8.27-.73-8.28-1.05-8.12-1.37-8-1.87-8-2.16-7.93-2.65-7.88-2.78-7.55-3.45-7.39-3.62-7.25-4.09-6.94-4.42-6.78-4.58-6.6-5.06-6.17-5.4-6.17-5.71-5.71-5.89-5.4-6.2-5.25-6.53-4.79-6.67-4.63-6.87-4.14-7.18-3.85-7.2-3.38-7.53-3.21-7.69-2.74-7.85-2.27-7.89-2-8-1.64-8.21-1.16-8-.85-8.24-.38-8.23-.06-8.41.42-8.27.9-8.11 1.21-8.28 1.53-8.13 2-8 2.34-7.84 2.65-7.84 3.13-7.7 3.45-7.55 3.94-7.24 4.09-7.09 4.58-6.94 4.9-6.79L453 166l5.55-6.17 5.71-5.86 6-5.72 6.36-5.23 6.54-5.1 6.7-4.77 7-4.31 7.35-4 7.39-3.84 7.53-3.22 7.7-3.06 7.87-2.58 8-2.12 8-1.8 8.22-1.48 8.06-1 8.4-.7 8.23-.21 8.26.26 8.27.57 8.11.9 8.13 1.38 8 1.73-8.39-3-8.37-2.67-8.79-2.16-8.77-2-8.92-1.35-8.91-1.2-8.9-.71Zm70.28 13.3h-.06Zm130.88 180.86Z" style="fill:#006a55"/><path d="m575.86 272.46-27.3 6.29-5.01 39.87 24.89 12.86 27.31-6.43 4.98-39.61-24.87-12.98z"/><path class="b" d="m547.34 288.47-.62 4.96 23.95 15.41 27.56-3.52.63-4.96-27.57 3.52-23.95-15.41z"/></svg>