<svg version="1.0" xmlns="http://www.w3.org/2000/svg" viewBox="0 0 500 300"><path fill="#10a5ff" d="M0 0h500v300H0z"/><g fill="#fff"><circle cx="195.3" cy="98.1" r="45.3"/><circle cx="302.2" cy="98.1" r="45.3"/><path d="M244.328 56.722c2.82 38.063-.93 185.91 8.646 185.8 8.064-.098 7.452-147.693 10.354-185.753zM223.011 168.733s-17.348-16.494-40.935-9.31c-19.534 5.949-31.07 20.762-31.564 42.676-.494 21.915 13.848 40.611 39.71 43.253 20.49 2.093 35.59-11.205 35.59-11.205s-8.071-6.183-3.295-15.818c2.524-5.09 14.5-3.954 14.5-3.954.89-6.303 2.255-10.025-.66-27.106 0 0-11.698 2.468-15.405-4.944-2.521-5.04 2.059-13.592 2.059-13.592zM346.976 182.332s-9.352-26.635-40.843-25.243c-23.977 1.047-42.758 20.857-41.978 42.828.993 28.221 19.25 43.048 40.56 44.53 29.285 2.057 41.41-20.421 41.41-20.421s-16.643-4.892-16.45-21.556c.191-16.664 17.3-20.138 17.3-20.138z" stroke="#fff"/></g></svg>