<svg version="1.0" viewBox="0 0 258 171.75" preserveAspectRatio="xMidYMid" id="svg4" xmlns="http://www.w3.org/2000/svg"><g transform="matrix(.01104 0 0 -.01102 0 171.75)" fill="#00abc2" stroke="none" id="g4"><path fill="#00abc2" d="M0 7795V0h23380v15590H0Z" id="path1"/><path fill="#fff" d="M11874 12210c71-131 87-305 61-695-20-310-17-524 10-628 10-38 21-65 25-60 4 4 19 55 34 113 32 123 107 312 240 608 111 247 179 439 212 600 13 63 25 117 28 119 11 11 56-52 76-103 65-176 52-363-54-777-62-239-76-331-75-477 1-167 7-181 43-95 42 98 151 283 293 499 244 370 318 509 407 760 7 19 7 19 27-1 47-47 63-245 33-403-20-106-60-220-141-394-129-281-173-409-192-560-5-39-7-72-6-74 2-2 28 33 59 78 67 95 179 227 371 435 235 256 348 402 445 573 47 82 55 92 68 79 23-24 31-94 21-192-19-196-75-322-284-634-151-226-201-322-239-455-44-149-42-150 102-7 70 71 228 211 352 312 267 219 410 354 519 492 91 116 114 135 138 115s12-144-26-257c-54-162-126-267-350-511-166-182-236-271-291-372-41-76-73-158-66-166 3-2 32 19 65 46 84 70 220 158 466 302 352 206 467 285 618 427 63 60 94 83 113 83 25 0 26-2 20-37-4-21-16-67-28-103-66-205-178-339-493-590-174-138-309-276-374-381-28-46-51-86-51-90s37 14 83 40c119 69 227 116 522 226 391 146 573 232 669 316 47 41 78 59 100 59 28 0 19-69-18-145-85-173-197-269-576-490-102-59-221-133-264-164-73-51-232-199-223-207 2-2 34 9 73 25 99 42 266 84 519 132 370 69 470 98 720 207 50 22 105 43 123 47 32 7 34 6 27-16-15-50-70-134-127-195-108-115-237-186-566-313-224-86-333-137-420-195-72-48-162-134-127-122 96 35 258 52 625 66 278 10 371 23 664 90 98 22 182 40 187 40s9-13 9-28c0-22-15-43-63-89-154-148-336-225-752-318-232-52-354-91-430-137-48-29-115-86-115-98 0-3 37-2 83 2 108 11 281 2 557-28 456-49 600-52 810-18 46 7 86 11 88 9 9-9-45-87-80-116-51-41-186-103-268-123-100-24-245-43-465-61-310-25-454-49-574-97l-55-22 165-27c90-16 247-51 349-79 488-134 590-155 835-174l150-11-43-43c-123-123-312-151-776-116-248 19-543 15-621-9-55-16-55-16 55-47 111-32 263-96 518-219 258-124 378-169 554-206 143-29 255-61 263-74 9-15-133-80-210-96-155-32-277-19-640 71-292 73-411 94-535 94-139 0-145-7-48-50 123-55 227-116 493-290 132-86 285-182 340-213 106-59 289-138 368-157 26-7 50-16 53-21 10-17-47-57-98-69-34-9-94-11-182-7-184 8-279 36-590 176-258 116-375 152-541 167l-80 7 90-60c124-83 186-134 439-361 321-289 474-407 630-484 36-18 66-36 66-40s-12-16-27-25c-35-23-176-22-284 3-153 34-256 86-529 267-240 159-393 231-545 256l-50 8 121-121c66-67 210-231 320-366 215-264 374-431 496-523 79-59 108-90 108-116 0-11-14-13-75-7-222 20-406 110-618 302-54 49-142 129-195 177-117 106-247 195-349 237-41 17-76 30-78 28s19-30 47-63c77-93 184-260 313-490 203-361 299-500 429-622 43-40 66-69 66-84 0-21-3-21-62-17-78 7-158 33-234 79-82 48-283 250-456 459-155 188-258 291-344 346-82 52-88 52-49-7 56-85 120-225 191-422 170-474 205-552 322-715 77-108 122-195 109-209-12-11-148 49-222 98-135 91-233 211-391 481-53 90-121 201-152 248-54 82-224 265-269 288-20 11-19 6 14-74 46-114 83-263 132-535 49-270 70-343 170-603 102-261 98-246 69-246-39 0-128 52-188 110-106 102-174 227-319 581-121 299-192 427-281 514l-41 40 15-43c41-117 54-239 66-662 10-327 13-347 84-642 37-148 42-188 28-188-16 0-98 58-136 96-110 110-162 238-261 637-41 166-85 335-99 376-31 89-88 205-122 246l-25 30 7-130c7-147-4-309-43-618-31-249-39-615-15-720 8-32 11-61 8-64-10-10-92 45-118 79-98 128-144 305-168 648-26 378-43 500-86 630-32 99-44 116-44 67 0-115-44-322-140-657-91-320-130-543-130-742 0-43-4-68-11-68-25 0-68 43-98 99-76 143-92 310-65 661 24 314 24 538-1 649-21 95-20 96-60-48-38-138-88-265-223-561-134-295-201-479-233-638-29-148-25-140-59-107-83 80-110 312-64 560 9 44 44 193 79 330 70 274 90 410 80 519-4 39-9 75-12 79s-33-47-67-115c-75-150-152-276-259-428-131-185-184-268-242-380-56-109-134-293-156-367-14-49-20-52-49-21-32 35-50 112-50 212 1 183 39 315 178 617 101 220 142 329 165 439 19 90 30 170 24 170-3 0-16-19-30-43-53-89-170-228-356-422-234-243-339-371-410-501-30-55-74-128-99-163-40-57-46-62-56-45-6 11-11 71-11 144 0 216 47 333 273 677 139 212 221 368 245 468 20 79 27 135 19 135-4 0-76-71-162-158-113-116-205-198-340-302-203-157-406-351-508-487-63-83-95-113-121-113-11 0-13 14-7 75 10 115 41 220 96 330 59 120 115 195 273 368 211 232 290 343 342 481 14 38 24 70 23 72-2 1-37-24-78-57-102-82-257-183-495-324-319-188-439-272-582-407-60-57-90-78-109-78-25 0-26 2-19 38 12 66 56 186 91 250 77 137 181 243 454 463 142 114 231 199 290 278 45 59 110 169 110 185 0 3-22-8-49-24-84-52-290-146-441-200-362-132-421-155-507-196-51-24-141-77-200-118-111-75-151-98-192-111-23-7-24-6-19 39 3 26 19 75 36 109 71 143 206 264 467 417 350 206 436 267 533 376 83 92 82 96-6 58-110-47-233-78-502-124-273-47-368-72-580-153-259-99-312-118-317-113-11 10 73 149 123 205 104 115 253 197 594 329 270 104 420 184 500 267l35 36-43-15c-113-40-210-50-672-66-291-11-330-17-598-85-101-25-186-44-189-42-2 3 8 29 23 58 53 106 179 198 360 262 40 14 202 58 360 97 159 39 335 89 391 111 94 37 231 114 221 125-3 2-50-1-106-6-123-13-265-3-552 40-278 41-389 46-591 26-92-9-194-16-228-16h-62l18 31c26 44 99 106 163 139 127 64 261 90 625 120 352 29 442 44 574 96 115 45 114 49-7 62-130 13-274 42-437 88-66 18-185 52-265 74-216 60-366 89-547 102l-163 12 43 44c122 124 302 150 784 113 373-29 517-26 644 13 49 15 50 14-66 46-134 37-260 87-485 195-307 147-441 196-735 270-60 16-114 31-118 35-12 10 109 67 183 87 83 21 254 21 375 0 50-9 190-41 313-72 277-68 377-85 516-85h109l-149 74c-89 45-244 136-384 228-410 269-538 335-799 414-11 4-10 9 5 25 38 42 74 53 199 57 204 7 323-24 642-169 98-45 224-96 280-115 99-34 259-64 337-64h40l-90 61c-116 79-236 178-409 335-301 275-446 388-628 491-76 43-95 58-87 69 36 42 244 34 395-17 117-39 200-85 415-226 267-177 388-237 542-266l75-14-112 111c-61 61-162 174-225 250-268 326-320 386-420 487-58 58-140 131-183 164-67 50-107 95-107 121 0 12 140-4 225-26 103-26 243-95 342-168 43-33 141-117 217-188 166-154 248-221 337-274 66-39 169-85 169-74 0 2-22 32-49 64-70 84-160 224-293 455-211 367-293 489-424 626-66 70-96 120-81 136 12 12 145-29 234-72 160-78 258-168 474-437 145-179 222-263 303-327 59-47 174-121 188-121 4 0-12 30-34 68-58 94-117 230-214 495-144 392-178 465-292 632-74 108-119 192-108 202 9 9 131-37 196-75 80-46 218-182 286-282 28-41 93-147 144-235 139-240 196-321 293-418 49-49 90-87 92-85 3 2-11 40-30 84-46 107-77 226-130 504-78 404-101 484-198 695-52 113-78 195-62 195 18 0 119-57 168-96 124-97 212-245 346-582 130-324 198-448 310-557 52-50 58-50 41 1-29 86-41 225-50 554-5 190-14 379-20 420s-34 171-62 287c-28 117-48 216-45 220 13 12 91-32 138-79 27-27 66-79 88-116 76-128 111-232 192-585 28-122 64-260 79-308 25-74 88-213 118-257 6-8 7 54 5 155-5 173 2 243 57 603 30 200 35 371 16 515-19 140-21 255-5 255 6 0 41-30 78-67 57-57 73-81 99-149 47-123 69-252 97-575 13-162 32-334 40-381 16-95 56-225 84-277l18-34 7 98c10 143 39 278 121 565 99 345 116 435 122 650 3 96 10 183 15 194 9 17 13 15 48-19 21-20 50-59 64-85z" id="path2"/><path fill="#00abc2" d="M11495 10680c-505-37-949-183-1350-443-300-195-616-506-827-812-440-639-597-1463-432-2264 173-838 726-1551 1516-1952 407-206 729-286 1204-296 343-8 571 15 864 88 362 90 767 292 1070 535 119 96 292 270 388 392 108 135 119 160 41 87-83-78-204-168-317-238-339-210-716-322-1128-334-344-11-651 44-969 174-466 189-910 566-1171 993-408 669-444 1519-94 2235 225 461 603 838 1075 1070 219 108 410 169 675 215 158 28 485 38 651 21 431-45 828-215 1243-530l109-83-49 63c-69 90-363 382-464 463-357 284-789 485-1215 566-247 47-583 67-820 50z" id="path3"/><path fill="#00abc2" d="M12469 9254c-6-16-44-123-84-239-70-204-147-412-179-487l-16-37-157 75c-249 119-514 245-560 265l-41 18 15-37c8-20 78-170 156-332 189-398 190-400 175-405-597-210-778-276-778-285 0-3 105-41 233-85 194-67 407-145 529-193l27-11-75-158c-100-208-229-482-259-549l-23-53 21 8c22 9 179 82 552 259 105 50 193 88 196 84s43-115 88-247c91-265 192-535 201-535 3 0 34 85 69 188 62 182 174 489 205 564l16 36 287-137c159-76 329-156 380-179 85-37 91-39 84-19-5 12-75 161-156 331-203 429-197 413-177 421 10 4 121 43 247 87 264 92 525 190 525 198 0 3-98 38-218 78-190 65-426 151-537 197l-35 15 39 78c48 95 283 593 304 644l15 37-41-18c-23-10-177-83-342-161-400-190-382-183-390-162-4 9-49 136-100 282-97 276-172 480-180 488-2 3-9-8-16-24z" id="path4"/></g></svg>