<svg id="flag" xmlns="http://www.w3.org/2000/svg" viewBox="0 0 600 400"><defs><style>.cls-3{fill:#ffdc14}</style></defs><path id="background" style="fill:#003c6e" d="M0 0h600v400H0z"/><circle id="circle" cx="300" cy="200" r="150" style="fill:#007846"/><g id="logo_SADC" data-name="logo SADC"><path class="cls-3" d="M349.604 217.535h.008v-78.047c0-10.918 8.816-21.594 19.7-21.594 10.917 0 19.734 10.676 19.734 21.594h18.495a38.23 38.23 0 1 0-76.458 0v81.624a38.192 38.192 0 0 0 16.87 31.71 18.39 18.39 0 0 0 1.651-7.567ZM371.765 242.504v2.751a40.496 40.496 0 0 1-2.558 14.081c.035 0 .07.005.105.005a38.23 38.23 0 0 0 38.229-38.229h-18.495c0 10.053-7.529 19.94-17.281 21.392ZM210.954 219.08h-18.495c0 15.228 9.641 28.39 23.738 34.94l6.106-15.962c-6.839-4.085-11.35-11.052-11.35-18.978ZM213.261 140.797c0-12.64 11.4-22.903 25.452-22.903s25.452 10.263 25.452 22.903h18.494c0-21.836-19.666-39.573-43.946-39.573s-43.946 17.737-43.946 39.573a41.849 41.849 0 0 0 14.81 29.997c14.327 12.502 32.959 17.255 45.426 29.688 5.132 5.27 7.474 11.366 6.854 18.598 0 9.594-6.612 17.777-15.962 21.146l-6.929 18.104c23.08-1.192 41.385-18.259 41.385-39.25a44.11 44.11 0 0 0-4.098-16.67c-11.537-28.964-65.437-32.063-62.992-61.613Z"/><path class="cls-3" d="M278.698 146.72h-18.494l-10.538 27.547a123.087 123.087 0 0 1 14.881 9.492l4.921-12.861 15.74 41.225h-2.99a55.747 55.747 0 0 1 .896 6.957 37.85 37.85 0 0 1-.65 6.716h7.979l27.931 72.98h18.495ZM259.094 218.962l.01-.118a20.775 20.775 0 0 0-.466-6.72h-4.944l2.308-6.033a24.212 24.212 0 0 0-2.95-3.653 60.719 60.719 0 0 0-10.946-8.411l-40.072 104.749h18.494l27.932-72.98h9.293a17.794 17.794 0 0 0 1.341-6.716Z"/><path class="cls-3" d="M287.963 228.559v54.684h21.508l-20.929-54.684h-.579zM352.374 170.898h-.007v74.357a21.313 21.313 0 0 1-21.319 21.319h-3.54l6.323 16.528A37.944 37.944 0 0 0 369 245.255v-79.696a37.92 37.92 0 0 0-15.96-30.923 18.686 18.686 0 0 0-.667 4.852ZM330.096 127.572h-42.133v35.633l18.495 48.344v-67.308h21.862v-4.753a40.904 40.904 0 0 1 1.776-11.916Z"/></g></svg>