<svg xmlns="http://www.w3.org/2000/svg" xmlns:xlink="http://www.w3.org/1999/xlink" version="1.0" viewBox="0 0 499.999 333.333"><defs><g id="b"><path id="a" d="M0 0v1h.5L0 0z" transform="rotate(18 3.157 -.5)"/><use xlink:href="#a" transform="scale(-1 1)" width="810" height="540"/></g><g id="c"><use xlink:href="#b" transform="rotate(72)" width="810" height="540"/><use xlink:href="#b" transform="rotate(144)" width="810" height="540"/></g></defs><path style="fill:#2659e9;fill-opacity:1" d="M0 0h499.999v333.333H0z"/><path clip-rule="evenodd" d="M134.496 164.92c0-64.41 51.507-115.935 115.892-115.935 64.385 0 115.892 51.525 115.892 115.934 0 64.409-51.507 115.935-115.892 115.935-64.385 0-115.892-51.526-115.892-115.935z" style="fill:#9c8200;fill-rule:evenodd;stroke:#000;stroke-width:.20592535;stroke-miterlimit:4;stroke-dasharray:none;stroke-opacity:1"/><g clip-rule="evenodd"><path style="fill-rule:evenodd;stroke:#000;stroke-width:.30000001;stroke-miterlimit:4;stroke-dasharray:none;stroke-opacity:1" d="m205 506.17-2.512-1.885.376-.627.252-.629.125-.627v-.629l-.125-.502-.126-.501-.377-.629-.251-.252-.251-.25-.503-.377-.503-.377-.627-.252-.503-.125h-.502l-.377.125-.377.252-.126.125-.251.125-.251.377-.126.252v.879l.377.628 1.256 2.262.629 1.129.251.504.251.502.251.754.125.377v1.758l-.125.504-.251.375-.251.377-.251.376-.252.377-.502.377-.377.252-.628.252-.629.25-.502.127h-.628l-.754-.127-.628-.25-.628-.252-.628-.377-.628-.502-.754-.628-.879-1.004-.377-.504-.377-.502-.251-.502-.126-.504-.125-.502-.126-.502v-1.006l.126-.502.125-.377.251-.502.126-.377.754-.879 2.386 2.135-.376.502-.126.504-.126.377v.502l.126.377.126.502.376.377.377.502.503.504.502.25.503.252.502.125h.251l.252-.125.251-.125.251-.127.251-.25.126-.252v-.502l-.126-.504-.251-.627-.377-.754-.628-1.006-.628-.879-.502-.879-.251-.754-.252-.629-.251-.626v-1.76l.251-.627.252-.502.376-.629.503-.502.502-.504.503-.25.628-.377.628-.127.754-.125h.628l.754.125.627.127.754.377.754.377.628.627.377.252.377.377 1.005 1.004.754 1.131.251.504.125.502.126.501.126.629v1.004l-.126.504-.126.502-.502 1.131-.628 1.004zM195.578 488.961l-12.185 10.174-2.01-2.512 12.185-10.176 2.01 2.514zM185.905 485.316l-2.009-2.511.502-.502.377-.504.251-.627.126-.252v-.25l.125-.629-.125-.502-.252-.629-.377-.627-.376-.504-.503-.502-.376-.377-.503-.125-.503-.127h-.376l-.503.127-.377.125-.126.125-.251.252-.125.252-.126.125v1.004l.126.377.753 2.514.377 1.131.126.627.126.504.125.878-.125.754-.252.879-.125.377-.252.377-.251.377-.251.377-.377.25-.377.252-.251.252-.251.125-.503.125-.628.127-.628.125h-.251l-.377-.125-.628-.127-.629-.25-.502-.252-.628-.502-.502-.504-.503-.627-.502-.754-.377-.629-.377-.502-.251-.628-.126-.627-.251-.502v-1.508l.125-.502.126-.504.126-.377.251-.502.377-.377.251-.377.377-.377.502-.25 1.759 2.637-.377.377-.251.377-.125.252-.126.25-.126.377v.504l.126.502.251.502.377.502.376.503.377.502.377.252.503.25.502.127.252-.127.377-.125.125-.125.252-.252v-.252l.125-.25v-.503l-.125-.752-.629-1.885-.377-1.006-.251-1.004-.125-.754-.126-.754v-1.131l.126-.629.251-.502.377-.501.377-.502.502-.504.503-.377.627-.377.629-.25.628-.127H182.514l.754.127.628.25.627.377.252.252.377.252.502.627.628.628.629.879.376.629.252.627.502 1.131.126.629v.502l.125.502-.125.629v.502l-.251.502-.126.504-.251.502-.754.879-.377.501-.503.377zM178.243 463.207l-11.683 6.156 2.261 4.145-2.387 1.258-5.904-11.182 2.387-1.256 2.135 4.147 11.683-6.157 1.508 2.889zM172.715 451.525l-14.823 5.653-4.146-10.93 2.513-1.004 3.014 7.914 3.267-1.256-2.89-7.412 2.513-.879 2.889 7.41 4.02-1.632-3.14-8.164 2.512-1.006 4.271 11.306zM166.937 435.445l-15.452 3.266-1.005-4.773 9.924-5.026-11.18-.502-1.005-4.648 15.577-3.266.628 2.889-12.185 2.513 12.813.502.628 3.016-11.557 5.652 12.186-2.638.628 3.015zM161.661 400.145l.251 3.393-3.392 1.633.502 6.406 3.769 1.006.251 3.393-16.331-4.775-.251-3.391 15.201-7.665zm-5.779 6.408-5.653 2.637 6.03 1.635-.377-4.272z" transform="matrix(.68642 0 0 .68642 39.827 -106.86)"/></g><g clip-rule="evenodd"><path d="m146.46 383.814.754-5.778.251-1.759.376-1.256.377-.628.126-.251.251-.377.502-.502.502-.376.628-.377.628-.377.754-.251.753-.251.879-.125h1.884l1.005.125 1.005.125.753.125.879.251.628.377.753.377.754.502.628.502.502.628.251.502.377.502.125.628.251.753v2.01l-.126.879-.628 5.904-15.822-1.882zm3.141-2.889 10.427 1.256.251-2.387.125-1.131v-.753l-.125-.377-.126-.377-.251-.628-.251-.251-.377-.251-.879-.502-.502-.251-.628-.126-.754-.125-.879-.125-.879-.125H153.371l-.628.125h-.502l-.377.251-.377.126-.376.251-.251.251-.251.377-.251.377-.125.376-.126.377-.125.628-.251 1.633-.13 1.381zM164.927 366.981l-15.326-3.894 2.763-11.306 2.638.628-2.135 8.291 3.517.754 1.885-7.663 2.638.628-2.01 7.789 4.145 1.004 2.136-8.542 2.638.628-2.889 11.683zM173.218 340.475l-14.196-6.658 1.382-3.015 11.809 5.528 3.391-7.161 2.387 1.131-4.773 10.175z" style="fill-rule:evenodd;stroke:#000;stroke-width:.30000001;stroke-miterlimit:4;stroke-dasharray:none;stroke-opacity:1" transform="matrix(.68642 0 0 .68642 39.827 -106.86)"/></g><path clip-rule="evenodd" d="m188.167 313.592-1.884 2.89-3.769-.628-3.392 5.276 2.387 3.141-1.884 2.889-10.175-13.693 1.884-2.889 16.833 3.014zm-8.542 1.633-6.156-1.256 3.895 5.025 2.261-3.769zM197.588 302.035l-11.808-10.553 2.136-2.386 11.808 10.552-2.136 2.387zM204.246 294.875l-10.803-11.558 2.261-2.135 12.06 3.266-7.286-7.789 2.135-2.01 10.804 11.683-2.262 2.136-11.808-3.266 7.035 7.662-2.136 2.011zM221.205 280.553l-7.537-10.803-3.895 2.638-1.507-2.136 10.301-7.286 1.508 2.262-3.769 2.638 7.537 10.803-2.638 1.884zM231.883 273.267l-7.412-13.944 10.301-5.527 1.257 2.387-7.538 4.02 1.759 3.015 6.909-3.643 1.257 2.386-6.91 3.643 2.01 3.895 7.789-4.271 1.256 2.386-10.678 5.653zM252.485 257.188l-1.005-2.513 6.407-2.512 2.386 5.904-.376.628-.503.754-.628.628-.628.628-.754.628-.879.628-.88.503-.879.377-1.13.377-1.131.251h-1.131l-1.004-.126-1.005-.125-.503-.252-.503-.125-.376-.252-.503-.377-.377-.251-.376-.377-.754-.753-.628-.879-.503-1.006-.502-1.005-.377-1.13-.126-.502-.126-.629-.125-1.13.125-1.005.126-.628.126-.503.377-1.005.251-.502.251-.377.251-.503.377-.377.628-.628.754-.502.879-.503 1.005-.502 1.382-.377.629-.126.502-.125h1.758l.503.125.503.252.377.125.502.252.377.251.376.377.377.377.377.376.377.503-2.763 1.633-.503-.377-.377-.377-.502-.251-.503-.251-.628-.126h-.502l-.628.126-.629.251-.879.377-.377.251-.377.251-.377.377-.251.377-.251.377-.126.377-.125.377-.126.502v1.508l.126.628.376 1.13.503 1.256.377.503.251.377.377.502.377.377.377.252.377.251.502.125.377.252h.502l.377.125h.503l.377-.125 1.005-.252.879-.502.88-.628.627-.754.377-.377.251-.377-.753-1.884-3.392 1.382z" style="fill-rule:evenodd;stroke:#000;stroke-width:.30000001;stroke-miterlimit:4;stroke-dasharray:none;stroke-opacity:1" transform="matrix(.68642 0 0 .68642 39.827 -106.86)"/><path clip-rule="evenodd" d="m222.88 70.628-2.587-10.52 4.484-1.121.776-.259.69-.086h1.034l.432.086.344.086.431.259.173.086.085.172.345.344.259.345.172.431.172.431.086.604v.517l-.086.259v.259l-.258.517-.26.431-.171.173-.26.172-.517.431-.259.086-.344.173.69.259.69.344.258.259.431.259.949.862 1.81 1.81-2.586.604-2.07-1.897-.949-.862-.603-.432-.344-.172-.432-.086h-.431l-.69.086-.43.172 1.12 4.398-2.154.52zm.691-6.64 1.552-.345 1.207-.345.69-.258.259-.258.086-.173.086-.172.086-.431v-.431l-.086-.259-.172-.259-.086-.172-.172-.087-.172-.172h-.26l-.258-.086h-.259l-1.552.345-1.638.431.689 2.672zM244.955 67.092l-2.328.259-1.208-2.414-4.311.344-.69 2.588-2.328.172 3.276-11.21 2.328-.172 5.26 10.433zm-4.397-3.966-1.811-3.88-1.121 4.139 2.932-.259z" style="fill-rule:evenodd;stroke:#000;stroke-width:.20592535;stroke-miterlimit:4;stroke-dasharray:none;stroke-opacity:1"/><path transform="matrix(.68642 0 0 .68642 39.827 -106.86)" clip-rule="evenodd" style="fill-rule:evenodd;stroke:#000;stroke-width:.30000001;stroke-miterlimit:4;stroke-dasharray:none;stroke-opacity:1" d="m313.914 247.766 3.015 1.131-.251.628-.251.502-.251.628-.252.503-.754.754-.376.377-.377.377-.88.502-.502.251-.503.126-.628.125-.503.126h-1.255l-.754-.126-.754-.125-.628-.126-.754-.251-.502-.377-.629-.377-.25-.251-.252-.251-.628-.503-.377-.502-.251-.377-.126-.251-.377-.754-.251-.628-.126-.377-.125-.503-.126-.753V244.5l.126-.879.251-.88.251-.754.252-.753.377-.629.502-.627.503-.628.502-.503.628-.377.628-.377.629-.251.753-.251.754-.126.754-.126h.753l.754.126.628.126.628.125.628.252.628.251.503.251.502.377.377.377.503.628.502.753.252.754.377.88-3.267.628-.126-.503-.251-.628-.377-.377-.377-.377-.377-.377-.502-.251-.628-.125-.628-.126h-.377l-.376.126h-.503l-.377.125-.251.251-.377.126-.377.251-.251.252-.503.753-.251.503-.126.377-.251 1.131-.125 1.381V246.761l.251 1.131.125.502.126.503.503.753.251.377.251.252.377.251.251.125.377.126.377.126.879.125h.628l.502-.125.503-.252.502-.376.503-.377.377-.629.377-.627.251-.88zM322.582 254.424l2.262-15.703 3.139.503-2.26 15.703-3.141-.503z"/><path clip-rule="evenodd" d="m268.582 63.384.259-.775.259-.69.345-.604.345-.517.258-.345.346-.258.344-.345.431-.259.345-.172.432-.173.345-.172.43-.086.604-.086.518.086h.603l.69.173.518.172.517.172.518.259.43.259.432.344.345.345.345.431.258.431.26.431.172.518.086.43.087.604v1.121l-.087.603-.172.604-.173.69-.173.517-.258.517-.258.518-.346.43-.345.345-.345.345-.43.344-.432.26-.517.172-.431.172-.518.086h-1.036l-.603-.086-.604-.086-.518-.172-.516-.173-.518-.258-.431-.26-.432-.344-.344-.344-.346-.431-.259-.431-.258-.431-.173-.518-.085-.431-.087-.603v-1.121l.087-.517.086-.69zm2.242.518-.087.43-.086.432v1.121l.086.344.087.258.172.346.346.517.172.172.259.259.258.172.26.086.603.259h.258l.345.085h.259l.345-.085h.259l.258-.173.345-.086.259-.172.259-.173.172-.259.432-.516.344-.777.173-.344.086-.517.087-.431.085-.431v-1.121l-.086-.258-.086-.345-.086-.259-.345-.517-.172-.258-.26-.173-.258-.172-.259-.086-.604-.259-.344-.085h-.949l-.259.085-.258.086-.346.173-.258.085-.173.26-.259.171-.43.604-.345.69-.087.43-.172.432z" style="fill-rule:evenodd;stroke:#000;stroke-width:.20592535;stroke-miterlimit:4;stroke-dasharray:none;stroke-opacity:1"/><path transform="matrix(.68642 0 0 .68642 39.827 -106.86)" clip-rule="evenodd" style="fill-rule:evenodd;stroke:#000;stroke-width:.30000001;stroke-miterlimit:4;stroke-dasharray:none;stroke-opacity:1" d="m351.476 261.082 5.778-14.823 2.889 1.13 2.261 12.311 3.769-9.924 2.764 1.005-5.654 14.823-3.014-1.13-2.261-12.06-3.644 9.673-2.888-1.005z"/><path clip-rule="evenodd" d="M158.295 164.962c0-51.21 40.95-92.179 92.135-92.179 51.187 0 92.137 40.97 92.137 92.18 0 51.21-40.95 92.178-92.137 92.178-51.186 0-92.135-40.968-92.135-92.179z" style="fill:#4f9700;fill-rule:evenodd;stroke:#000;stroke-width:.20592535;stroke-miterlimit:4;stroke-dasharray:none;stroke-opacity:1"/><path clip-rule="evenodd" d="M214.603 165.608c0-19.568 15.636-35.224 35.182-35.224 19.545 0 35.18 15.656 35.18 35.224 0 19.57-15.635 35.224-35.18 35.224-19.546.001-35.182-15.654-35.182-35.224z" style="fill:#fff;fill-rule:evenodd;stroke:#000;stroke-width:.20592535;stroke-miterlimit:4;stroke-dasharray:none;stroke-opacity:1"/><path transform="matrix(.68642 0 0 .68642 39.827 -106.86)" style="fill:#003c87;stroke:#9c8200;stroke-width:.30000001;stroke-miterlimit:4;stroke-dasharray:none;stroke-opacity:1" d="m399.965 453.408 2.639 3.268 2.511 1.885-.376.752-.503 2.386.251.377 1.382.881.754 1.758v1.76l.628.25.754.754v.753l-1.633 1.383-2.764 3.516-1.004.881-1.382-1.131-1.005.25-.126 2.137-2.136 1.507v1.381h-.502l-2.011-1.381-2.763-3.267-1.005-1.758-.251-3.016.126-2.259.502-1.383 2.638-2.262 1.13-.125-.125-.754-1.381-1.381-1.885-.127-2.387 1.006-2.638-3.392-5.025-2.512-3.769-2.639-.754-.25H376.6l-2.89 1.004-1.13 1.131-2.639 3.895-2.512 2.511-2.261 1.383h-.88l-2.135.754-2.386 1.506-.629 1.508v1.256l.377.753 2.386 2.137 1.131 1.381 1.382 1.006.377 1.758-1.885 1.759-4.521 2.764-1.508.125-3.392-.252-.377-.627-.754-2.763-.125-2.639-.753-2.387-1.885.629-1.131 1.758h-1.633l-2.136-2.512-1.381-2.01-1.131-2.386-1.256-1.131-.754-.504-2.638-.125-2.763-1.256-1.759-.502-5.026-.629-2.637-.125-.754.879-.754 1.758-.377.127-2.261-3.518-1.005-3.015-1.256-1.508-1.005-.752-.628-.127-1.005.629 1.382 2.889-.628.376-2.387-.628-2.01-1.129-.377-.629-.503-7.285-3.265-2.764-7.286-3.518h-.629l-2.135-2.261-.754-1.76-1.759-2.764-2.01-1.758-1.507-.377-1.885.629.629 1.004 2.135 1.006.251 1.256-1.256 2.889h-.377l-1.256-.754-1.507-1.381-2.764-1.508h-1.382l-1.759-1.383-1.256-1.633-.879-2.009-.754-3.141.628-1.256.754-1.004.251-3.14-1.131-1.635v-.627l.754-1.508.503-.125-.377-1.006-.754-1.633-4.773-4.019-1.508-.754-1.382-1.256-2.386-2.387-3.769-4.9-5.904-5.652-1.006-1.508-4.019-4.145-.377-.754.377-1.382.628-.125 1.884.125v-.628l-2.01-2.01.126-1.13-.628-1.257-1.759-.754-1.759.629-1.507 1.382-4.648 1.758-7.538-.377-4.773-1.507-3.643-2.136-2.638-.754-4.02-.377-3.392-1.632-2.136-1.885-2.135-1.256-4.271-.879-2.764-.377-5.401-.126-3.016-.377-2.386-.879-2.513-1.633-1.759-.879-3.642-2.764-.377-.628-2.01-1.256-.377-.503-1.256-.879-.754-1.131.628-.251.503-4.146.879-.753.126-.754-.629-2.01.503-.126.628-1.381 1.884-2.764.126-.754 6.783-9.924 7.914-.251 6.282.125.377.252.251-.377.377-3.895-.88-1.382-2.386-2.135-1.005-2.387-4.397-2.889-6.784-6.658.377.126 8.793.251.252-7.286 26.129.376.251-.628.503-.251h.126l.251.126.251.377.628.125.251.251.126.126.377.126.502.502.126-.125-.126-.377.126-.377.377-.251.377-.377v-.252l.251-.251v-.251l.628-.377v-.628l.377-.754-.126-.377.629-.376.251-.126.251-.377.125-.754.126-.251.377-.251.126-.377.125-.628.251-.502.377-.503.252-.126.251.126.502-.251.503.125.879-.125.126.251-.126-.251.126.377-.126.251-.251.251-.251.126-.251.251-.252.126-.125.251v.126l.754-.126h.125l-.377.628-.125.377h.125l.377-.503.502-.251.754-.251v.251l.251-.125v.125l.252.126 1.005-.503.125-.125v.377l-.502.376v.251l.377-.376h.251v.502l.126.251v.503l.125.377-.125.628v.628l-.252.628-.125.377-.252.879-.125.251-.503.629-.251.502v1.382l-.251 1.13-.377.754-.126.251-.126.126v.628l.126.252.126.125.377.126.251.377h.377l.125.125.126.252-.377.125-.377-.125-.125.125-.126.126-.503 2.135-.125 1.257v.753l.125.377v.377l.126.251.126.377.502.126.126.251v.628l.251.377v.126l-.125.251-.252.125-.251.126-.251.503v.377l.377.753-.377.251-.252.503v.125l.126.503-.126.377.126.628-.126.251-.376.252v.502l-.126.126v.628l-.125.251-.126.125.126-.502v-.377l.125-.628.126-.251.251-.377-.628.628v.377l-.251.251.251.126-.377.126.252.125-.126.377v.251l-.377.377v.377l-.251.125-.126.126-.126.251.126.126h-.377l-.251.879-.251.126-.252.377v.377l-.377.125-.125.252-.126-.252v-.251l-.125.377h-.126l-.377-.377h-.251v.377h-.377l-.377.251-.251.126-.251.251v.628l-.126.503-.502.251-.126.251-.126.251-.502.377v.503l-.251.125-.252.126-.377.126-.125.251v.503l.125.25.126.126.126.377-.377.126-.377-.126h-.628l-.126-.126h-.502l-.251.126-.252-.126-.251.252-.251-.126h-.251l-.377.251 1.382.754 3.14.126.88 1.507 2.009 1.256h.628l2.011-1.256 1.632.252.377 1.004h.252l.376.251v.252l.503.125 3.266-.125 2.764-1.131 2.261-.376 4.397.251 4.271.879 6.155.125 5.276-1.13 3.141-.125 1.507-.377 1.382-.754 2.764-.377 2.01.628.879.628 3.518.126 2.261-.754h2.638l1.256.251 3.141 1.633 3.517.251 3.392.629 2.638 1.382 3.015 3.014 6.281 3.015 1.382 1.131 1.381 2.136v1.004l-.125 5.905-.628 5.15-3.769 10.301-.125 9.171-1.759 10.301-.628 6.658-.628 2.512-1.382 2.512.125 3.14 2.01 3.393.252 1.381v.629h.251l.628 2.134.503.881 1.759 4.145 2.135 2.889 5.025 5.152 3.768 2.26 1.382 1.382 1.005 1.256 2.387.879.377.377.503 2.764 1.633 1.006v1.633l.628 1.507 6.407.125.879.252 4.773 2.26 2.262.252h1.382l1.256-.377 2.009-1.885 1.131-.627 4.272-.629 5.15-2.763h.879l1.257.377.125 2.511.628.127 1.759-1.005.502-4.272 1.633-2.01.628-.377 1.634-.377 5.15.377 2.638 1.383 3.392 1.004 3.768.377 3.141.754 2.764 1.256 4.397 4.021 1.13.752z"/><path transform="matrix(.68642 0 0 .68642 39.827 -106.86)" style="fill:#9c8200;stroke:#000;stroke-width:.30000001;stroke-miterlimit:4;stroke-dasharray:none;stroke-opacity:1" d="m324.592 465.971-1.507-3.014-.377.125 1.507 3.016.377-.127z"/><path transform="matrix(.68642 0 0 .68642 39.827 -106.86)" style="fill:#9c8200;stroke:#000;stroke-width:.30000001;stroke-miterlimit:4;stroke-dasharray:none;stroke-opacity:1" d="m325.346 465.092-.251.629-.503.25-1.507-3.014-.88.879 3.141 1.256z"/><path transform="matrix(.68642 0 0 .68642 39.827 -106.86)" style="fill:#9c8200;stroke:#000;stroke-width:.30000001;stroke-miterlimit:4;stroke-dasharray:none;stroke-opacity:1" d="m324.215 466.098-1.382.627-.753-1.131 2.764-1.883-2.136-.629 1.507 3.016z"/><path transform="matrix(.68642 0 0 .68642 39.827 -106.86)" clip-rule="evenodd" style="fill-rule:evenodd;stroke:#000;stroke-width:.30000001;stroke-miterlimit:4;stroke-dasharray:none;stroke-opacity:1" d="m259.143 544.484 4.648.754v1.131l.126 1.006.125.377.251.502.377.754.252.377.376.25.252.252.377.252.879.502 1.005.252 1.13.25H270.323l.377-.125.754-.252.628-.377.502-.377.252-.25.125-.252.126-.377.126-.252v-1.256l-.126-.25-.251-.377-.377-.377-.377-.377-.502-.377-1.257-.754-2.261-1.131-1.633-1.003-1.256-.881-1.005-.879-.502-.502-.252-.377-.377-.629-.376-.627-.126-.629-.251-.754v-1.256l.125-1.382.126-.377.126-.502.502-.754.503-.754.627-.754.377-.25.377-.252.377-.25.377-.252 1.005-.377.377-.125.628-.127 1.005-.125 1.13.125h.629l.628.127 1.381.25 1.005.252 1.006.377.879.377.754.377.753.502.628.502.503.629.502.502.377.629.377.753.251.627.126.754.126.754v.754l-.126.754-.126.754-4.773-1.006.125-.879-.125-.377v-.377l-.251-.627-.377-.629-.126-.252-.251-.25-.628-.377-.754-.376-1.005-.252-.879-.25h-.88l-.879.125-.754.125-.376.252-.252.25-.251.376-.126.377-.125.504v.377l.125.377.252.375.502.504.879.627 1.131.754 1.507.754 1.382.879 1.382.754 1.005.629.88.754.627.626.503.754.502.754.252.879.251.881v1.883l-.126.629-.125.502-.252 1.006-.502.878-.503.754-.376.502-.377.377-.377.252-.503.377-.879.502-.503.252-.502.125-1.005.252-1.256.125h-1.256l-1.382-.252-1.382-.25-1.131-.377-1.005-.252-.879-.502-.754-.377-.753-.502-.754-.504-.503-.627-.502-.628-.503-.627-.376-.754-.252-.754-.125-.879-.126-.754-.125-1.006.125-1.885zM287.031 557.926l2.136-23.867 4.899.377-2.136 23.994-4.899-.504zM318.563 549.762l4.647 1.256-.251 1.003-.251.881-.377.879-.377.754-.503.754-.502.627-.503.504-.628.627-.628.502-.627.377-.754.377-.754.252-.754.252-.879.125-.88.125-1.005.127h-1.131l-1.13-.127-1.13-.25-1.005-.252-.88-.502-1.005-.504-.879-.627-.377-.377-.377-.377-.754-.879-.753-.881-.503-1.004-.502-1.006-.377-1.128-.252-1.258-.125-.627-.126-.629v-4.272l.251-1.255.252-1.256.502-1.131.377-1.004.628-1.006.754-.879.754-.879.879-.629.88-.629 1.005-.502 1.005-.376.502-.252.628-.125.502-.125h.628l1.257-.125h1.005l1.005.125 1.005.125 1.005.252.879.376.754.377.879.502.628.629.879.752.629 1.006.628 1.256.502 1.256-4.773 1.383-.251-.879-.377-.754-.251-.377-.377-.377-.252-.252-.376-.25-.629-.504-.879-.25-.377-.127-.503-.125h-.879l-.628.125h-.628l-.629.252-.502.252-.502.25-.502.377-.503.377-.377.502-.377.504-.376.627-.252.629-.125.754-.252.753v.879l-.125 1.006v1.004l.125 1.131.126 1.004.126 1.006.251.754.251.754.251.753.377.502.377.629.503.377.377.377.501.375.628.252.503.125.628.127.628.125h.629l.879-.125.879-.252.754-.377.377-.377.377-.25.251-.377.377-.377.252-.377.251-.504.377-1.003.377-1.256z"/><path clip-rule="evenodd" d="m283.931 271.542-3.536.863-2.241-3.277-6.468 1.552-.431 3.966-3.363.863 2.156-17.504 3.449-.864 10.434 14.401zm-7.502-4.916-3.708-5.345-.69 6.467 4.398-1.122z" style="fill-rule:evenodd;stroke:#000;stroke-width:.20592535;stroke-miterlimit:4;stroke-dasharray:none;stroke-opacity:1"/><path clip-rule="evenodd" d="m112.163 182.38-.431-5.69-.087-.431v-.432l.087-.345.085-.431.086-.345.086-.259.172-.344.173-.26.258-.258.172-.173.603-.344.604-.26h.43l.345-.085h1.207l.345.086.259.173.345.086.258.173.26.257.171.087.087.172.258.259.172.345.173.345.172.432.086.344.086 1.036.173 1.81 4.139-.345.258 3.45-11.032.947zm4.483-3.88-.086-.776-.085-.517-.087-.345-.172-.259-.172-.258-.173-.173-.258-.086-.173-.086h-.258l-.259.086-.258.086-.173.087-.172.171-.086.088-.086.171-.086.259v.862l.086.95 2.498-.26zM120.527 162.03l-.087 3.88 1.81.605-.085 3.448-10.951-4.31.086-3.709 11.124-3.966-.087 3.535-1.81.518zm-2.415.69-3.966 1.121 3.88 1.294.086-2.414z" style="fill:#9c8200;fill-rule:evenodd;stroke:#000;stroke-width:.20592535;stroke-miterlimit:4;stroke-dasharray:none;stroke-opacity:1"/><path transform="matrix(.68642 0 0 .68642 39.827 -106.86)" clip-rule="evenodd" style="fill:#9c8200;fill-rule:evenodd;stroke:#000;stroke-width:.30000001;stroke-miterlimit:4;stroke-dasharray:none;stroke-opacity:1" d="m104.628 379.292 1.759-13.944 3.14.377 8.291 10.175 1.131-9.296 3.392.377-1.884 15.201-3.267-.503-8.165-9.924-1.005 7.914-3.392-.377z"/><path clip-rule="evenodd" d="m181.06 44.587 4.398-2.415.69-.259.603-.258.517-.172.517-.086h.518l.517.086.43.085.432.173.517.172.345.345.431.258.345.346.69.862.258.43.345.518.344.69.26.69.171.69.086.259v.258l.086.517-.086.518-.086.517-.086.43-.172.432-.26.431-.258.345-.259.258-.862.69-.776.517-4.484 2.415-5.171-9.742zm4.139.603 2.846 5.347.69-.432.517-.258.345-.172.258-.259.173-.259.086-.172.086-.259.086-.258v-.345l-.086-.345-.172-.43-.173-.518-.258-.518-.431-.69-.173-.258-.258-.26-.345-.43-.259-.086-.172-.086-.259-.086h-.172l-.259-.086-.258.086-.518.086-.517.259-.777.429z" style="fill:#9c8200;fill-rule:evenodd;stroke:#000;stroke-width:.20592535;stroke-miterlimit:4;stroke-dasharray:none;stroke-opacity:1"/><path transform="matrix(.68642 0 0 .68642 39.827 -106.86)" clip-rule="evenodd" style="fill:#9c8200;fill-rule:evenodd;stroke:#000;stroke-width:.30000001;stroke-miterlimit:4;stroke-dasharray:none;stroke-opacity:1" d="m225.728 210.582 12.436-4.899 1.256 3.14-7.788 3.141 1.005 2.387 7.16-2.89 1.257 3.015-7.161 2.89 1.13 3.014 8.04-3.266 1.257 3.392-12.563 5.025-6.029-14.949zM248.088 213.597l4.397-1.508.502 1.005.252.377.377.252.502.251.503.126.628.125.376-.125h.377l.377-.252.503-.125.251-.252.251-.377.252-.251v-.377l.125-.251-.125-.377-.126-.251v-.126l-.126-.125-.251-.252-.251-.125-.503-.126-.502-.125h-3.266l-1.382-.126-1.131-.251-1.005-.377-.377-.126-.377-.251-.628-.628-.251-.377-.126-.377-.251-.377-.125-.502-.126-.503v-.628l.126-.628.125-.628.251-.628.377-.503.252-.377.125-.251.377-.251.251-.251.629-.502.879-.377 1.005-.377 1.13-.377 1.382-.251.754-.126h1.759l.502.126.503.125.377.252.502.251.377.251.377.377.628.879.502 1.131-4.397 1.382-.25-.377-.377-.377-.126-.251-.126-.126-.376-.126-.377-.125-.377-.126h-.503l-.377.126-.502.125-.252.126-.251.251-.126.126-.125.125-.126.252v.251l-.125.251.125.252v.125l.126.126.125.125.252.126.251.126h5.528l.879.251.628.125.754.251.502.377.503.377.377.503.376.502.252.503.251.628.126.754V212.215l-.252.754-.251.628-.377.754-.502.628-.629.502-.753.503-.754.377-1.005.376-1.005.377-1.005.252-.879.125-.879.126h-1.508l-.628-.126-.252-.125h-.251l-.502-.252-1.005-.628-.377-.377-.377-.502-.628-.879-.251-.503-.126-.628z"/><path clip-rule="evenodd" d="m231.072 36.998-3.794.604-.258 1.897-3.449.517 2.328-11.555 3.708-.603 5.864 10.261-3.535.604-.864-1.725zm-1.12-2.242-1.812-3.793-.517 4.139 2.328-.346zM238.92 37.775l-.432-11.038 5.691-.258h.776l.69.086h.517l.517.086.345.172.344.259.345.258.345.345.172.345.172.43.172.432v.948l-.085.431-.087.431-.172.345-.172.345-.26.258-.257.26-.346.258-.516.258-.604.172.518.173.344.258.258.173.346.344.258.431.172.26 1.81 3.103-3.88.172-1.897-3.276-.344-.603-.345-.259-.172-.086-.259-.086-.172-.085h-.517l.172 4.483-3.448.175zm3.19-6.727h1.466l.344-.085.518-.087.172-.086.173-.085.085-.086.086-.173.087-.085.086-.173.085-.344-.085-.259-.086-.258-.087-.172-.172-.173-.172-.085-.26-.086h-2.327l.087 2.237zM253.233 37.344l.776-11.038 5.692.431.69.086.69.086.517.086.43.172.432.173.345.258.258.345.26.345.086.172.086.259.172.43.087.432v.517l-.087.431-.086.432-.172.344-.173.345-.258.344-.087.086-.172.172-.346.26-.344.171-.518.173-.69.172.518.259.345.172.258.258.26.431.258.345.172.344 1.466 3.277-3.88-.258-1.552-3.45-.345-.603-.086-.172-.173-.173-.172-.086-.173-.086-.258-.086h-.173l-.345-.085-.259 4.483-3.449-.254zm3.88-6.296 1.467.086h.345l.517-.086h.173l.172-.085.087-.087.172-.086.086-.172.086-.172.087-.259v-.259l-.087-.258-.086-.172-.086-.172-.259-.173-.259-.086-.344-.086-.431-.086-1.467-.086-.173 2.24zM267.633 32.946l.173-.604.173-.603.172-.603.259-.431.259-.518.344-.431.345-.345.432-.344.43-.259.518-.259.518-.172.517-.172.518-.086H273.498l.69.086.69.172.603.172.518.172.517.259.518.258.431.345.345.345.173.258.172.173.259.43.258.432.173.517.086.517.086.604.087.603-.087.603-.086.604-.086.517-.087.431-.086.345-.173.432-.085.344-.173.345-.173.344-.258.26-.173.258-.258.259-.518.517-.603.344-.604.259-.345.086-.345.086-.776.086h-.776l-.863-.086-.862-.172-.862-.172-.69-.345-.604-.345-.259-.173-.259-.258-.172-.26-.259-.258-.344-.603-.346-.604-.086-.344-.173-.431v-.345l-.085-.43v-1.294l.085-.516zm3.363.603-.086.776v.604l.173.602.086.26.086.171.259.432.172.085.172.173.432.172.258.086.259.086H273.842l.431-.172.345-.259.173-.172.172-.259.087-.259.172-.258.086-.345.173-.345.086-.862.086-.69v-.603l-.086-.603-.086-.173-.173-.258-.258-.345-.346-.259-.259-.172-.172-.087-.259-.085h-.258l-.26-.086h-.257l-.432.086-.431.172-.345.259-.345.344-.259.517-.258.69-.173.777z" style="fill:#9c8200;fill-rule:evenodd;stroke:#000;stroke-width:.20592535;stroke-miterlimit:4;stroke-dasharray:none;stroke-opacity:1"/><path transform="matrix(.68642 0 0 .68642 39.827 -106.86)" clip-rule="evenodd" style="fill:#9c8200;fill-rule:evenodd;stroke:#000;stroke-width:.30000001;stroke-miterlimit:4;stroke-dasharray:none;stroke-opacity:1" d="m357.756 200.658 4.774 1.382-3.517 11.683 7.411 2.261-1.13 3.768-12.186-3.768 4.648-15.326zM376.6 206.562l4.522 1.884-4.522 11.306 7.286 2.89-1.508 3.643-11.809-4.774 6.031-14.949z"/><path clip-rule="evenodd" d="m307.816 45.018.345-.604.345-.517.173-.258.172-.173.432-.43.43-.345.432-.259.517-.259.431-.172.518-.172h1.638l.604.085.517.173.604.258.604.26.517.344.518.344.517.432.431.344.345.431.259.431.259.518.173.517.172.43v1.639l-.087.517-.172.603-.259.518-.258.603-.26.431-.258.345-.431.69-.259.344-.172.086-.172.173-.26.258-.258.172-.604.345-.345.172-.258.086-.346.085-.344.086-.69.087h-.345l-.345-.087-.432-.086-.344-.085-.777-.26-.776-.344-.776-.43-.69-.518-.517-.518-.259-.259-.259-.258-.172-.259-.173-.344-.086-.259-.173-.345-.172-.69-.086-.69v-.344l.086-.43v-.345l.087-.432.172-.43.172-.345.345-.86zm3.018 1.552-.345.776-.173.603-.085.258v.776l.172.518.259.344.172.173.173.172.43.259.432.258h.259l.259.086h.172l.259-.086h.172l.259-.086.43-.259.26-.172.172-.259.432-.517.43-.776.345-.69.173-.603.086-.518-.086-.517-.173-.432-.259-.344-.085-.172-.173-.173-.431-.258-.518-.26-.431-.085h-.259l-.172.086-.431.086-.518.258-.43.345-.173.259-.173.344-.431.606z" style="fill:#9c8200;fill-rule:evenodd;stroke:#000;stroke-width:.20592535;stroke-miterlimit:4;stroke-dasharray:none;stroke-opacity:1"/><g clip-rule="evenodd"><path style="fill-rule:evenodd;stroke:#000;stroke-width:.30000001;stroke-miterlimit:4;stroke-dasharray:none;stroke-opacity:1" d="m389.287 273.519 2.136 2.512-1.005.88-.503.251-.502.251-1.131.377-1.005.251h-1.005l-.502-.125-.628-.126-1.005-.377-1.131-.628-.628-.377-.502-.503-.503-.502-.377-.628-.377-.628-.377-.628-.251-.628-.126-.754-.125-.754v-.754l.125-.628.126-.753.251-.88.252-.754.377-.753.502-.754.628-.754.503-.753.628-.629.628-.502.628-.503.629-.377.753-.251.628-.251.753-.126.754-.125h.754l.628.125.754.126.754.251.628.377.754.377.502.502.629.377.879 1.005.251.503.376.502.252.628.125.503.126.754v.879l-.126.88-.251.878-3.014-1.13.125-.502.126-.628-.126-.503-.125-.628-.252-.503-.251-.502-.377-.377-.502-.377-.754-.377-.754-.251h-1.256l-.377.126-.377.125-.377.252-.377.251-.376.376-.503.377-.376.377-.377.503-.377.628-.377.628-.251.503-.503 1.13-.126.502-.125.503v1.256l.125.377.252.377.125.377.252.251.251.377.251.251.377.251.503.252.628.125.627.126h.502l.629-.126.628-.377.628-.376.628-.628zM393.182 283.694l10.175-12.185 9.044 7.537-1.758 2.01-6.533-5.402-2.26 2.638 6.155 5.151-1.759 2.01-6.029-5.025-2.764 3.266 6.657 5.653-1.632 2.01-9.296-7.663zM406.497 295.502l11.558-10.929 2.135 2.387-3.391 11.934 7.788-7.16 2.01 2.135-11.557 10.804-2.136-2.387 3.266-11.808-7.662 7.16-2.011-2.136zM420.944 312.587l10.678-7.663-2.764-3.894 2.136-1.508 7.411 10.176-2.135 1.507-2.764-3.768-10.678 7.788-1.884-2.638zM428.104 323.014l14.069-7.412 3.141 5.904.503 1.13.377.879.251.754.251.753v.628l-.125.502-.126.628-.251.502-.377.628-.377.376-.503.503-.628.376-.754.251-.879.251h-1.13l-.377-.125-.754-.251-.628-.377-.754-.628-.251-.376-.377-.377-.125 1.13-.252 1.005-.125.503-.377.628-.88 1.633-1.759 3.141-1.884-3.392 2.01-3.643.879-1.633.377-.879.126-.377v-.877l-.251-.628-.377-.879-.251-.502-5.904 3.141-1.508-2.89zm9.547-1.508 1.131 2.135 1.005 1.633.251.502.252.377.502.251.252.126h.879l.377-.126.251-.125.377-.125.251-.251.126-.251.251-.377v-.251l.126-.376-.126-.377-.125-.251-1.005-2.136-1.131-2.261-3.644 1.883zM443.808 336.455l1.13-.377 1.005-.251h.503l.502-.125h.88l1.382.125.251.125.377.125.628.251.503.251.628.377.377.377.502.377.503.628.503.628.377.879.376.879.377.754.126.754.126.753V344.492l-.126.753-.251.754-.252.628-.376.754-.377.628-.252.251-.251.251-.628.628-.628.502-.754.377-.754.377-.879.376-.88.377-.879.251-.754.125h-1.633l-.754-.125h-.377l-.377-.125-.628-.251-.754-.377-.628-.377-.503-.377-.628-.502-.377-.628-.502-.628-.377-.754-.377-.754-.252-.879-.125-.753-.126-.754-.125-.754.125-.753.126-.754.125-.753.252-.628.377-.753.502-.503.503-.628.502-.502.628-.502.754-.502.754-.377.88-.376zm1.255 3.015-1.131.628-1.005.628-.377.251-.377.377-.251.377-.251.376-.126.503-.126.376-.125.377-.126.502v.377l.126.502.125.377.126.502.377.754.503.753.753.503.754.376.503.126.377.125h1.13l1.131-.125 1.131-.377.628-.251.628-.377.88-.502.377-.376.377-.377.502-.754.251-.377.126-.377v-.502l.126-.377v-.502l-.126-.376-.126-.503-.125-.376-.377-.879-.628-.754-.252-.251-.377-.251-.753-.377-.503-.125-.377-.125h-1.005l-1.131.125-1.256.376zM446.194 372.383l-.628-3.392 3.14-2.136-1.256-6.281-3.769-.502-.754-3.266 16.833 2.638.629 3.392-14.195 9.547zm4.9-7.16 5.401-3.266-6.281-.879.88 4.145zM447.073 376.905l15.703-1.382.502 4.774-10.551 3.769 11.054 1.884.377 4.774-15.828 1.381-.252-3.014 12.437-1.005-12.688-2.136-.251-3.015 12.185-4.145-12.437 1.005-.251-2.89zM448.204 398.262l15.954.627-.503 11.683-2.637-.125.251-8.543-3.518-.125-.251 7.914h-2.638l.251-7.914-4.271-.252-.377 8.92-2.638-.127.377-12.058zM447.073 415.975l15.577 2.512-1.005 6.658-.251 1.131-.252 1.004-.251.754-.251.629-.377.502-.377.502-.502.377-.252.127-.251.125-.628.252-.628.125h-.629l-.753-.125-.88-.127-.628-.377-.628-.377-.628-.627-.377-.629-.377-.754-.126-.879v-1.006l-.377.377-.502.504-.377.25-.377.377-1.131.629-.754.377-.879.377-3.392 1.381.628-3.768 3.769-1.76 1.633-.754.88-.502.251-.252.251-.125.126-.252.125-.25.126-.252.126-.377.251-.879.126-.754-6.532-1.004.503-3.14zm8.417 4.646-.251 2.262-.252 1.885-.125.627v.377l.125.252.126.252.126.25.251.252.125.125.377.252h.252l.377.125h.628l.377-.125.251-.125.251-.127.251-.25.252-.377.125-.252.126-.879.251-1.508.377-2.387-4.02-.629zM443.305 434.063l15.2 4.648-1.005 3.141-15.074-4.649.879-3.14zM442.174 455.168l-2.01 2.512-1.005-.879-.754-.879-.628-.879-.377-1.006-.126-1.004v-1.131l.252-1.131.377-1.13.251-.629.377-.754.502-.502.377-.627.503-.377.628-.504.628-.25.628-.377.754-.252.628-.125h2.387l.753.125.88.252.879.377 1.633.754.754.502.629.502.628.502.502.629.377.629.377.627.251.753.251.629.125.754v1.381l-.125.754-.251.754-.251.879-.251.629-.377.502-.377.629-.377.502-.377.377-.502.377-.503.376-.628.25-.628.252-.88.252h-1.759l.503-3.267h1.131l.628-.125.502-.252.377-.377.503-.375.251-.377.251-.629.252-.377v-.377l.125-.377v-.879l-.125-.377-.252-.754-.251-.377-.251-.377-.754-.626-.503-.252-.502-.377-1.131-.502-1.382-.504-.628-.125-.502-.125h-1.507l-.377.125-.377.125-.377.252-.377.125-.251.252-.503.629-.251.377-.126.375-.125.628-.126.502v.629l.126.629.377.502.377.627.502.504.628.502zM426.22 473.508l1.634-3.014 3.894.502 3.016-5.527-2.513-2.889 1.633-3.016 10.93 13.064-1.634 3.016-16.96-2.136zm8.291-2.135 6.281 1.006-4.146-4.775-2.135 3.769zM423.456 477.277l12.814 9.297-1.759 2.512-12.437-1.006 8.543 6.281-1.759 2.387-12.813-9.295 1.884-2.639 12.185 1.006-8.417-6.156 1.759-2.387zM402.101 502.275l2.513-2.512 3.518 1.508 4.396-4.523-1.633-3.518 2.261-2.387 7.161 15.453-2.388 2.387-15.828-6.408zm8.668.127 5.778 2.512-2.764-5.652-3.014 3.14z" transform="matrix(.68642 0 0 .68642 39.827 -106.86)"/><path style="fill:#9c8200;fill-rule:evenodd;stroke:#000;stroke-width:.30000001;stroke-miterlimit:4;stroke-dasharray:none;stroke-opacity:1" d="m494.936 323.642 1.506 4.648-11.431 4.02 2.512 7.286-3.768 1.256-4.146-12.06 15.327-5.15zM500.965 342.234l1.257 4.773-15.577 4.146-1.257-4.774 15.577-4.145zM504.231 355.424l1.508 9.17.125 1.131v.502l-.125.502-.252.879-.125.377-.252.377-.502.628-.628.502-.629.377-.879.125-.628.125-.628-.125-.629-.125-.628-.377-.377-.251-.377-.377-.251-.377-.377-.502v.879l-.251.753-.377.628-.377.502-.377.377-.628.377-.628.251-.754.125-.628.126h-.503l-.628-.126-.502-.125-.503-.251-.503-.377-.376-.377-.503-.377-.126-.251-.251-.502-.377-1.005-.628-2.135-1.256-8.542 15.83-2.511zm-5.401 5.904.376 2.136.252 1.005.125.377.252.251.251.125.251.125h.628l.377-.125.252-.125.251-.126.251-.251.126-.377v-1.255l-.377-2.135-3.015.375zm-6.281 1.005.377 2.512.125.628.251.502.126.377.251.251.252.125.377.125.376.126.377-.126h.252l.251-.125.251-.251.252-.251.125-.377.126-.377v-.502l-.126-.628-.377-2.513-3.266.504zM507.497 377.282l.88 13.316-3.392.252-.628-8.291-2.512.125.502 7.789-3.266.125-.503-7.663-3.14.252.502 8.542-3.517.251-1.005-13.567 16.079-1.131zM492.297 398.135l16.08.504-.377 8.291-.126 2.135-.125.754-.252.629-.251.627-.377.502-.377.504-.251.125-.251.252-.628.25-.629.252-.628.125h-.754l-.628-.125-.628-.125-.502-.127-.252-.125-.251-.125-.503-.377-.377-.377-.376-.377-.252-.502-.377-.754-.251-1.006-.377.754-.125.252-.126.25-.377.252-.503.502-.628.377-.377.252-4.773 2.26.251-5.652 5.025-2.512.754-.377.502-.377.252-.629.125-.627v-.377l-6.532-.252.252-5.026zm9.297 5.277v2.135l.125 1.383.126.377.377.377.377.25.502.127h.377l.377-.127.251-.125.252-.252.125-.25.251-.377v-.504l.126-.627v-2.262l-3.266-.125zM507.121 420.244l-2.388 14.949-3.893-.627.754-5.025-11.935-1.885.754-4.898 11.934 1.885.754-5.026 4.02.627zM487.9 447.379l1.382-5.527-2.387-1.381 1.382-4.9 13.944 9.924-1.382 5.277-17.085 1.633 1.256-5.025h2.89v-.001zm3.644-.125 6.029-.252-5.15-3.141-.879 3.393zM497.071 462.957l-2.639 6.908-.377 1.006-.502.879-.377.629-.503.627-.377.252-.251.25-.502.377-.629.252-.628.252-.754.25-.628.127h-1.507l-1.508-.377-1.633-.377-1.005-.504-1.006-.502-.879-.502-.251-.252-.377-.25-.503-.504-.377-.627-.377-.629-.376-.627-.126-.629-.251-.629v-1.256l.251-1.633.251-.754.126-.627 2.764-6.91 14.951 5.78zm-5.151 3.391-8.165-3.141-.502 1.131-.252.629-.125.627-.126.504v.377l.126.377.125.375.252.377.251.377.502.252.503.377 1.508.629 1.13.377 1.005.25h.754l.628-.125.377-.125.252-.127.251-.25.251-.252.377-.629.377-.879.501-1.131z" transform="matrix(.68642 0 0 .68642 39.827 -106.86)"/></g><path clip-rule="evenodd" d="m185.458 275.422 4.483 2.415.604.344.517.345.43.432.345.344.345.432.172.43.172.432.173.432v1.466l-.087.517-.172.518-.172.517-.432 1.035-.43.69-.432.603-.172.259-.172.258-.431.432-.431.259-.431.259-.432.259-.43.085-.517.086-.432.087h-.43l-.432-.087-1.034-.344-.431-.173-.431-.172-4.484-2.415 5.174-9.745zm1.81 3.794-2.846 5.346.776.43.862.345.345.088.258.085.259-.085.259-.088.258-.085.26-.172.258-.259.258-.346.259-.43.344-.518.345-.776.172-.603.086-.346V281.112l-.086-.172-.086-.26-.258-.344-.26-.173-.171-.171-.517-.346-.775-.43z" style="fill:#9c8200;fill-rule:evenodd;stroke:#000;stroke-width:.20592535;stroke-miterlimit:4;stroke-dasharray:none;stroke-opacity:1"/><path transform="matrix(.68642 0 0 .68642 39.827 -106.86)" clip-rule="evenodd" style="fill:#9c8200;fill-rule:evenodd;stroke:#000;stroke-width:.30000001;stroke-miterlimit:4;stroke-dasharray:none;stroke-opacity:1" d="m230.375 566.217 12.312 5.025-1.257 3.141-7.662-3.141-1.006 2.387 7.161 2.891-1.256 3.013-7.161-2.888-1.131 3.013 7.915 3.141-1.382 3.392-12.562-5.025 6.029-14.949zM248.465 573.252l6.281 1.76-.125 10.049 5.025-8.793 6.281 1.757-4.146 15.454-4.02-1.006 3.266-11.809-6.281 11.055-3.517-1.006.125-12.688-3.14 11.936-4.02-1.131 4.271-15.578z"/><path clip-rule="evenodd" d="m225.468 296.203.085-.69.173-.604.172-.517.259-.518.258-.517.345-.432.345-.345.43-.344.432-.345.43-.173.518-.258h.258l.26-.086.603-.087.603-.086.603.086h.604l.69.173.603.173.603.171.517.259.431.259.431.258.431.432.345.345.259.432.258.517.172.43.172.518.087.603v1.209l-.087.603-.172.948-.259.776-.258.777-.345.603-.518.517-.172.26-.259.172-.603.345-.603.346-.69.171-.776.086-.776.087-.431-.087h-.518l-.862-.171-.776-.26-.69-.258-.344-.173-.259-.172-.517-.431-.26-.26-.257-.258-.173-.259-.172-.258-.172-.345-.172-.345-.259-.69-.086-.43v-1.726l.089-.43zm3.362.43-.086.777v.69l.086.604.26.43.171.173.086.173.431.26.173.17.172.088.517.086H231.675l.43-.173.173-.172.172-.087.345-.43.086-.26.172-.258.172-.69.173-.863.086-.689-.086-.69v-.26l-.087-.258-.172-.432-.345-.344-.344-.26-.259-.17-.172-.088-.517-.086h-.518l-.43.086-.432.173-.344.259-.173.173-.172.172-.259.517-.259.603-.085.777z" style="fill:#9c8200;fill-rule:evenodd;stroke:#000;stroke-width:.20592535;stroke-miterlimit:4;stroke-dasharray:none;stroke-opacity:1"/><path transform="matrix(.68642 0 0 .68642 39.827 -106.86)" clip-rule="evenodd" style="fill:#9c8200;fill-rule:evenodd;stroke:#000;stroke-width:.30000001;stroke-miterlimit:4;stroke-dasharray:none;stroke-opacity:1" d="m304.116 591.719 4.397 1.508-.377.878-.251.754-.377.754-.503.629-.502.502-.628.502-.629.377-.628.377-.754.252-.879.125-1.005.125h-1.005l-1.256-.125h-.503l-.628-.125-.502-.127-.503-.125-.376-.252-.503-.125-.377-.252-.377-.25-.377-.252-.377-.377-.628-.754-.628-.879-.502-1.13-.377-1.131v-.627l-.125-.629v-2.387l.125-1.006.251-.752.251-.881.377-.753.377-.627.377-.629.502-.502.629-.502.628-.377.628-.377.753-.252.88-.25.754-.127h1.884l1.382.127.753.125.503.125 1.131.377.502.252.502.377.754.754.377.377.252.502.377.502.251.501.377 1.258-4.397.752-.126-.375-.126-.252-.251-.502-.126-.252-.251-.252-.251-.125-.251-.252-.629-.25-.753-.126h-.377l-.377.126-.753.25-.377.127-.252.25-.251.252-.251.252-.377.627-.251.754-.126.754v2.262l.126 1.004.125.881.252.377.125.25.377.376.251.252.377.125.503.252H301.478l.627-.127.503-.25.377-.252.377-.501.377-.502.251-.629.126-.754z"/><path clip-rule="evenodd" d="m256.682 303.792-.948-11.038 5.605-.432 1.38-.085h.603l.432.085.43.173.173.086.259.087.172.086.173.172.086.173.172.173.26.344.086.173.086.259.172.43.086.518v.862l-.172.346-.086.43-.173.26-.259.344-.258.259-.345.258-.172.173-.26.086-.689.259.517.173.432.172.603.517.518.69 1.897 3.018-3.794.345-2.156-3.19-.345-.517-.173-.173-.172-.086-.172-.087-.259-.086h-.69l.345 4.485-3.364.258zm2.846-6.814 1.38-.171h.345l.603-.173.259-.172.086-.087.172-.172.087-.173v-.173l.086-.171-.086-.173v-.173l-.087-.259-.085-.086v-.086l-.173-.172-.26-.086-.257-.086h-.777l-1.552.172.259 2.241zM278.154 299.134l-3.794.69-.26 1.898-3.362.69 1.897-11.64 3.708-.69 6.208 10.002-3.535.689-.862-1.639zm-1.208-2.241-1.897-3.708-.431 4.14 2.328-.432z" style="fill:#9c8200;fill-rule:evenodd;stroke:#000;stroke-width:.20592535;stroke-miterlimit:4;stroke-dasharray:none;stroke-opacity:1"/><path transform="matrix(.68642 0 0 .68642 39.827 -106.86)" clip-rule="evenodd" style="fill:#9c8200;fill-rule:evenodd;stroke:#000;stroke-width:.30000001;stroke-miterlimit:4;stroke-dasharray:none;stroke-opacity:1" d="m367.932 581.795 4.522-.125v1.758l-.126.754-.251.754-.251.753-.377.627-.503.629-.502.502-.628.502-.753.504-.88.377-1.005.377-1.131.377-1.13.125-1.005.125h-1.006l-.879-.25-.503-.127-.376-.25-.879-.504-.879-.627-.503-.377-.377-.377-.628-1.006-.628-1.13-.503-1.381-.377-.879-.125-.879-.126-.881v-1.633l.126-.754.251-.754.377-.754.377-.626.377-.629.502-.502.628-.502.629-.504.753-.377.879-.375.879-.377 1.382-.377 1.257-.127h1.13l.629.127.502.125.503.125.502.252.88.627.502.377.376.377.503.504.377.502-3.894 2.261-.377-.504-.377-.377-.628-.25-.251-.126-.377-.125h-.754l-.251.125h-.377l-.754.376-.251.252-.377.252-.377.502-.126.377-.125.377-.126.252v1.506l.126.504.251 1.004.502 1.131.377.879.252.377.251.377.251.252.251.125.629.376h.251l.377.125.628-.125.628-.125.628-.251.503-.252.377-.375.125-.252.126-.252.251-.502.126-.629v-1.381zM374.338 569.357l4.648-1.882 6.031 14.947-4.649 1.76-6.03-14.825z"/><path clip-rule="evenodd" d="m314.543 285.77-3.45 1.896.346 1.812-3.019 1.638-1.552-11.728 3.277-1.724 8.881 7.847-3.19 1.639-1.293-1.38zm-1.812-1.725-2.932-2.932.863 4.053 2.07-1.121z" style="fill:#9c8200;fill-rule:evenodd;stroke:#000;stroke-width:.20592535;stroke-miterlimit:4;stroke-dasharray:none;stroke-opacity:1"/><path transform="matrix(.68642 0 0 .68642 39.827 -106.86)" clip-rule="evenodd" style="fill:#003c87;fill-rule:evenodd;stroke:#9c8200;stroke-width:.30000001;stroke-miterlimit:4;stroke-dasharray:none;stroke-opacity:1" d="m389.664 312.587 1.256-.251 1.634-2.89-1.759-1.507-4.523-2.764-2.261.126h-1.13l-2.387-1.131-.503.251-1.759-.376-.125-1.131h4.271l.503-.879-.88-.754-.502.377-4.522.377-1.382-1.508-.126-1.005-.251-.125-.377-1.382-.628-.251-1.633.502h-1.634l-2.26-1.633-1.131.377-2.513-1.256-2.261-.754-1.508.879-1.758.251-3.392-.628-1.508 1.382v.628l.252 1.508.502 1.256-.754 1.885 1.382 1.381-.125.503-2.01 2.261 1.005.628.502 1.633-1.633 2.01h-1.256v.377l.879 1.13-.126.377 2.011 1.508-.629 1.131.252 1.255-.252.629-.125.125 1.131.88.502 2.386h1.005l1.508 1.759.377-.251.377-1.382 2.763-3.769.125-2.638 1.885.126.377-.628h.502l1.382-1.131.628-.125 1.006.753-.126.629.754 1.256 1.632-.377 2.513-.377 1.13-2.01 2.262-.753 2.009.627.377-.251 1.382.377h2.262l1.382-.126h2.386l1.759 1.508.376.754 1.759.754-.251.125-.377.126-.879-.251-.252-.754 1.382-.377.126-1.382z"/><path stroke-miterlimit="10" d="M168.557 164.962c0-45.461 36.369-81.83 81.83-81.83 45.462 0 81.832 36.369 81.832 81.83 0 45.462-36.369 81.832-81.831 81.832s-81.831-36.37-81.831-81.832h0z" style="fill:none;stroke:#000;stroke-width:.20592535;stroke-linecap:square;stroke-miterlimit:4;stroke-dasharray:none;stroke-opacity:1"/><path stroke-miterlimit="10" d="M179.852 164.962c0-39.186 31.349-70.535 70.536-70.535 39.186 0 70.536 31.348 70.536 70.535s-31.35 70.535-70.536 70.535-70.536-31.348-70.536-70.535h0z" style="fill:none;stroke:#000;stroke-width:.20592535;stroke-linecap:square;stroke-miterlimit:4;stroke-dasharray:none;stroke-opacity:1"/><path stroke-miterlimit="10" d="M191.407 164.92c0-32.792 26.213-59.025 58.98-59.025 32.768 0 58.981 26.233 58.981 59.024 0 32.792-26.213 59.024-58.98 59.024-32.768 0-58.981-26.232-58.981-59.024h0z" style="fill:none;stroke:#000;stroke-width:.20592535;stroke-linecap:square;stroke-miterlimit:4;stroke-dasharray:none;stroke-opacity:1"/><path stroke-miterlimit="10" d="M225.899 165.135a24.215 24.215 0 0 1 24.317-24.317 24.215 24.215 0 0 1 24.316 24.317 24.215 24.215 0 0 1-24.316 24.316 24.215 24.215 0 0 1-24.317-24.316h0z" style="fill:none;stroke:#000;stroke-width:.20592535;stroke-linecap:square;stroke-miterlimit:4;stroke-dasharray:none;stroke-opacity:1"/><path stroke-miterlimit="10" d="M202.875 164.962c0-26.395 21.117-47.512 47.513-47.512 26.395 0 47.512 21.117 47.512 47.512 0 26.397-21.117 47.512-47.512 47.512-26.396 0-47.513-21.115-47.513-47.512h0z" style="fill:none;stroke:#000;stroke-width:.20592535;stroke-linecap:square;stroke-miterlimit:4;stroke-dasharray:none;stroke-opacity:1"/><path stroke-miterlimit="10" d="M213.481 165.608c0-20.191 16.135-36.345 36.303-36.345 20.168 0 36.302 16.154 36.302 36.345 0 20.193-16.134 36.347-36.302 36.347S213.48 185.8 213.48 165.608h0z" style="fill:none;stroke:#000;stroke-width:.20592535;stroke-linecap:square;stroke-miterlimit:4;stroke-dasharray:none;stroke-opacity:1"/></svg>