<svg xmlns="http://www.w3.org/2000/svg" viewBox="0 0 900 600"><pattern id="a" patternUnits="userSpaceOnUse" width="128.571" height="120"><circle r="999" fill="#fff"/><path d="m0 0 32.143 32.143v55.714L64.286 120l32.143-32.143V32.143L128.57 0z" fill="#0b5cb7"/></pattern><path fill="url(#a)" d="M0 0h900v600H0z"/><g style="display:inline;opacity:1"><path style="fill:#e6a608;stroke:#000;stroke-width:2.4;stroke-linecap:butt;stroke-linejoin:miter" d="M366.502 331.6c-23.355 7.243-38.418-14.996-56.403-26.848-6.667 15.748-2.417 33 0 50 23.917 17.797 37.57 20.84 51.231 23.892 50.25-12.498 64.653-60.187 5.172-47.044z" transform="translate(0 -138.25)"/><path style="opacity:1;fill:#e6a708;stroke:#000;stroke-width:1.5;stroke-linecap:butt;stroke-linejoin:round;paint-order:normal" d="M298.296 212.393h16.245v241.861h-16.245z" transform="translate(0 -138.25)"/><path d="M234.425 195.38c-6.824 20.011-9.284 61.944 3.454 88.824 0 0 39.107-28.04 60.116-30.827 11.107-1.474 33.614.174 33.614.174v-21.074s-22.295-1.841-33.44-2.787c-24.087-2.043-63.921-33.54-63.744-34.31z" style="fill:#e8e7e7;stroke:#000;stroke-width:1.5;stroke-linecap:round;stroke-linejoin:round" transform="translate(0 -138.25)"/><path style="opacity:1;fill:#bc3805;stroke:none" d="M306.427 213.123h7.343v240.315h-7.343z" transform="translate(0 -138.25)"/><path style="fill:#bfbebe;stroke:none" d="M247.662 205.307c-4.416 15.185-5.637 42.131 5.16 68.802 0 0 25.383-17.77 46.392-20.558 11.108-1.474 33.614.174 33.614.174v-21.074s-22.295-1.841-33.44-2.786c-24.087-2.043-51.904-23.788-51.726-24.558z" transform="translate(0 -138.25)"/><path style="fill:none;stroke:#000;stroke-width:1.5;stroke-linecap:round;stroke-linejoin:round" d="M234.425 195.38c-6.824 20.011-9.284 61.944 3.454 88.824 0 0 39.107-28.04 60.116-30.827 11.107-1.474 33.614.174 33.614.174v-21.074s-22.295-1.841-33.44-2.787c-24.087-2.043-63.921-33.54-63.744-34.31z" transform="translate(0 -138.25)"/><path style="fill:#e6a608;stroke:#000;stroke-width:2.4;stroke-linecap:round;stroke-linejoin:round" d="M467.488 357.882c-24.986-8.514-31.502-7.055-46.642 8.787-24.633 25.774 10.21 55.498-7.3 61.902-29.882 10.93-3.108-52.069-61.083-34.25-6.212 1.908-8.1 12.055-6.65 16.27-18.874 9.852-12.277 35.432-5.173 36.453 2.88.414 13.146 1.633 18.723-.254-2.01 11.117-4.678 30.351 22.908 23.79 11.995-2.852 26.987.565 36.202 8.484 10.298-4.71 19.641-13.338 17.95-22.429 19.317 2.387 9.04-7.25 23.676-18.211z"/><path style="fill:#e6a608;stroke:#000;stroke-width:2.4;stroke-linecap:round;stroke-linejoin:round" d="M413.814 409.08c13.832 39.035 65.316 30.556 69.666 74.89-27.277 16.01-46.674 40.523-45.98 63.396.793 26.093 54.466 44.171 55.036 75.239.3 16.346-5.532 25.129-16.371 25.428-12.841.354-14.696-18.398-33.44-19.158-9.494-.385-16.14 14.568-15.326 24.035-9.911 13.57-5.563 22.596 4.877 29.26 4.352 16.584 17.93 17.48 32.046 18.809 14.04 1.32 18.346-14.66 38.664-10.102 11.69 2.623 17.094-10.11 16.72-29.26 3.369-2.329 5.498.302 8.012 1.394 3.772-8.854-6.404-12.812-2.09-16.371 3.748-5.425 6.143-2.723 9.056-3.135 1.961-3.536-2.556-5.922-.94-8.58 3.36-.311 3.874 2.093 5.419 4.187 7.064-7.203 1.3-17.988 3.448-22.414 2.477-3.273 3.815-.848 5.419.247 1.456-5.61-3.99-15.362-21.06-33.129-9.28-9.658-13.795-14.009-14.901-21.182-1.035-6.71 2.902-14.655 6.404-14.655 15.644 0 17.662 46.586 52.956 46.921 37.87.36 45.902-38.788 44.95-64.655-2.317-63.003-21.387-96.213 24.545-185.606 9.432-18.356 23.342-46.252 22.642-71.408-.71-25.488-17.175-55.796-54.34-56.429-32.79-.558-42.366 32.77-41.799 41.451.924 14.146-5.92 29.161-15.675 29.608-1.684.077-3.002-1.443-3.831-4.18-3.299 2.42-7.312 20.25 18.461 18.113 3.294 28.984-10.2 23.233-16.675 21.642 0 0 5.44 13.828 17.72 14.236 11.62.386 20.773-5.952 26.821-21.308 3.427-8.7 16.085-14.462 16.023-25.02-.145-24.768-18.634-26.58-18.46-32.394.311-10.484 10.733-18.461 21.247-18.461 23.73 0 27.17 25.295 27.17 46.327 0 39.066-26.976 25.82-45.331 64.888-3.705 1.16-8.331 7.334-8.108 9.911-8.046 1.465-11.77 14.107-10.654 20.992-4.076 3.49-6.607 8.108-8.708 12.54-40.024 26.27 24.022 73.73 27.518 139.33 1.25 23.465-11.372 38.1-25.776 35.53-33.21-5.925-26.495-50.819-28.738-95.093-2.91-57.443-78.624-126.328-45.407-125.712" transform="translate(0 -138.25)"/><path style="fill:#e6a608;stroke:#000;stroke-width:2.4;stroke-linecap:butt;stroke-linejoin:miter" d="M360.694 374.42c-35.941 30.795-39.038-16.565-62.177-16.37-20.761.174-16.523 20.975-14.803 35.529 4.169 35.283 21.347 44.81 43.889 36.226 12.94 11.1 25.666 9.275 38.142-7.489 12.97-.276 24.242-.847 26.647-2.96.583 2.321.341 4.644-1.393 6.966 9.449-14.67 34.82-4.744 39.36-32.743 19.074-35.086 26.516-62.28-69.665-19.158z" transform="translate(0 -138.25)"/><path style="fill:#e6a608;stroke:#000;stroke-width:2.4;stroke-linecap:butt;stroke-linejoin:round" d="M461.139 198.894c4.615-8.518 8.728-25.477 6.188-31.312 10.518.126 10.214 8.565 6.064 10.89 8.816.518 7.716 4.794 10.767 6.798-3.504-.034-4.998 4.246-12.242 2.599 3.269 4.373 1.407 12.107 17.688 9.044 8.047 12.573 14.457 12.594 20.545 10.149-7.038-2.122-4.208-8.017-7.055-10.644 3.677 1.535 7.957-1.988 12.129 3.466 4.208-11.145 7.673-5.684 12.252-8.045-2.973 3.925 4.78 8.2-7.673 12.129 9.085 3.755 3.903 7.429 7.178 10.777-4.115-2.31-5.25 4.593-13.366-5.208 2.685 8.515 4.543 16.842 18.08 17.698-.115 12.178 7.283 13.054 12.5 15.594-3.476-4.718.525-8.093-.248-11.52 2.487 2.073 5.838-.007 9.396 6.446 6.708-6.87 8.525-.569 11.138 3.589-7.794.371-19.803 8.13-27.599 15.47z" transform="translate(0 -138.25)"/><path style="fill:#e6a608;stroke:#bc3805;stroke-width:2.4;stroke-linecap:butt;stroke-linejoin:miter" d="M455.911 257.339c-26.147-.651-37.74 6.894-56.28 4.926-16.438-1.745-15.877-15.643-13.917-16.872 3.211-2.013 4.162 9.993 18.227 8.251 40.1-4.966 38.693 2.04 51.97 3.695z" transform="translate(0 -138.25)"/><path style="fill:#e6a608;stroke:#000;stroke-width:2.4;stroke-linecap:butt;stroke-linejoin:miter" d="M363.355 191.689c44.623-12.788 38.052-31.184 87.163-41.507 8.01-1.684 15.01-21.225-12.252-14.002-31.15 8.254-29.629-.918-28.054-7.001 13.779-2.243 22.863-6.364 33.655-9.802-12.653-5.381-25.098-8.015-31.523-10.804-11.21-4.867-7.965-14.425-9.083-24.55 26.091-10.632 40.142-21.6 57.878-23.38 31.382 14.634 58.185 32.755 75.742 57.921-6.017 19.517-4.372 42.688 6.93 51.733-6.557 4.238-8.887 2.838-11.623 1.98-2.51 17.259-3.817 31.783 2.465 47.03-2.131 2.818-5.314 4.587-11.386 3.465-4.677 8.33-8.387 18.694 11.882 26.98-6.607 14.44-31.86 19.045-39.604-5.693-6.41 11.244-23.516 15.202-28.456-.752-9.36 15.88-40.937 24.555-50.01 5.208 11.42-.764 18.494-2.51 10.396-28.465-21.573 17.17-29.796 10.074-51.237 21.534 1.176-20.385 9.635-32.746 22.03-41.832-10.79.398-24.118 5.543-34.913-8.063z"/><path style="fill:#e27007;stroke:none" d="M468.328 309.458c7.01-.182 12.313-.093 21.073-.523 4.83-.237 9.637-6.842 14.979-16.545-2.95 9.11-7.502 16.084-13.934 20.55.07-1.436-9.751-2.506-22.118-3.482z" transform="translate(0 -138.25)"/><path style="fill:#e6a608;stroke:#000;stroke-width:2.4;stroke-linecap:butt;stroke-linejoin:miter" d="M318.842 308.447c7.398-14.58-24.421-27.69-31.157-2.094-3.769 14.322 20.822 22.465 31.157 2.094z" transform="translate(0 -138.25)"/><path d="M310.96 335.91c7.398-14.58-23.426-30.974-28.694-7.143-3.784 17.12 18.36 27.514 28.695 7.143z" style="fill:#e6a608;stroke:#000;stroke-width:2.4;stroke-linecap:butt;stroke-linejoin:miter" transform="translate(0 -138.25)"/><path style="fill:#e6a608;stroke:#bc3805;stroke-width:2.4;stroke-linecap:butt;stroke-linejoin:miter" d="M324.754 335.171c-8.732 14.21-41.636 6.251-36.084-6.28 2.808-6.338 7.903-4.486 15.031-.014 5.223 3.276 8.891 9.067 21.053 6.294zM325.616 324.826c1.432-18.231-15.88-34.624-25.862-25.615-5.32 4.8-.68 10.67 6.836 12.705 11.209 3.034 15.656 7.028 19.026 12.91zM259.679 385.567c7.36-7.722 9.942-7.16 15.5-7.14 4.039.014 18.123 5.91 15.85-5.051-2.766-13.332-33.386-4.505-31.35 12.191zM269.084 416.569c4.398-9.639 6.94-10.443 11.843-13.063 4.212-2.25 16.382-.51 13.933-9.753-3.65-13.78-33.933 5.058-25.776 22.816zM282.747 441.9c3.13-10.122 6.409-12.6 10.075-14.47 4.254-2.171 16.181-2.604 12.57-11.457-5.383-13.199-33.007 9.358-22.645 25.926z" transform="translate(0 -138.25)"/><path style="fill:#e27007;stroke:none" d="M404.967 226.904c7.713-1.385 21.133-7.511 30.53-12.018 19.436-9.32 24.719 5.971 41.103 7.838-1.389 3.675-1.356 6.877-1.393 10.101-5.36-9.158-16.168-6.501-26.758-7.695-7.427-.838-8.037-6.881-17.218-4.844-10.002 2.218-26.245 11.345-26.212 10.71z" transform="translate(0 -138.25)"/><path style="fill:#fff;stroke:#000;stroke-width:2.5;stroke-linecap:butt;stroke-linejoin:round" d="M446.644 221.198c1.922-4.012 6.001-4.569 9.543-3.117 3.187 1.306 5.499 5.71 9.18 8.865-13.72 3.505-12.29-2.317-18.723-5.748z" transform="translate(0 -138.25)"/><path style="fill:#000;stroke:#000;stroke-width:1.5;stroke-linecap:butt;stroke-linejoin:miter" d="M450.911 224.553c1.288-2.291 2.971-4.494 2.264-7.228l3.003.261c-.631 4.062-3.516 5.366-5.267 6.967z" transform="translate(0 -138.25)"/><path d="M347.106 617.986c4.712-9.49 8.633-11.566 12.264-12.668 4.57-1.388 16.39.025 14.245-9.292-3.198-13.892-34.08 3.944-26.509 21.96zM330.69 541.122c9.121-5.533 11.467-4.315 16.828-2.844 3.894 1.068 15.95 10.438 16.618-.736.812-13.591-31.05-13.069-33.446 3.58zM323.513 585.993c5.315-9.164 7.923-9.718 13.058-11.848 4.411-1.83 16.353 1.086 14.816-8.35-2.293-14.07-34.265 1.73-27.874 20.198zM413.614 690.463c9.544 4.6 13.914 3.833 17.458 2.475 4.46-1.71 12.924-10.08 16.949-1.407 6.001 12.93-29.328 17.803-34.407-1.067zM406.603 653.655c6.486-8.47 9.114-8.188 14.642-8.768 4.017-.42 18.654 3.926 15.214-6.727-4.185-12.956-33.676-.885-29.856 15.495zM412.51 682.48c5.316-9.164 7.924-9.718 13.059-11.848 4.411-1.83 16.353 1.086 14.816-8.35-2.293-14.07-34.265 1.73-27.874 20.198zM480.424 705.458c9.72-3.278 12.226-6.768 13.76-10.108 1.929-4.203 2.121-15.728 10.78-12.45 12.909 4.887-8.247 32.181-24.54 22.558z" style="fill:#e6a608;stroke:#bc3805;stroke-width:2.4;stroke-linecap:butt;stroke-linejoin:miter" transform="translate(0 -138.25)"/><path style="fill:#e27007;stroke:none" d="M429.663 237.876c2.704-8.976 13.072-4.413 22.467-1.567 4.08 3.976-.66 4.547 2.613 11.495 8.791 3.18 8.375-4.398 18.113-.175-10.844.7-12.765 4.998-9.23 11.495-8.07 3.858-16.14 6.53-24.21 8.534 5.69-3.286 12.394-3.116 17.068-10.275 1.511-2.314.218-5.49-6.792-8.012 1.455-3.098-1.975-10.636-20.029-11.495z" transform="translate(0 -138.25)"/><path style="fill:#e6a608;stroke:#000;stroke-width:2.4;stroke-linecap:round;stroke-linejoin:round" d="M510.91 232.477c6.95 1.39 14.22 1.151 17.417 5.05-.311 7.324-3.128 8.396-7.663 13.934" transform="translate(0 -138.25)"/><path style="fill:#e27007;stroke:none" d="M514.481 243.798c6.356-5.116 8.504-7.607 12.598-5.983.296 5.918-3.406 8.492-7.246 12.784-4.637-1.286-5.769-3.863-5.352-6.801z" transform="translate(0 -138.25)"/><path style="fill:none;stroke:#000;stroke-width:2.4;stroke-linecap:butt;stroke-linejoin:miter" d="M513.35 244.407c4.83-1.657 7.712-9.72 14.803-7.053" transform="translate(0 -138.25)"/><path style="fill:#e27007;stroke:none" d="M539.648 309.396c-4.417-.606-8.802-1.25-15.936-15.439-6.431 26.058-16.214 24.047-26.299 19.506 7.762 10.273 17.028 8.451 28.04-6.347 9.24 3.31 11.207 3.963 14.195 2.28zM384.99 374.42c31.965-14.52 37.282-28.423 48.156-33.439-6.226 8.018-1.756 10.481-5.224 15.414-14.151 12.362-24.69 12.694-42.932 18.026zM421.913 391.55c42.085 4.64 42.437-22.878 48.808-35.765-1.001 9.237 1.272 14.532-3.416 22.948-12.686 22.42-39.024 19.928-45.392 12.817zM495.158 371.547c6.327 12.86 14.607 23.561 36.914 19.071-11.187 15.318-36.747 8.747-36.914-19.07zM533.03 357.353c-4.382 5.418-17.731 4.704-24.993-16.546 7.14 7.591 12.485 15.664 24.993 16.546zM354.926 410.664c24.743-8.66 53.1-5.35 61.207-22.045-2.866 2.158-25.164-.678-61.207 22.045zM285.591 385.787c13.413-9.022 22.434-10.259 33.867-3.695-9.213-11.774-20.213-13.218-33.867 3.695zM292.734 406.846c3.908-9.949 19.142-10.58 33.867-3.695-16.29-11.34-29.18-12.669-33.867 3.695zM472.906 571.994c-13.024-30.479 2.79-54.303 25.768-69.814 6.463-4.362 7.187-12.27 11.301-18.24-10.793 3.945-90.042 54.616-37.069 88.054zM515.084 548.42c5.918-5.103 11.42 3.509 12.132 2.773.715-7.324-4.953-16.236-3.8-22.38-3.744 4.941-6 8.086-8.332 19.607zM351.847 549.334c18.395-2.673 30.296 7.988 44.458 20.936-9.213-11.775-21.69-34.401-44.458-20.936zM360.96 583.447c15.785-2.937 16.184-.7 23.77 1.97-16.245-8.801-18.913-8.958-23.77-1.97zM430.67 651.91c20.38-12.853 23.479 2.977 36.74 5.362-10.693-9.075-20.387-23.843-36.74-5.362zM433.633 679.59c4.257-7.772 18.532-9.796 33.344-5.262-16.29-8.642-27.613-8.141-33.344 5.262zM480.15 693.996c7.408-4.61 11.663-4.863 14.626-5.192.77-2.468-1.967-5.818-1.688-9.394-2.77 8.217-6.665 7.121-12.938 14.586zM598.346 402.307c-5.73-12.652-11.908-31.26-10.488-39.998.389-5.315 6.534-9.538 7.657-9.631-2.835 6.776 1.305 30.91 2.83 49.629zM583.742 432.644c-7.076-12.652-14.923-28.077-15.196-36.814 2.019-5.763 6.57-11.005 8.4-12.226-.473 5.22.345 21.59 6.796 49.04z" transform="translate(0 -138.25)"/><path style="fill:#e27007;stroke:none" d="M370.197 419.9c3.46-14.425 17.867-20.309 29.987-16.641 10.61 3.21 15.504 10.565 18.874 24.646 5.06-33.693-46.324-45.917-48.861-8.005z" transform="translate(220.492 -301.268)"/><path d="M448.203 293.163c-10.187 3.899-12.492 8.342 3.488 8.695-20.35 6.215-18.946-8.76-3.488-8.695z" style="fill:#e27007;stroke:none" transform="translate(0 -138.25)"/><path d="M510.395 233.615c-.728 4.125 1.32 7.575 2.547 9.646 3.44-1.205 6.51-6.567 10.525-7.378-2.234-.809-8.186-1.338-13.072-2.268zM433.24 210.8c17.913-4.122 38.074-.873 56.047 6.753-8.006-4.643-24.298-15.904-28.905-15.904-7.405 0-18.908 5.434-27.141 9.15zM570.914 245.846c12.276-16.127 31.104-27.991 51.203-26.301-26.15-5.46-42.837 5.434-51.203 26.301zM476.478 304.137c4.894-4.928 13.92-1.064 13.177-18.72-5.17 14.895-9.713 13.6-13.177 18.72zM500 311.649c5.767-3.364 9.56.165 11.33-13.547-2.708 5.816-5.403 8.573-11.33 13.547zM548.374 287.675c21.009 17.364 19.308-6.341 18.064-13.301-1.525 5.71-8.8 18.286-18.064 13.301zM413.171 522.324c12.276-16.127 30.866-27.791 50.964-26.101-23.05-9.154-32.491-1.244-42.404 9.59-5.196 5.68-7.18 10.662-8.56 16.511zM457.506 506.438c38.184-21.839 47.108-34.842 44.421-39.29-4.012-6.64-14.565 7.44-16.088 9.992-1.006 1.687-1.408 3.04-1.254 7.491-1.15 1.484-15.73 8.002-27.079 21.807zM381.03 326.147c38.947-11.43 46.877-31.334 69.447-36.466-30.689 3.8-52.216 29.007-69.447 36.466zM595.437 363.458c12.066-26.202 29.564-37.026 37.303-49.181-15.728 11.926-38.335 25.579-37.303 49.181zM594.511 550.685c-3.495 21.491-31.804 30.868-47.653 3.882 18.667 39.194 53.762 24.651 47.653-3.882z" style="fill:#e8bf24;stroke:none" transform="translate(0 -138.25)"/><path d="M380.054 608.098c19.477-4.165 25.07 1.396 35.633 5.524-7.615-10.183-19.28-24.005-35.633-5.524z" style="fill:#e27007;stroke:none" transform="translate(0 -138.25)"/></g></svg>