<svg xmlns="http://www.w3.org/2000/svg" xmlns:xlink="http://www.w3.org/1999/xlink" version="1.0" viewBox="0 0 900 600"><path style="fill:#003da5;fill-opacity:1;fill-rule:nonzero;stroke:none" d="M0 0h900v600H0z"/><use transform="rotate(164.3 439.4 302.692)" width="1000" height="700" xlink:href="#a"/><path d="m760.054 356.568-11.67 3.793-.001 12.27-7.213-9.926-11.67 3.791 7.212-9.928-7.213-9.927 11.67 3.791 7.214-9.927v12.271l11.67 3.792z" transform="scale(.87167) rotate(7.274 588.705 173.423)" id="a" style="fill:#fff;fill-opacity:1;fill-rule:nonzero;stroke:none"/><use transform="rotate(-10.3 439.4 302.692)" width="1000" height="700" xlink:href="#a"/><use transform="rotate(-30.9 439.4 302.692)" width="1000" height="700" xlink:href="#a"/><use transform="rotate(-20.6 439.4 302.69)" width="1000" height="700" xlink:href="#a"/><use transform="rotate(-51.5 439.4 302.692)" width="1000" height="700" xlink:href="#a"/><use transform="rotate(-72.1 439.4 302.692)" width="1000" height="700" xlink:href="#a"/><use transform="rotate(-61.8 439.4 302.691)" width="1000" height="700" xlink:href="#a"/><use transform="rotate(-41.2 439.4 302.692)" width="1000" height="700" xlink:href="#a"/><use transform="rotate(-92.7 439.4 302.692)" width="1000" height="700" xlink:href="#a"/><use transform="rotate(-113.3 439.4 302.692)" width="1000" height="700" xlink:href="#a"/><use transform="rotate(-103 439.4 302.692)" width="1000" height="700" xlink:href="#a"/><use transform="rotate(-133.9 439.4 302.692)" width="1000" height="700" xlink:href="#a"/><use transform="rotate(-154.5 439.4 302.692)" width="1000" height="700" xlink:href="#a"/><use transform="rotate(-144.2 439.4 302.692)" width="1000" height="700" xlink:href="#a"/><use transform="rotate(-123.6 439.4 302.692)" width="1000" height="700" xlink:href="#a"/><use transform="rotate(-82.4 439.4 302.692)" width="1000" height="700" xlink:href="#a"/><use transform="rotate(-175.1 439.4 302.692)" width="1000" height="700" xlink:href="#a"/><use transform="rotate(174.601 439.4 302.692)" width="1000" height="700" xlink:href="#a"/><use transform="rotate(143.7 439.4 302.692)" width="1000" height="700" xlink:href="#a"/><use transform="rotate(123.1 439.4 302.692)" width="1000" height="700" xlink:href="#a"/><use transform="rotate(133.4 439.4 302.692)" width="1000" height="700" xlink:href="#a"/><use transform="rotate(154 439.4 302.692)" width="1000" height="700" xlink:href="#a"/><use transform="rotate(-164.8 439.4 302.692)" width="1000" height="700" xlink:href="#a"/><use transform="rotate(112.8 439.4 302.692)" width="1000" height="700" xlink:href="#a"/><use transform="rotate(102.5 439.4 302.692)" width="1000" height="700" xlink:href="#a"/><path d="M542.99 392.182a70.459 70.459 0 0 1-70.798 36.855" transform="translate(-848.624 -659.36) scale(2.67904)" style="fill:none;stroke:#00aec7;stroke-width:6.37498617;stroke-miterlimit:4;stroke-opacity:1;stroke-dasharray:none"/><path d="M642.865 360.59s-31.479-14.13-95.22-14.34c-63.762-.202-131.519 17.362-168.941 16.917-37.422-.464-48.48-.47-70.83-4.669 0 0 33.833 11.188 69.738 14.536 35.905 3.348 119.029-13.077 160.512-15.673 42.47-2.662 75.479-2.636 104.74 3.23" style="fill:#fff;fill-opacity:1;fill-rule:nonzero;stroke:none"/><path d="M393.726 378.943s24.076 1.223 70.124-3.72c46.04-4.931 78.722-11.764 115.085-12.68 36.357-.922 76.486 5.434 84.895 7.625 0 0-60.524-1.655-85.954 1.988-25.43 3.642-91.14 11.868-125.849 12.672-34.709.824-46.596-3.897-58.301-5.885M293.095 344.24s63.755 17.047 121.586 5.852c65.35-12.68 103.734-12.418 132.982-12.561 29.262-.164 59.812 7.186 59.812 7.186s-119.977-125.175-245.63-191.54c0 0-9.396 105.625-68.75 191.062" style="fill:#00aec7;fill-opacity:1;fill-rule:nonzero;stroke:none"/><path d="M392.784 246.876s-1.74-6.643-10.443-5.688c0 0 5.59-2.42 8.017-1.092 2.432 1.333 3.06 1.634 2.426 6.78m-20.938-11.783s1.935-.654 2.74-.294c0 0 1.4 4.06 4.015 5.525 0 0-4.721-.287-6.755-5.23m27.751 6.355c-3.38-4.466-8.605-5.996-10.828-6.042-2.217-.04-7.402 4.29-7.402 4.29-1.374-2.407-.7-4.257-.7-4.257 2.504.32 4.545 1.23 4.545 1.23-.942-3.231-2.485-4.63-2.485-4.63 5.035-1.334 10.992 3.034 10.992 3.034-5.44-7.18-12.372-8.41-13.771-8.508-1.406-.104-3.276 2.028-3.276 2.028-9.737.052-12.385 5.446-12.385 5.446 4.08 6.337 12.437 7.834 12.437 7.834-14.686-1.595-14.353 9.9-14.353 9.9l13.608-7.068c-5.232 30.183-26.34 43.712-28 45.458-1.674 1.766-.654 3.63 1.89 3.917 1.392.144 3.138 1.275 7.78-4.165 17.597-20.63 19.919-39.47 20.468-44.295l.248.268c1.498 3.55.458 6.781.759 9.122.307 2.34 5.486 7.422 5.486 7.422s2.864-5.513 2.4-8.815c-.458-3.309-6.807-9.514-6.807-9.514 9.782-1.798 10.338 14.536 10.338 14.536 3.786-4.427 3.008-9.168 3.008-9.168s7.827-5.675 6.048-8.023" style="fill:#fff;fill-opacity:1;fill-rule:nonzero;stroke:none"/></svg>