<svg version="1.0" xmlns="http://www.w3.org/2000/svg" viewBox="0 0 300 180"><path fill="#004990" d="M0 0h300v180H0z"/><path d="M163.08 122.99c-.043-.12-.197-.149-.299-.106l-.561.25c-.12.03-.173.174-.13.284l5.663 16.942 8.324 15.53c.053.13.207.174.309.126.196-.081.383-.187.571-.246 0-.018.023-.018.023-.018.102-.034.17-.168.125-.294l-5.613-16.755zm-29.805-65.978a.246.246 0 0 0 .307.106c.198-.101.395-.169.582-.25a.244.244 0 0 0 .14-.298l-5.614-16.756-8.402-15.722a.233.233 0 0 0-.313-.087l-.552.226c-.125.053-.168.173-.125.299l5.652 16.918zm34.784 63.248c-.077-.105-.225-.125-.312-.057l-.519.307c-.086.072-.139.207-.072.317l8.238 15.838 10.65 14.063c.073.106.223.13.328.053.163-.115.34-.221.519-.336l.014-.004c.106-.064.135-.199.087-.314l-8.17-15.684zm-50.4-74.572 10.642 14.059c.067.1.216.13.322.057.173-.114.35-.23.523-.33a.253.253 0 0 0 .096-.323l-8.156-15.674L110.32 29.28c-.053-.11-.207-.13-.308-.058l-.5.313c-.11.062-.145.201-.101.322zm54.894 71.083c-.1-.087-.235-.087-.325-.005l-.458.399c-.086.086-.115.216-.037.327l10.622 14.357 12.717 12.209c.095.09.24.09.332.004a9.14 9.14 0 0 1 .46-.418h.006c.1-.082.115-.211.033-.317l-10.498-14.218zm-48.732-53.549c.082.106.235.106.327.024.15-.149.303-.303.467-.418v-.005a.254.254 0 0 0 .038-.322l-10.516-14.213-12.843-12.333a.262.262 0 0 0-.332-.024l-.452.394c-.09.096-.11.226-.033.336l10.627 14.348zm67.248 59.59-14.63-10.165a.208.208 0 0 0-.312.038l-.39.458a.25.25 0 0 0 .01.331l12.733 12.507 14.472 10.07c.12.086.264.062.34-.048.12-.154.26-.323.385-.462l.006-.014a.222.222 0 0 0-.02-.316zM105.456 57.3l14.472 10.065a.24.24 0 0 0 .337-.043c.12-.154.25-.332.39-.472h.005c.086-.115.062-.235-.02-.346l-12.602-12.372-14.62-10.18a.227.227 0 0 0-.323.048l-.394.457c-.072.086-.067.245.024.321zm90.212 58.395-16.029-7.757a.221.221 0 0 0-.313.09l-.311.53c-.063.101-.043.234.072.298l14.53 10.377 15.87 7.686c.122.063.255.029.323-.101.087-.169.202-.35.307-.524.01 0 .01-.005.01-.005a.247.247 0 0 0-.072-.327zm-94.802-51.314 15.857 7.685c.134.068.27.02.322-.091.096-.178.21-.37.317-.52l.01-.014c.057-.12.038-.254-.068-.326l-14.381-10.272-16.05-7.763c-.105-.062-.24-.009-.302.087l-.317.533c-.053.106-.039.25.077.317zm-3.422 7.724 16.86 5.104a.227.227 0 0 0 .313-.16c.067-.172.13-.378.226-.55l.01-.015a.246.246 0 0 0-.135-.308L98.91 68.294l-17.063-5.167a.234.234 0 0 0-.283.139l-.23.553c-.05.134 0 .26.124.317zM95.27 80.26l17.467 2.408a.24.24 0 0 0 .278-.192c.034-.202.077-.414.12-.596 0 0 .01-.01.01-.03.034-.105-.053-.234-.163-.264l-16.871-5.316-17.635-2.432a.218.218 0 0 0-.259.183l-.139.586c-.03.125.043.246.154.274zm-.875 8.398 17.63-.352c.135 0 .236-.11.236-.235 0-.198.019-.419.034-.611v-.02c.019-.12-.077-.23-.198-.25l-17.476-2.604-17.818.35c-.12 0-.216.111-.23.232l-.038.581c-.005.149.081.26.191.27zm17.807 5.32a.221.221 0 0 0 .207-.26c-.02-.206-.043-.413-.052-.615v-.01a.258.258 0 0 0-.26-.226l-17.673.163L76.9 96.176c-.13.028-.217.125-.202.264l.043.592c.019.11.134.22.254.22l17.852-.153zm1.068 5.58c.12-.034.192-.153.154-.293-.053-.193-.111-.4-.154-.606a.247.247 0 0 0-.275-.177l-17.423 2.903-16.838 5.858a.234.234 0 0 0-.153.28l.153.6c.03.12.145.193.275.17l17.606-2.953zm1.927 5.35c.12-.062.163-.187.11-.322-.086-.164-.172-.376-.25-.558l-.005-.004c-.043-.115-.172-.164-.297-.13l-16.751 5.594-15.707 8.408a.248.248 0 0 0-.12.312l.245.562c.043.11.177.164.297.13l16.924-5.672zm63.243-34.79a.25.25 0 0 0-.057.337l.327.495c.057.115.192.148.312.106L194.86 62.8l14.054-10.65c.106-.073.124-.227.058-.333l-.337-.514v-.014a.235.235 0 0 0-.303-.077l-15.679 8.152zm-60.513 39.77c.115-.082.125-.212.068-.332a3.306 3.306 0 0 1-.318-.505l-.024-.024a.241.241 0 0 0-.312-.082l-15.683 8.151-14.198 10.757c-.106.088-.111.232-.063.338l.327.495c.062.115.212.158.313.1l15.832-8.243zm57.034-44.25c-.091.092-.091.227 0 .332l.398.452c.077.087.207.12.312.039l14.363-10.622 12.218-12.733c.083-.086.083-.235 0-.331a4.094 4.094 0 0 1-.413-.447.248.248 0 0 0-.327-.063L187.3 52.782zm-53.545 48.733a.245.245 0 0 0 .014-.335 4.333 4.333 0 0 1-.413-.462h-.01a.243.243 0 0 0-.322-.033l-14.218 10.488-12.329 12.863c-.1.1-.1.23-.014.326l.4.461c.08.097.225.115.317.028l14.352-10.617zm49.41-52.62c-.082.12-.067.244.033.322l.472.39c.096.08.23.08.326-.015l12.516-12.738 10.07-14.472a.245.245 0 0 0-.043-.341 3.194 3.194 0 0 1-.48-.395v-.005c-.1-.057-.236-.057-.323.03L181.003 47.12zm-45.262 56.514a.283.283 0 0 0-.044-.341 2.932 2.932 0 0 1-.485-.38v-.02a.241.241 0 0 0-.332.03l-12.4 12.593-10.17 14.63a.231.231 0 0 0 .038.318l.466.389a.256.256 0 0 0 .337-.014l12.516-12.733zm40.557-59.7c-.062.104-.006.25.1.297l.515.307c.1.068.24.058.321-.057l10.372-14.54 7.681-15.871a.243.243 0 0 0-.104-.318c-.183-.096-.356-.206-.54-.311-.105-.087-.23-.048-.311.061l-10.257 14.382zm-35.862 62.896a.268.268 0 0 0-.106-.332 6.128 6.128 0 0 1-.524-.298s-.014 0-.014-.014c-.11-.072-.23-.029-.317.063l-10.262 14.381-7.772 16.045c-.048.125-.005.25.105.312l.505.311c.125.059.255.04.336-.056l10.358-14.555zm30.858-65.022.562.212c.125.062.255.014.318-.106l7.956-15.98 5.114-16.862c.047-.135-.024-.246-.15-.308a6.605 6.605 0 0 1-.567-.22l-.008-.006c-.13-.038-.237 0-.304.12l-7.892 15.8-5.153 17.053c-.042.13.02.24.124.298m-25.864 67.127c-.192-.053-.394-.144-.581-.212v-.014a.268.268 0 0 0-.313.115l-7.877 15.799-5.172 17.068a.228.228 0 0 0 .144.298l.567.221c.106.043.235 0 .308-.1l7.95-15.992 5.11-16.885c.052-.11-.025-.255-.136-.298m21.052-68.607c.122.033.245-.044.284-.165l5.364-17.034 2.413-17.462c.004-.134-.067-.26-.201-.279a7.609 7.609 0 0 1-.606-.134v-.005c-.11-.024-.245.043-.278.158l-5.321 16.862-2.432 17.66a.246.246 0 0 0 .187.269zm-16.245 70.083h-.005a.264.264 0 0 0-.298.169l-5.306 16.855-2.418 17.654c-.024.125.043.24.168.255l.592.144a.256.256 0 0 0 .292-.158l5.36-17.048 2.413-17.448c.024-.15-.053-.254-.198-.279a4.99 4.99 0 0 1-.6-.144m10.06-70.962.602.043a.248.248 0 0 0 .253-.212l2.644-17.654-.365-17.63c0-.139-.096-.25-.24-.25-.198-.005-.404-.01-.606-.034-.14 0-.235.068-.248.207l-2.63 17.476.365 17.818c0 .134.105.221.225.235m-3.86 71.837c-.21 0-.417-.014-.614-.028-.14-.015-.24.072-.265.202l-2.629 17.486.375 17.799c0 .144.1.25.22.25l.596.024a.233.233 0 0 0 .27-.198l2.634-17.65-.356-17.639c0-.126-.1-.241-.23-.246m-2.043-71.904c.034.134.13.21.27.206l.59-.053c.125-.019.212-.11.212-.255l-.168-17.842-3.086-17.366a.257.257 0 0 0-.278-.201c-.198.033-.414.048-.616.062.02 0 0 0 0 0a.242.242 0 0 0-.216.231l.144 17.687zm7.955 71.972a.249.249 0 0 0-.274-.206 3.846 3.846 0 0 1-.62.062c-.12.025-.222.12-.222.254l.165 17.664 3.138 17.54a.22.22 0 0 0 .26.187l.605-.048c.111-.005.205-.116.225-.245l-.177-17.847zm-13.535-70.895c.043.106.168.187.283.153l.592-.153a.213.213 0 0 0 .163-.26l-2.927-17.625-5.797-16.655c-.029-.13-.15-.187-.298-.148-.188.047-.394.105-.587.148h-.024c-.105.025-.191.154-.178.274l2.923 17.428zm19.106 69.828c-.024-.12-.168-.192-.288-.164-.188.063-.405.12-.587.164h-.019c-.12.033-.197.154-.177.265l2.917 17.447 5.854 16.823a.222.222 0 0 0 .278.158l.586-.139c.111-.039.209-.16.179-.293l-2.945-17.598zM130.37 88.4a325.91 325.91 0 0 0-5.056 2.365 47.7 47.7 0 0 0 2.73 7.79 50.576 50.576 0 0 0 3.398 6.37 151.729 151.729 0 0 1 4.94-2.476c1.366-.663 2.89-1.36 4.644-2.167a105.66 105.66 0 0 1-2.798-5.907 103.727 103.727 0 0 1-3.105-8.142c-1.96.87-3.432 1.556-4.753 2.167m13.52 10.589c.832-.35 1.678-.726 2.538-1.101a509.51 509.51 0 0 1 4.205-1.788 576.546 576.546 0 0 1 6.888-2.89 129.516 129.516 0 0 0-2.475-6.113c-1.014-2.393-2.188-4.883-3.556-7.608l-.127-.222a923.64 923.64 0 0 0-6.824 2.817l-.812.342a585.007 585.007 0 0 0-5.788 2.547c1.005 2.783 2.082 5.513 3.24 8.094.77 1.861 1.658 3.788 2.711 5.922m26.638-10.69c-.592-2.394-1.41-4.778-2.378-7.1a48.735 48.735 0 0 0-3.684-7.112 399.063 399.063 0 0 0-5.56 2.153c-1.557.63-3.081 1.23-4.648 1.86 1.274 2.35 2.49 4.879 3.74 7.719a87.805 87.805 0 0 1 2.432 6.225c1.6-.65 3.158-1.24 4.638-1.817a183.23 183.23 0 0 1 5.46-1.928m2.389-.789a68.733 68.733 0 0 1 3.33-.985c.697-.168 1.323-.322 1.962-.442.154-.034.278-.044.442-.077a31.427 31.427 0 0 0-2.263-8.142 31.185 31.185 0 0 0-3.731-6.393l-.264.033c-.294.034-.59.106-.846.169a23.08 23.08 0 0 0-1.797.543c-.875.274-1.847.61-2.894.99a42.648 42.648 0 0 1 3.75 6.96 43.178 43.178 0 0 1 2.31 7.344m-48.761 21.88.168-.164c.572-.47 1.149-.85 1.673-1.197a68.514 68.514 0 0 1 3.225-1.908 42.163 42.163 0 0 1-3.62-6.474 42.784 42.784 0 0 1-2.556-7.762c-.813.39-1.947.98-3.047 1.605a20.03 20.03 0 0 0-1.582.966c-.191.144-.39.288-.543.443l-.125.1c.404 2.51 1.11 4.97 2.14 7.31a31.363 31.363 0 0 0 4.267 7.08m-4.499-30.972c-1.85 4.533-2.62 9.508-2.182 14.347.447-.334.942-.686 1.466-1.022a64.455 64.455 0 0 1 3.408-2.01l.245-.13c-.015-.144-.049-.297-.078-.442l-.009-.124c-.592-3.885-.572-7.6.038-11.055.101-.558.202-1.073.327-1.587a44.018 44.018 0 0 0-2.836 1.76zm12.377-6.743c-1.105.524-2.192 1.029-3.398 1.635a102.37 102.37 0 0 0-3.649 1.912 24.02 24.02 0 0 0-.624 3.024c-.424 3.172-.299 6.605.408 10.203 1.399-.735 2.88-1.48 4.538-2.297 1.72-.798 3.369-1.562 5.065-2.321a67.753 67.753 0 0 1-1.48-5.884c-.355-1.898-.71-3.98-.86-6.272m7.56-3.413-1.533.668c-1.086.471-2.321 1.01-3.889 1.735.245 1.976.688 4.149 1.365 6.653.414 1.49.894 3.119 1.606 5.268.653-.288 1.307-.582 1.975-.86l.245-.12c1.327-.567 2.73-1.169 4.215-1.798 2.178-.942 4.413-1.86 6.618-2.773a104.596 104.596 0 0 0-2.782-4.85c-.89-1.409-2.25-3.514-3.922-5.551-1.422.585-2.744 1.143-3.898 1.628m9.667-3.865c-1.15.42-2.38.904-3.524 1.342 1.307 1.399 2.605 3.019 3.96 4.946a69.33 69.33 0 0 1 3.327 5.215c1.494-.61 3.143-1.24 4.983-1.951a179.297 179.297 0 0 1 5.159-1.841l-.044-.068c-2.197-3.051-4.628-5.551-7.262-7.416-.827-.582-1.708-1.158-2.625-1.625-1.273.418-2.57.875-3.974 1.398m9.868-3.065-.458.11c-.942.202-1.965.47-3.124.831.438.25.885.51 1.36.827 2.938 1.927 5.652 4.475 8.08 7.55.134.164.275.337.405.506l.125.168a80.29 80.29 0 0 1 3.67-1.072c.751-.201 1.38-.341 1.963-.452l.1-.01h.044a30.964 30.964 0 0 0-12.166-8.458m-2.912-.947a30.978 30.978 0 0 0-9.513-1.053c2.183.221 4.422.827 6.624 1.822 1.023-.303 1.975-.539 2.889-.769m-16.852.73c.308.087.625.212.923.356 1.494.697 2.769 1.74 3.715 2.572.096.072.178.149.25.23a125.04 125.04 0 0 1 4.393-1.62c.794-.259 1.524-.523 2.221-.744-1.509-.592-3.013-.986-4.504-1.173-2.235-.327-4.629-.198-6.998.38m-2.365.921c-.322 0-.654.05-.961.155-.909.495-1.562 1.504-1.87 3.01-.187.998-.25 2.095-.173 3.421a210.83 210.83 0 0 1 4.066-1.831c1.538-.65 2.88-1.216 4.095-1.697-.884-.933-1.74-1.668-2.605-2.215-.625-.375-1.572-.843-2.552-.843m-8.97 6.62c-.879 1.215-1.614 2.6-2.225 4.085.601-.332 1.245-.673 1.99-1.067a140.014 140.014 0 0 1 4.158-2.091v-.337c.062-1.802.293-3.225.687-4.465.125-.317.245-.63.36-.88-1.97 1.308-3.69 2.951-4.97 4.754m-4.46 5.355c.823-2.335 1.952-4.431 3.322-6.2a30.567 30.567 0 0 0-5.94 7.849 64.097 64.097 0 0 1 2.618-1.65m15.52 44.94a58.237 58.237 0 0 1 2.298-1.234 34.942 34.942 0 0 1-1.88-1.158c-2.936-1.962-5.671-4.48-8.113-7.494-.221-.269-.428-.544-.64-.817l-.216-.312-.086.067a59.125 59.125 0 0 0-3.385 1.773c-.538.298-1.09.62-1.58.986l-.11.058a30.904 30.904 0 0 0 13.106 8.493zm7.34-3.728.245-.102c1.26-.604 2.25-1.052 3.167-1.475a54.048 54.048 0 0 1-3.268-4.158c-1.523-2.119-2.937-4.417-4.374-6.998-1.812.832-3.364 1.554-4.773 2.201a201.89 201.89 0 0 0-4.695 2.188l.004.024c.058.062.106.134.158.217.111.172.236.331.352.495 2.225 3.028 4.69 5.527 7.324 7.421.832.62 1.74 1.201 2.702 1.735 1.15-.578 2.273-1.11 3.158-1.548m5.595-2.567c1.672-.75 3.354-1.5 4.935-2.178a380.472 380.472 0 0 1 4.932-2.09c-.32-2.049-.802-3.947-1.216-5.532-.754-2.732-1.504-5.105-2.292-7.293-2.091.856-4.307 1.77-6.787 2.803l-.807.356c-2.092.904-3.985 1.74-5.773 2.528a111.668 111.668 0 0 0 3.806 6.753c1.12 1.812 2.163 3.336 3.202 4.653m12.113-5.2c1.043-.424 2.143-.88 3.248-1.289 1.337-.533 2.51-.976 3.6-1.394.275-1.1.476-2.158.606-3.162.414-3.212.27-6.71-.39-10.397a12.962 12.962 0 0 1-.148-.644v-.015c-1.375.524-2.75 1.058-4.182 1.635l-.907.351c-1.581.61-3.207 1.264-4.716 1.87.88 2.715 1.577 5.282 2.092 7.81.388 1.942.653 3.643.797 5.235m10.872-2.385c-.586.236-1.15.452-1.735.697-.294.1-.606.231-.914.356-.764 2.254-1.793 4.273-3.05 6.014-.234.326-.497.668-.795 1.024a30.91 30.91 0 0 0 6.494-8.09m-6.87 6.247c.877-1.293 1.612-2.758 2.198-4.392-.737.307-1.49.61-2.265.941-1.168.495-2.465 1.025-3.806 1.597.018.577.029 1.037.018 1.456-.033 1.225-.162 2.874-.653 4.46-.125.332-.245.625-.356.87 1.947-1.36 3.63-3.043 4.865-4.932m-8.887 6.816c.351 0 .677-.053.99-.158 1.226-.664 1.663-2.178 1.82-3.004.227-1.168.266-2.471.147-3.99-.02-.16-.03-.318-.049-.476-.02-.043-.02-.096-.02-.148-1.36.591-2.903 1.24-4.411 1.908-.438.187-.885.384-1.322.561l-.539.241a68.93 68.93 0 0 0-1.899.837l-.672.273c.14.169.3.327.427.477 1.072 1.197 2.024 2.028 3 2.643.63.38 1.188.611 1.745.732.26.075.537.104.783.104m-6.311 1.293c1.298 0 2.595-.13 3.869-.399-.255-.096-.533-.201-.831-.35-1.178-.554-2.362-1.366-3.721-2.544a55.415 55.415 0 0 1-1.052-1.014c-1.105.477-2.158.951-3.158 1.393l-.596.275c-.75.341-1.47.653-2.153.981 1.552.672 3.139 1.153 4.705 1.407.934.17 1.937.251 2.937.251m-3.158 1.154c-2.134-.269-4.31-.894-6.47-1.9-.138.078-.273.122-.393.198-.207.077-.38.169-.563.264-.659.3-1.21.563-1.697.794a30.56 30.56 0 0 0 10.546.773 15.497 15.497 0 0 1-1.422-.129m26.273-17.549a30.7 30.7 0 0 0 2.786-15.12c-.042.009-.095.009-.144.038l-.072.005c-.634.164-1.27.374-1.801.537-1.252.39-2.461.842-3.505 1.222l.034.149c.058.312.11.645.158.98.515 3.831.492 7.562-.095 11.04-.097.655-.255 1.362-.453 2.173.885-.313 1.645-.557 2.398-.811z" fill="#ffd51d"/></svg>