<svg version="1.1" id="Layer_1" xmlns="http://www.w3.org/2000/svg" x="0" y="0" viewBox="0 0 900 600" style="enable-background:new 0 0 900 600" xml:space="preserve"><style>.st4{fill:#fcdd09}</style><path d="M-164-385.4h900v600h-900v-600z" style="fill-rule:evenodd;clip-rule:evenodd;fill:#6abd51" transform="translate(164.042 385.399)"/><g transform="matrix(1.19816 0 0 1.19793 4.286 2.912)"><circle cx="372" cy="248" style="fill-rule:evenodd;clip-rule:evenodd;fill:#fcdd09" r="130.2"/><path d="M303.1 229.6c-4.5.6-5.7-7.4-5.4-13.5.1-1.4 3.6-9.3 3.6-1.9 0 1.8 1.4 3.1 2 4.8 1.8 4.6 4.7 7.4 3.4 1.9-1-4.3-9-18.8 12.7-31.6 9.4-5.5 19.2-7.5 27.9-17.1 1-1.1 3.5-5 3.8.2.1 1.4-1.2 2.6-2.5 4.3-1.2 1.7-3.1 4.5 1.9 2.5 4-1.6 6.9-4.2 10.1-7.9 4.7-5.3 10.1-7.1 20.2-14.2 3.2-2.2 7.8-2 2.6 2.2-1.6 1.3-1.8 5.6-3.5 8-1.3 1.8-6.3 5.5.4 3.4 6.6-2.1 10.4-1.9 22.5-13.5 2.5-2.5 4-6.4 14.2-4.9 5.8.9 10.9 1.1 16.2-2.5 1.5-1 5.5-3.9 1.5 2-8.9 13.4-20.9 7.1-28.5 15.6-4.1 4.5-.9 3.1 2.1.6 2.9-2.4 6.1-4.2 11.7-2.1 2 .7 3.8.2 5.8-1.3 3.7-2.8 2.8-.1 1.8 2-1.5 3.3-4.8 4.1-8.1 5.3-2.7 1-1.6 1.7.7 2 5.5.8 14.5 2.6 16.1 1.5 2.1-1.4 3.4-1.3.8 2-3.5 4.5-9.7 4.9-16.5 5.2-3.9.2-9.2 3.3-14.1 7.5-3.8 3.2-3.5 3-.9 2.5 1.3-.3 5.5-.7 1.5 2.6-1.5 1.2-4.3 5.7-6.5 7.8-1.5 1.5-3.7 2.6-6.3 3.5-2.1.7-7 .7-1.1 2.2 6.4 1.6 11.7.8 17.8-1 5.5-1.6 10.8.9 17 4.7 3.6 2.2 7.2 4.9 13.2 3.1 3.3-1 5.8-1 1.5 2.7-5.1 4.3-12.1 5.8-20.9 4.2-3.8-.7-7.5-1.4-11.3-2.1-3.5-.6-7 .5-.2 1.5 8.2 1.2 13.7 7.9 23.3 10.3 1.1.3 2.2 0 3.2-.1 1.9-.2 5.8.3 1.4 2.5-4 2-6.4 2.1-13.5 1-2.2-.3-4.5-.7-6.7-1-2.6-.4-4-.5-.4 1.2 5.2 2.4 8 6.5 16.5 7.2 4.1.4 3.4 1.2.6 2.5-4.3 2-9.3 2-14.3 1.5-3.3-.3-4.7-1.7-10.2-.8-4.7.7-5 2.7-14.2-1.7-4.5-2.2-5.6-3.3-7.8-4.4-2.3-1.1-5.2-2.7-2.1 1.7 2.6 3.7 3.1 7.7 12.1 11.9 3.6 1.7 4.6 1.9-.1 2.3-12.2 1.1-12.4-1.7-17.1-3.9-3.5-1.6-6.6-2.4-10.9-1.5-2.4.5-10.4 2.5-14.5 5.7-4.2 3.3-15.9-.2-15.9-.2 8.7-16.8-22.8-26.6-36.6-26.4z" style="fill:#da121a"/><path d="M319.3 292.6c.4-5.2 3.1-8.8 5-14.1.1 0 10-14.6 16.5-22.7 2.5-3.7 4.8-3.5 9-4.3 7-1.5.9-2.1.1-2.2-2.2-.5-3-1.3-5.9-2.2-3.8-1.2.5-.7 1.3-.9l5.6-1.1c11.3-2.1.6-2.1-7.7-5.5-13.7-5.5-21.2-11.4-37.5-12.5-3.9-.3-3.8 3.4-1.7 5.5 1.9 1.9 1.7 3.9 1.9 6.2.8 10.2.9 20.2 1.5 30.4-2.2 6.8-5.1 13.9-6.6 20.4l18.5 3z" style="fill:#7d4b23;stroke:#fcdd09;stroke-width:.2449;stroke-miterlimit:4.7926" transform="translate(0 .012)"/><path class="st4" d="M303.1 229.1c-.7 0-.2 1.1-.2 1.7.6 1.5 2 2.4 2.6 3.9.8.2 1.6.2 2.3 1.2l.1 8.8c-.7-.5-1.2-.7-1.8-.9.1.7-.3 1.5-.6 1.8-.2.2 0 .5 0 .8l2.2 1.3-.1 8.2-1.8.4c0 5 0 10 1.1 14.2l.9-.6c.9-.1 1 .6.7 2-.8 4.4-2.1 8.8-3.8 13.4-.9 2.6-2 2.2-3.2 2.3l5.3-17.1-5.5 17.5-.4 1.2c1 .1 1.3.6 3 .2 1.7-.8 3.6-1.4 5.4-2.1-1.2-.3-1.3-1.3-1.3-2.3 0-3.6 1.7-7.7 2.6-11.6.5-1.2.3-2.9 3.4-2.3 2.1.6 4 1 6.8 2.3 1.8 1 3.5 2.2 4.1 4l2.4-3.2c-1.5-1.4-7.9-3.4-12.3-5-.5-.3-1.1-.4-.8-1.8l1.1-4.3c.2-2 1.3-1.9 2.6-1.4 3.3.3 10.8 3.8 12.9 7.6l2.5-3.5c-5.1-2.9-10-4.9-14.8-6.6-1.4-.6-1.3-1.7-1.3-2.8l.1-5.1c.5-2.6 1.2-1.9 1.8-1.9 5.6 1.3 13.9 4.3 19.3 9.4 1-.9 1-2.5 3.6-2.1l-.4-2.4c-.5-.6-6.5-1.2-8.5-2.4-4.2-1.9-8.3-3.7-12.7-4.8-1.4-.3-1.4-1.4-1.2-2.5l.5-5.2c.3-1.8 1.7-2.5 1.5.2-.8 7.9.7 6.5 2.1.1.3-1.5 2.3-1.5 1.6.8-.3 1.3-1 3.6.9.5.4-.7.9-1.6 2-1.3 5.8 1.8 5.8 3.1 8.3 4 2.7 1 5.3-.3 1.8-1.9-8.3-3.7-16.6-7.2-25.9-9.7-2.4-.5-4.6.9-7.2-2.1-.8-.7-1.4-.9-1.7-.9zm9.6 6.2c.8 0 1.6 1.2 1.4 2.2l-.4 5.2c-.1 3.3-2.5 2.6-2.3.3l.2-5.7c.1-1.5.6-2 1.1-2zm4.6.8c.7 0 1.4 1 1.1 2.4l-.6 5.7c-.4 2-2.7 1.9-2.5-.2l.8-6.6c.4-.9.8-1.3 1.2-1.3zm-5.4 11.8c.6 0 1.1.6 1 1.8l-.5 5c-.1 2.5-2.1 2.5-1.9.1l.2-5.2c0-1.2.6-1.7 1.2-1.7zm3.5 1.9c.4 0 .9.5.9 1.4l-.5 4.1c0 2-1.8 1.9-1.6.1l.3-4.1c.1-1 .5-1.4.9-1.5zm-5.2 10.5c.4 0 .7.5.6 1.6l-.5 4.5c0 1.1-1.4 1.2-1.2.1l.4-4.5c0-1.2.4-1.7.7-1.7zm2.8.3c.5 0 .9.6.7 1.4l-.4 3.2c0 .9-1.4 1.6-1.4 0l.4-3.3c0-.9.4-1.3.7-1.3z" transform="translate(0 .012)"/><path d="M288.7 317.7c1.2 3.2 1.6 6.5 1.8 9.9l-5.1 17.5c3.3 2.9 6.9 6 10.8 8.6l5.6-15c.7-1.7 1.9-.7 3 .2 2.1 1.8 3 3.5 7.1 3.1 3.5-.3 3.2-.3 6 1.6 16.5 11.9 27.2 21.6 43.4 33.9 15.4 1.2 34.2.9 58-8.5-22.3-21.3-44-21.9-56.6-29.1-10.7-6.1-21.4-9.9-27.1-19.1-2.5-4.1-.4-6.9-2.9-10.4-3.6-5-3.1-8.5-4.9-12.3-1.3-2.7-3.1-5.1-5.6-6.8-1.9-1.3-5.2-4-12.4-4.1l-5.7 1.4-6.1.7-1.3 4.2-3.2 1.9-4 8.1-.8 14.2z" style="fill:#7d4b23;stroke:#fcdd09;stroke-width:.3674;stroke-linejoin:round;stroke-miterlimit:4.7926" transform="translate(0 .012)"/><path class="st4" d="m287.4 346.6 5.6-19.1c1.2-4.2 4.1-3.2 2.7 1.2l-6.2 19.7-2.1-1.8zM299 329.1c2.1-5 3.8-3.8 2.1 1.1l-7.2 21.7c-.6-.5-1.1-.9-1.9-1.5l7-21.3zM384.5 377.4c-11.7-7.7-19.4-13.7-25.5-19.7-19.9-19.4-2.3-4 6.6 2.9 7.2 5.5 14 10.2 24.4 16.2l-5.5.6z" transform="translate(0 .012)"/><path class="st4" d="M299.1 288.5c-1.8 0-3.2 1.7-2.6 3.9-.1 1.1-.5 1.2-.8 1.6-1.6.6-.7-1.4-4.4 2.4-.6 1-.8 1.1-.8 1.8.1 1.4-.4 3-1.1 3.9-.7.7-.9 1.3-1 2.2-.1.8 0 1.6 0 2.4.1.9 0 1.7-.1 2.6-.2.9-.3 1.7-.2 2.7.2 1.1.3 1.9.1 3-.6 2.5-.3 3.5 0 4.5.5.8.5 1.6.5 2.5.1.9.2 2 .5 2.9.6.6 1.2 2.6.9 3.7 1.6-4.9 4.5-8.1 10.6-6 2.3 1.4 3.4-2.7 5.1-.6 2.1.3 6.2-1.7 6.2.8.3 2.5.4 5.5 4.4 6.8 2.2.8 6.1-.7 5.6 3.9.2 2.6-3 4.7.7 7.6 2.7 2.1 9.6 1.6 4.9-1-2.1-1.5-2.9-1.7-3.5-3-1.3-2.9.6-4.7 1.3-3.9l8.9 9.2c6.9 7.8 14.9 15.2 22.6 22.6l4.7 4.6c2 2.7 4.3 5.1 5.9 8.4 1 0 1.7.1 2.4.1-2.5-3.1-5.2-5.6-7.8-8.2-9.5-10.2-19.6-19.9-28.5-30.6-1.3-1.5-1-1.6-1.2-2-.3-3.8-2-6.1-3-9.1-1.1-3.4 1.8-6.1 2.2-9.4.4-4.3-2.3-3.3-2.1.2.1 2.6-2.1 4.1-2.6 5.9-.4 1.4-.7 2.7.4 4.5 1.6 2 2.1 3.4 2.8 4.8 1 2.4.2 1.5-.5.8-2.2-1.9-3.8-3.9-5.5-6.2-2-2.7-2.8-1.2-5-1.4-2.6-.1-3.3-1.4-4.5-3.8-1.6-8.4.1-9.5 1.5-21.7.3-1.6 6.2-2.7 1.9-3-4.2-.1-4.1 0-5.3-2-.5-.8-.6-1.2-.6-2-.1-1-1.1-1-2.5-.2-4.1 1.9-6.6 2.2-10.4.5-.1-.2-.1-.5.3-1 2.2.3 2.6-.5 3.1-1.2.6-.9.3-2.3-.2-3-.4-.6-1.7-1-3.1-1.2-.1-.3-.1-.3-.2-.3zm-.2 1.6 2.4.2c0 .8-.5 1.2-.4 2.5-1.3 0-2 0-2.7-.1.1-1.4.2-1.8.7-2.6zm-3.2 5.7c.5 0 .9.1 1.4.3l4.2 1.9c1.8.4 3.6.4 5.6-.2 1.6-.3 3-.2 4 .8.6.6 1.2.9 1.2 1.8-.1 1.8-1.6 3.6-3.5 1.4-.8-.9-2.2-.6-3.3-.9-1.7.2-3.4.2-5 0-2.3 0-4.4-.2-5.7-.9-3.2-1.6-1.3-4.2 1.1-4.2zm4.4 6.3c2.8 0 5.3.4 6.7 2 1.5 1.4 4.3 1.7 4.3 3.8 0 1.5-1.4 4.9-3.8 2.5-1.9-1.9-2.9-2.6-5.2-3l-8.8-.2c-1.7.6-4.5-4.4.5-4.7 1.8-.2 4.1-.4 6.3-.4zm-2.8 6.9c1.4 0 2.7.1 4.1.2 2.6.4 3.7 1.7 5.3 2.7l1.5 1.5c.3 1.4-1.2 4.3-3 3.6 0 0-2.9-1.9-4.5-2.3-2.5-.8-7.9-.8-7.9-.8-3.1 0-3.5-3.6-.7-4.3 1.7-.4 3.5-.6 5.2-.6zm15.7 1.5c1.1 0-1.2 3.3-1.6 1.9.3-.7.5-1.2 1-1.7.2-.2.4-.2.6-.2zm-14.3 5.3c2.8.5 3.3 4.2.1 4.7l-4.6-.1-2 .6c-2.3.6-3.2-1.6-1.3-3.8 1.2-1.6 5-1 7.8-1.4zm11.3 1.1c.6 0 1 .5 0 2.1-.5.7-1.4.5-1.7-.5-.2-.8.5-1.2 1.3-1.5.1 0 .3-.1.4-.1z" transform="translate(0 .012)"/><path class="st4" d="M302.2 334.5c.7-4.4 2-6.4 3.7-10.3.4-1.1.1-2.1-.1-3.1l5.5.3c0 .3-.7 0-1.1.5-1.8 2.7-4.8 8.4-6.3 13 1 1.3 1.1 2.6 1.1 4-.8-.7-1.3-.9-1.7-1-1-.5-1.6 1-2.1 2.8.2-1.2.5-1.5.5-2.2-.5-.5-.5-2.1 0-2.4.5-.5.4-1 .5-1.6zM315.2 341.9c1.2.3 2 1 2.8 1.7.1.1-.1-1 .6-1.9.4-.4-1.3-1.2-1.8-.9-.5.5-1.3 1-1.6 1.1zM384.2 359.3c4.9 5.5 5.6 4.2 3.5 1.4-11.2-14.9-16.6-14.4-12.3-10.5 3.8 3.6 3.5 3.1 8.8 9.1z" transform="translate(0 .012)"/><path d="M419.3 368.8c-22.3-21.3-43.9-21.7-56.6-28.9-10.7-6.1-21.4-9.8-27-19-2.5-4.1-.4-6.9-2.9-10.4-3.6-5-3.1-8.5-4.9-12.3-1.3-2.7-3.1-5.1-5.6-6.8-1.9-1.3-5.2-4-12.4-4.1l-5.7 1.4" style="fill:none;stroke:#fcdd09;stroke-width:.9801;stroke-linecap:round;stroke-linejoin:round;stroke-miterlimit:4.7926" transform="translate(0 .012)"/><path d="m291 326-5.4 18.8" style="fill:none;stroke:#fcdd09;stroke-width:.9798;stroke-linecap:round;stroke-linejoin:round;stroke-miterlimit:4.7926" transform="translate(0 .012)"/></g></svg>